<?xml version="1.0" encoding="UTF-8" standalone="no"?>
<!DOCTYPE svg PUBLIC "-//W3C//DTD SVG 1.1//EN"
"http://www.w3.org/Graphics/SVG/1.1/DTD/svg11.dtd">
<svg viewBox="0 0 935 1210" version="1.1" xmlns="http://www.w3.org/2000/svg" xmlns:xlink="http://www.w3.org/1999/xlink">
<defs>
<style type="text/css"><![CDATA[
.g0_115{
fill: #E4E4E4;
}
.g1_115{
}
]]></style>
</defs>
<g fill="#000000" >
<use xlink:href="#f0_1c" transform="matrix(9,0,0,9,263.4,40.2)" />
<use xlink:href="#f0_11" transform="matrix(9,0,0,9,272.5,40.2)" />
<use xlink:href="#f0_12" transform="matrix(9,0,0,9,285.9,40.2)" />
<use xlink:href="#f0_1f" transform="matrix(9,0,0,9,295.1,40.2)" />
<use xlink:href="#f0_1e" transform="matrix(9,0,0,9,305.8,40.2)" />
<use xlink:href="#f0_1k" transform="matrix(9,0,0,9,315.7,40.2)" />
<use xlink:href="#f0_15" transform="matrix(9,0,0,9,324.8,40.2)" />
<use xlink:href="#f0_1k5" transform="matrix(9,0,0,9,334,40.2)" />
<use xlink:href="#f0_1j" transform="matrix(9,0,0,9,338.6,40.2)" />
<use xlink:href="#f0_1k" transform="matrix(9,0,0,9,349.7,40.2)" />
<use xlink:href="#f0_1f" transform="matrix(9,0,0,9,358.8,40.2)" />
<use xlink:href="#f0_1g" transform="matrix(9,0,0,9,369.5,40.2)" />
<use xlink:href="#f0_l" transform="matrix(9,0,0,9,381.4,40.2)" />
<use xlink:href="#f0_k" transform="matrix(9,0,0,9,388.3,40.2)" />
<use xlink:href="#f0_k" transform="matrix(9,0,0,9,395.1,40.2)" />
<use xlink:href="#f0_15" transform="matrix(9,0,0,9,405.5,40.2)" />
<use xlink:href="#f0_1e" transform="matrix(9,0,0,9,414.6,40.2)" />
<use xlink:href="#f0_17" transform="matrix(9,0,0,9,424.5,40.2)" />
<use xlink:href="#f0_1c" transform="matrix(9,0,0,9,435.2,40.2)" />
<use xlink:href="#f0_19" transform="matrix(9,0,0,9,444.4,40.2)" />
<use xlink:href="#f0_1j" transform="matrix(9,0,0,9,449.7,40.2)" />
<use xlink:href="#f0_18" transform="matrix(9,0,0,9,457.3,40.2)" />
<use xlink:href="#f0_13" transform="matrix(9,0,0,9,471.5,40.2)" />
<use xlink:href="#f0_1f" transform="matrix(9,0,0,9,481.4,40.2)" />
<use xlink:href="#f0_1e" transform="matrix(9,0,0,9,492.1,40.2)" />
<use xlink:href="#f0_1m" transform="matrix(9,0,0,9,502,40.2)" />
<use xlink:href="#f0_15" transform="matrix(9,0,0,9,511.9,40.2)" />
<use xlink:href="#f0_1i" transform="matrix(9,0,0,9,521.2,40.2)" />
<use xlink:href="#f0_1j" transform="matrix(9,0,0,9,531.1,40.2)" />
<use xlink:href="#f0_11" transform="matrix(9,0,0,9,538.7,40.2)" />
<use xlink:href="#f0_1k" transform="matrix(9,0,0,9,548.7,40.2)" />
<use xlink:href="#f0_19" transform="matrix(9,0,0,9,557.8,40.2)" />
<use xlink:href="#f0_1f" transform="matrix(9,0,0,9,563.2,40.2)" />
<use xlink:href="#f0_1e" transform="matrix(9,0,0,9,573.8,40.2)" />
<use xlink:href="#f0_1g" transform="matrix(9,0,0,9,587.2,40.2)" />
<use xlink:href="#f0_11" transform="matrix(9,0,0,9,595.6,40.2)" />
<use xlink:href="#f0_1k" transform="matrix(9,0,0,9,605.5,40.2)" />
<use xlink:href="#f0_1k" transform="matrix(9,0,0,9,614.8,40.2)" />
<use xlink:href="#f0_15" transform="matrix(9,0,0,9,624,40.2)" />
<use xlink:href="#f0_1i" transform="matrix(9,0,0,9,633.1,40.2)" />
<use xlink:href="#f0_1e" transform="matrix(9,0,0,9,643,40.2)" />
<use xlink:href="#f0_1j" transform="matrix(9,0,0,9,652.9,40.2)" />
<use xlink:href="#f0_l" transform="matrix(12,0,0,12,842.7,44.6)" />
<use xlink:href="#f0_k" transform="matrix(12,0,0,12,851.9,44.6)" />
<use xlink:href="#f0_q" transform="matrix(12,0,0,12,861,44.6)" />
</g>
<path d="M64.8,142.5H888.2V100.4H64.8v42.1Z" class="g0_115"/>
<g fill="#000000" >
<use xlink:href="#f0_19" transform="matrix(24,0,0,24,249.6,134.6)" />
<use xlink:href="#f0_1e" transform="matrix(24,0,0,24,263.9,134.6)" />
<use xlink:href="#f0_14" transform="matrix(24,0,0,24,290.3,134.6)" />
<use xlink:href="#f0_19" transform="matrix(24,0,0,24,316.8,134.6)" />
<use xlink:href="#f0_1i" transform="matrix(24,0,0,24,331.1,134.6)" />
<use xlink:href="#f0_15" transform="matrix(24,0,0,24,357.5,134.6)" />
<use xlink:href="#f0_13" transform="matrix(24,0,0,24,382,134.6)" />
<use xlink:href="#f0_1k" transform="matrix(24,0,0,24,408.4,134.6)" />
<use xlink:href="#f0_14" transform="matrix(24,0,0,24,442,134.6)" />
<use xlink:href="#f0_19" transform="matrix(24,0,0,24,468.5,134.6)" />
<use xlink:href="#f0_1j" transform="matrix(24,0,0,24,482.8,134.6)" />
<use xlink:href="#f0_13" transform="matrix(24,0,0,24,503.2,134.6)" />
<use xlink:href="#f0_1f" transform="matrix(24,0,0,24,529.6,134.6)" />
<use xlink:href="#f0_1l" transform="matrix(24,0,0,24,558.1,134.6)" />
<use xlink:href="#f0_1i" transform="matrix(24,0,0,24,584.6,134.6)" />
<use xlink:href="#f0_1j" transform="matrix(24,0,0,24,611.1,134.6)" />
<use xlink:href="#f0_15" transform="matrix(24,0,0,24,631.4,134.6)" />
</g>
<path d="M61.2,100.4h3.6V96.8H61.2v3.6Z" class="g1_115"/>
<path d="M61.2,100.4H891.7V96.8H61.2v3.6Z" class="g1_115"/>
<path d="M888.2,100.4h3.5V96.8h-3.5v3.6Z" class="g1_115"/>
<path d="M61.2,146.1h3.6v-3.6H61.2v3.6Z" class="g1_115"/>
<path d="M61.2,146.1H891.7v-3.6H61.2v3.6Z" class="g1_115"/>
<path d="M888.2,146.1h3.5v-3.6h-3.5v3.6Z" class="g1_115"/>
<path d="M61.2,142.5h3.6V100.4H61.2v42.1Z" class="g1_115"/>
<path d="M888.2,142.5h3.5V100.4h-3.5v42.1Z" class="g1_115"/>
<path d="M64.8,235.2H888.2V210.7H64.8v24.5Z" class="g0_115"/>
<g fill="#000000" >
<use xlink:href="#f0_19" transform="matrix(14,0,0,14,77.8,230.6)" />
<use xlink:href="#f0_1j" transform="matrix(14,0,0,14,91.4,230.6)" />
<use xlink:href="#f0_11" transform="matrix(14,0,0,14,103.3,230.6)" />
<use xlink:href="#f0_1p" transform="matrix(14,0,0,14,118.8,230.6)" />
<use xlink:href="#f0_1k" transform="matrix(14,0,0,14,139.6,230.6)" />
<use xlink:href="#f0_1f" transform="matrix(14,0,0,14,153.9,230.6)" />
<use xlink:href="#f0_18" transform="matrix(14,0,0,14,175.9,230.6)" />
<use xlink:href="#f0_19" transform="matrix(14,0,0,14,192.5,230.6)" />
<use xlink:href="#f0_1d" transform="matrix(14,0,0,14,200.8,230.6)" />
<use xlink:href="#f0_1k" transform="matrix(14,0,0,14,295.9,230.6)" />
<use xlink:href="#f0_1f" transform="matrix(14,0,0,14,310.2,230.6)" />
<use xlink:href="#f0_2i" transform="matrix(14,0,0,14,332.2,230.6)" />
</g>
<path d="M332.2,234.9h10.7v-2H332.2v2Z" class="g1_115"/>
<g fill="#000000" >
<use xlink:href="#f0_i" transform="matrix(14,0,0,14,342.9,230.6)" />
<use xlink:href="#f0_19" transform="matrix(14,0,0,14,505.6,230.6)" />
<use xlink:href="#f0_2f" transform="matrix(14,0,0,14,519.2,230.6)" />
<use xlink:href="#f0_1x" transform="matrix(14,0,0,14,527.5,230.6)" />
<use xlink:href="#f0_25" transform="matrix(14,0,0,14,538.2,230.6)" />
<use xlink:href="#f0_20" transform="matrix(14,0,0,14,544.2,230.6)" />
<use xlink:href="#f0_2g" transform="matrix(14,0,0,14,561.4,230.6)" />
<use xlink:href="#f0_2b" transform="matrix(14,0,0,14,568.5,230.6)" />
<use xlink:href="#f0_24" transform="matrix(14,0,0,14,584.5,230.6)" />
<use xlink:href="#f0_25" transform="matrix(14,0,0,14,596.4,230.6)" />
<use xlink:href="#f0_29" transform="matrix(14,0,0,14,602.3,230.6)" />
<use xlink:href="#f0_2g" transform="matrix(14,0,0,14,625.5,230.6)" />
<use xlink:href="#f0_2b" transform="matrix(14,0,0,14,632.6,230.6)" />
<use xlink:href="#f0_23" transform="matrix(14,0,0,14,648.6,230.6)" />
<use xlink:href="#f0_2b" transform="matrix(14,0,0,14,659.3,230.6)" />
<use xlink:href="#f0_i" transform="matrix(14,0,0,14,670,230.6)" />
</g>
<path d="M63.5,210.7h1.3v-1.3H63.5v1.3Z" class="g1_115"/>
<path d="M63.5,210.7H889.4v-1.3H63.5v1.3Z" class="g1_115"/>
<path d="M888.2,210.7h1.2v-1.3h-1.2v1.3Z" class="g1_115"/>
<path d="M63.5,235.2h1.3V210.7H63.5v24.5Z" class="g1_115"/>
<path d="M888.2,235.2h1.2V210.7h-1.2v24.5Z" class="g1_115"/>
<path d="M64.8,259.9H888.2V235.2H64.8v24.7Z" class="g0_115"/>
<g fill="#000000" >
<use xlink:href="#f0_19" transform="matrix(14,0,0,14,77.8,255.2)" />
<use xlink:href="#f0_1k" transform="matrix(14,0,0,14,91.4,255.2)" />
<use xlink:href="#f0_15" transform="matrix(14,0,0,14,105.7,255.2)" />
<use xlink:href="#f0_1c" transform="matrix(14,0,0,14,120,255.2)" />
<use xlink:href="#f0_1c" transform="matrix(14,0,0,14,134.2,255.2)" />
<use xlink:href="#f0_18" transform="matrix(14,0,0,14,154,255.2)" />
<use xlink:href="#f0_19" transform="matrix(14,0,0,14,170.6,255.2)" />
<use xlink:href="#f0_1d" transform="matrix(14,0,0,14,178.9,255.2)" />
<use xlink:href="#f0_19" transform="matrix(14,0,0,14,507.1,255.2)" />
<use xlink:href="#f0_2g" transform="matrix(14,0,0,14,520.7,255.2)" />
<use xlink:href="#f0_2b" transform="matrix(14,0,0,14,527.9,255.2)" />
<use xlink:href="#f0_28" transform="matrix(14,0,0,14,538.6,255.2)" />
<use xlink:href="#f0_20" transform="matrix(14,0,0,14,544.5,255.2)" />
<use xlink:href="#f0_24" transform="matrix(14,0,0,14,561.7,255.2)" />
<use xlink:href="#f0_25" transform="matrix(14,0,0,14,573.6,255.2)" />
<use xlink:href="#f0_29" transform="matrix(14,0,0,14,579.6,255.2)" />
<use xlink:href="#f0_2g" transform="matrix(14,0,0,14,602.6,255.2)" />
<use xlink:href="#f0_2b" transform="matrix(14,0,0,14,609.7,255.2)" />
<use xlink:href="#f0_1z" transform="matrix(14,0,0,14,625.7,255.2)" />
<use xlink:href="#f0_2b" transform="matrix(14,0,0,14,635.2,255.2)" />
<use xlink:href="#f0_29" transform="matrix(14,0,0,14,645.9,255.2)" />
<use xlink:href="#f0_21" transform="matrix(14,0,0,14,663.7,255.2)" />
<use xlink:href="#f0_2g" transform="matrix(14,0,0,14,678.6,255.2)" />
<use xlink:href="#f0_2b" transform="matrix(14,0,0,14,685.7,255.2)" />
<use xlink:href="#f0_2a" transform="matrix(14,0,0,14,696.4,255.2)" />
<use xlink:href="#f0_25" transform="matrix(14,0,0,14,708.3,255.2)" />
<use xlink:href="#f0_23" transform="matrix(14,0,0,14,714.2,255.2)" />
<use xlink:href="#f0_24" transform="matrix(14,0,0,14,724.9,255.2)" />
<use xlink:href="#f0_2g" transform="matrix(14,0,0,14,736.8,255.2)" />
<use xlink:href="#f0_i" transform="matrix(14,0,0,14,744,255.2)" />
</g>
<path d="M79.8,272.2H851v-1.5H79.8v1.5Z" class="g1_115"/>
<path d="M63.5,259.9h1.3V235.2H63.5v24.7Z" class="g1_115"/>
<path d="M888.2,259.9h1.2V235.2h-1.2v24.7Z" class="g1_115"/>
<path d="M64.8,284.4H888.2V259.9H64.8v24.5Z" class="g0_115"/>
<g fill="#000000" >
<use xlink:href="#f0_19" transform="matrix(14,0,0,14,77.7,279.9)" />
<use xlink:href="#f0_11" transform="matrix(14,0,0,14,91.4,279.9)" />
<use xlink:href="#f0_1j" transform="matrix(14,0,0,14,106.8,279.9)" />
<use xlink:href="#f0_1b" transform="matrix(14,0,0,14,118.7,279.9)" />
<use xlink:href="#f0_18" transform="matrix(14,0,0,14,140.7,279.9)" />
<use xlink:href="#f0_19" transform="matrix(14,0,0,14,157.3,279.9)" />
<use xlink:href="#f0_1d" transform="matrix(14,0,0,14,165.6,279.9)" />
<use xlink:href="#f0_19" transform="matrix(14,0,0,14,507,279.9)" />
<use xlink:href="#f0_b" transform="matrix(14,0,0,14,515.3,279.9)" />
<use xlink:href="#f0_28" transform="matrix(14,0,0,14,521.3,279.9)" />
<use xlink:href="#f0_28" transform="matrix(14,0,0,14,527.2,279.9)" />
<use xlink:href="#f0_1x" transform="matrix(14,0,0,14,538.5,279.9)" />
<use xlink:href="#f0_2f" transform="matrix(14,0,0,14,549.2,279.9)" />
<use xlink:href="#f0_27" transform="matrix(14,0,0,14,557.5,279.9)" />
<use xlink:href="#f0_24" transform="matrix(14,0,0,14,574.6,279.9)" />
<use xlink:href="#f0_21" transform="matrix(14,0,0,14,586.5,279.9)" />
<use xlink:href="#f0_2e" transform="matrix(14,0,0,14,596,279.9)" />
<use xlink:href="#f0_2g" transform="matrix(14,0,0,14,610.8,279.9)" />
<use xlink:href="#f0_2b" transform="matrix(14,0,0,14,617.9,279.9)" />
<use xlink:href="#f0_1y" transform="matrix(14,0,0,14,633.9,279.9)" />
<use xlink:href="#f0_2e" transform="matrix(14,0,0,14,645.8,279.9)" />
<use xlink:href="#f0_25" transform="matrix(14,0,0,14,655.3,279.9)" />
<use xlink:href="#f0_2a" transform="matrix(14,0,0,14,661.3,279.9)" />
<use xlink:href="#f0_23" transform="matrix(14,0,0,14,673.2,279.9)" />
<use xlink:href="#f0_25" transform="matrix(14,0,0,14,689.2,279.9)" />
<use xlink:href="#f0_2g" transform="matrix(14,0,0,14,695.1,279.9)" />
<use xlink:href="#f0_i" transform="matrix(14,0,0,14,702.3,279.9)" />
</g>
<path d="M63.5,284.4h1.3V259.9H63.5v24.5Z" class="g1_115"/>
<path d="M888.2,284.4h1.2V259.9h-1.2v24.5Z" class="g1_115"/>
<path d="M64.8,309H888.2V284.4H64.8V309Z" class="g0_115"/>
<path d="M63.5,309h1.3V284.4H63.5V309Z" class="g1_115"/>
<path d="M888.2,309h1.2V284.4h-1.2V309Z" class="g1_115"/>
<path d="M64.8,333.7H888.2V309H64.8v24.7Z" class="g0_115"/>
<g fill="#000000" >
<use xlink:href="#f0_19" transform="matrix(14,0,0,14,77.7,329)" />
<use xlink:href="#f0_1j" transform="matrix(14,0,0,14,91.4,329)" />
<use xlink:href="#f0_11" transform="matrix(14,0,0,14,103.3,329)" />
<use xlink:href="#f0_1p" transform="matrix(14,0,0,14,118.8,329)" />
<use xlink:href="#f0_1k" transform="matrix(14,0,0,14,139.5,329)" />
<use xlink:href="#f0_1f" transform="matrix(14,0,0,14,153.8,329)" />
<use xlink:href="#f0_18" transform="matrix(14,0,0,14,175.8,329)" />
<use xlink:href="#f0_19" transform="matrix(14,0,0,14,192.5,329)" />
<use xlink:href="#f0_1d" transform="matrix(14,0,0,14,200.8,329)" />
<use xlink:href="#f0_1e" transform="matrix(14,0,0,14,290.8,329)" />
<use xlink:href="#f0_1f" transform="matrix(14,0,0,14,306.3,329)" />
<use xlink:href="#f0_1k" transform="matrix(14,0,0,14,322.9,329)" />
<use xlink:href="#f0_1k" transform="matrix(14,0,0,14,342.5,329)" />
<use xlink:href="#f0_1f" transform="matrix(14,0,0,14,356.8,329)" />
<use xlink:href="#f0_2i" transform="matrix(14,0,0,14,378.8,329)" />
</g>
<path d="M378.9,333.3h10.7v-2H378.9v2Z" class="g1_115"/>
<g fill="#000000" >
<use xlink:href="#f0_i" transform="matrix(14,0,0,14,389.6,329)" />
<use xlink:href="#f0_19" transform="matrix(14,0,0,14,507.1,329)" />
<use xlink:href="#f0_2f" transform="matrix(14,0,0,14,520.8,329)" />
<use xlink:href="#f0_1x" transform="matrix(14,0,0,14,529.1,329)" />
<use xlink:href="#f0_25" transform="matrix(14,0,0,14,539.8,329)" />
<use xlink:href="#f0_20" transform="matrix(14,0,0,14,545.8,329)" />
<use xlink:href="#f0_2g" transform="matrix(14,0,0,14,563,329)" />
<use xlink:href="#f0_2b" transform="matrix(14,0,0,14,570.1,329)" />
<use xlink:href="#f0_24" transform="matrix(14,0,0,14,586.1,329)" />
<use xlink:href="#f0_25" transform="matrix(14,0,0,14,598,329)" />
<use xlink:href="#f0_29" transform="matrix(14,0,0,14,604,329)" />
<use xlink:href="#f0_2a" transform="matrix(14,0,0,14,627.1,329)" />
<use xlink:href="#f0_2b" transform="matrix(14,0,0,14,639,329)" />
<use xlink:href="#f0_2g" transform="matrix(14,0,0,14,649.7,329)" />
<use xlink:href="#f0_2g" transform="matrix(14,0,0,14,662.1,329)" />
<use xlink:href="#f0_2b" transform="matrix(14,0,0,14,669.3,329)" />
<use xlink:href="#f0_2c" transform="matrix(14,0,0,14,685.3,329)" />
<use xlink:href="#f0_2h" transform="matrix(14,0,0,14,697.2,329)" />
<use xlink:href="#f0_2f" transform="matrix(14,0,0,14,709.1,329)" />
<use xlink:href="#f0_24" transform="matrix(14,0,0,14,717.4,329)" />
<use xlink:href="#f0_i" transform="matrix(14,0,0,14,729.3,329)" />
</g>
<path d="M63.5,333.7h1.3V309H63.5v24.7Z" class="g1_115"/>
<path d="M888.2,333.7h1.2V309h-1.2v24.7Z" class="g1_115"/>
<path d="M64.8,358.2H888.2V333.7H64.8v24.5Z" class="g0_115"/>
<g fill="#000000" >
<use xlink:href="#f0_19" transform="matrix(14,0,0,14,77.7,353.6)" />
<use xlink:href="#f0_1k" transform="matrix(14,0,0,14,91.4,353.6)" />
<use xlink:href="#f0_15" transform="matrix(14,0,0,14,105.7,353.6)" />
<use xlink:href="#f0_1c" transform="matrix(14,0,0,14,119.9,353.6)" />
<use xlink:href="#f0_1c" transform="matrix(14,0,0,14,134.2,353.6)" />
<use xlink:href="#f0_18" transform="matrix(14,0,0,14,153.9,353.6)" />
<use xlink:href="#f0_19" transform="matrix(14,0,0,14,170.5,353.6)" />
<use xlink:href="#f0_1d" transform="matrix(14,0,0,14,178.9,353.6)" />
<use xlink:href="#f0_14" transform="matrix(14,0,0,14,290.8,353.6)" />
<use xlink:href="#f0_1f" transform="matrix(14,0,0,14,306.3,353.6)" />
<use xlink:href="#f0_1e" transform="matrix(14,0,0,14,322.9,353.6)" />
<use xlink:href="#f0_b" transform="matrix(14,0,0,14,338.4,353.6)" />
<use xlink:href="#f0_1k" transform="matrix(14,0,0,14,344.3,353.6)" />
<use xlink:href="#f0_2i" transform="matrix(14,0,0,14,364,353.6)" />
</g>
<path d="M364,358h10.7v-2.1H364V358Z" class="g1_115"/>
<g fill="#000000" >
<use xlink:href="#f0_i" transform="matrix(14,0,0,14,374.7,353.6)" />
<use xlink:href="#f0_1j" transform="matrix(14,0,0,14,507.1,353.6)" />
<use xlink:href="#f0_24" transform="matrix(14,0,0,14,519,353.6)" />
<use xlink:href="#f0_21" transform="matrix(14,0,0,14,530.9,353.6)" />
<use xlink:href="#f0_2g" transform="matrix(14,0,0,14,545.7,353.6)" />
<use xlink:href="#f0_2b" transform="matrix(14,0,0,14,552.8,353.6)" />
<use xlink:href="#f0_28" transform="matrix(14,0,0,14,563.5,353.6)" />
<use xlink:href="#f0_20" transform="matrix(14,0,0,14,569.5,353.6)" />
<use xlink:href="#f0_29" transform="matrix(14,0,0,14,586.7,353.6)" />
<use xlink:href="#f0_21" transform="matrix(14,0,0,14,604.5,353.6)" />
<use xlink:href="#f0_20" transform="matrix(14,0,0,14,619.3,353.6)" />
<use xlink:href="#f0_2b" transform="matrix(14,0,0,14,631.2,353.6)" />
<use xlink:href="#f0_2a" transform="matrix(14,0,0,14,641.9,353.6)" />
<use xlink:href="#f0_b" transform="matrix(14,0,0,14,653.8,353.6)" />
<use xlink:href="#f0_2g" transform="matrix(14,0,0,14,659.7,353.6)" />
<use xlink:href="#f0_23" transform="matrix(14,0,0,14,672.2,353.6)" />
<use xlink:href="#f0_21" transform="matrix(14,0,0,14,682.9,353.6)" />
<use xlink:href="#f0_2g" transform="matrix(14,0,0,14,692.4,353.6)" />
<use xlink:href="#f0_2h" transform="matrix(14,0,0,14,704.8,353.6)" />
<use xlink:href="#f0_2c" transform="matrix(14,0,0,14,716.7,353.6)" />
<use xlink:href="#f0_i" transform="matrix(14,0,0,14,728.6,353.6)" />
</g>
<path d="M81.2,384.4H852.5v-1.5H81.2v1.5Z" class="g1_115"/>
<path d="M63.5,358.2h1.3V333.7H63.5v24.5Z" class="g1_115"/>
<path d="M888.2,358.2h1.2V333.7h-1.2v24.5Z" class="g1_115"/>
<path d="M64.8,382.8H888.2V358.2H64.8v24.6Z" class="g0_115"/>
<g fill="#000000" >
<use xlink:href="#f0_19" transform="matrix(14,0,0,14,77.7,378.2)" />
<use xlink:href="#f0_11" transform="matrix(14,0,0,14,91.4,378.2)" />
<use xlink:href="#f0_1j" transform="matrix(14,0,0,14,106.8,378.2)" />
<use xlink:href="#f0_1b" transform="matrix(14,0,0,14,118.7,378.2)" />
<use xlink:href="#f0_18" transform="matrix(14,0,0,14,140.7,378.2)" />
<use xlink:href="#f0_19" transform="matrix(14,0,0,14,157.3,378.2)" />
<use xlink:href="#f0_1d" transform="matrix(14,0,0,14,165.7,378.2)" />
<use xlink:href="#f0_1k" transform="matrix(14,0,0,14,507,378.2)" />
<use xlink:href="#f0_24" transform="matrix(14,0,0,14,521.3,378.2)" />
<use xlink:href="#f0_21" transform="matrix(14,0,0,14,533.2,378.2)" />
<use xlink:href="#f0_2l" transform="matrix(14,0,0,14,542.7,378.2)" />
<use xlink:href="#f0_1x" transform="matrix(14,0,0,14,558.7,378.2)" />
<use xlink:href="#f0_2f" transform="matrix(14,0,0,14,569.4,378.2)" />
<use xlink:href="#f0_27" transform="matrix(14,0,0,14,577.8,378.2)" />
<use xlink:href="#f0_21" transform="matrix(14,0,0,14,589.7,378.2)" />
<use xlink:href="#f0_20" transform="matrix(14,0,0,14,599.2,378.2)" />
<use xlink:href="#f0_29" transform="matrix(14,0,0,14,616.4,378.2)" />
<use xlink:href="#f0_21" transform="matrix(14,0,0,14,634.2,378.2)" />
<use xlink:href="#f0_2a" transform="matrix(14,0,0,14,649,378.2)" />
<use xlink:href="#f0_2b" transform="matrix(14,0,0,14,660.9,378.2)" />
<use xlink:href="#f0_2g" transform="matrix(14,0,0,14,671.6,378.2)" />
<use xlink:href="#f0_2g" transform="matrix(14,0,0,14,684.1,378.2)" />
<use xlink:href="#f0_2b" transform="matrix(14,0,0,14,691.2,378.2)" />
<use xlink:href="#f0_22" transform="matrix(14,0,0,14,707.3,378.2)" />
<use xlink:href="#f0_25" transform="matrix(14,0,0,14,714.4,378.2)" />
<use xlink:href="#f0_23" transform="matrix(14,0,0,14,720.4,378.2)" />
<use xlink:href="#f0_24" transform="matrix(14,0,0,14,731.1,378.2)" />
<use xlink:href="#f0_2g" transform="matrix(14,0,0,14,743,378.2)" />
<use xlink:href="#f0_i" transform="matrix(14,0,0,14,750.1,378.2)" />
</g>
<path d="M63.5,382.8h1.3V358.2H63.5v24.6Z" class="g1_115"/>
<path d="M888.2,382.8h1.2V358.2h-1.2v24.6Z" class="g1_115"/>
<path d="M64.8,384.3H888.2v-1.5H64.8v1.5Z" class="g0_115"/>
<path d="M63.5,384.3h1.3v-1.5H63.5v1.5Z" class="g1_115"/>
<path d="M888.2,384.3h1.2v-1.5h-1.2v1.5Z" class="g1_115"/>
<path d="M64.8,408.8H888.2V384.3H64.8v24.5Z" class="g0_115"/>
<path d="M63.5,408.8h1.3V384.3H63.5v24.5Z" class="g1_115"/>
<path d="M888.2,408.8h1.2V384.3h-1.2v24.5Z" class="g1_115"/>
<path d="M64.8,433.5H888.2V408.8H64.8v24.7Z" class="g0_115"/>
<g fill="#000000" >
<use xlink:href="#f0_19" transform="matrix(14,0,0,14,77.7,428.8)" />
<use xlink:href="#f0_1j" transform="matrix(14,0,0,14,91.4,428.8)" />
<use xlink:href="#f0_11" transform="matrix(14,0,0,14,103.3,428.8)" />
<use xlink:href="#f0_1p" transform="matrix(14,0,0,14,118.8,428.8)" />
<use xlink:href="#f0_1k" transform="matrix(14,0,0,14,139.5,428.8)" />
<use xlink:href="#f0_1f" transform="matrix(14,0,0,14,153.8,428.8)" />
<use xlink:href="#f0_18" transform="matrix(14,0,0,14,175.8,428.8)" />
<use xlink:href="#f0_19" transform="matrix(14,0,0,14,192.4,428.8)" />
<use xlink:href="#f0_1d" transform="matrix(14,0,0,14,200.8,428.8)" />
<use xlink:href="#f0_1c" transform="matrix(14,0,0,14,290.8,428.8)" />
<use xlink:href="#f0_15" transform="matrix(14,0,0,14,305.1,428.8)" />
<use xlink:href="#f0_1k" transform="matrix(14,0,0,14,319.3,428.8)" />
<use xlink:href="#f0_b" transform="matrix(14,0,0,14,333.6,428.8)" />
<use xlink:href="#f0_1j" transform="matrix(14,0,0,14,339.6,428.8)" />
<use xlink:href="#f0_2i" transform="matrix(14,0,0,14,356.8,428.8)" />
</g>
<path d="M356.9,433.1h10.7v-2H356.9v2Z" class="g1_115"/>
<g fill="#000000" >
<use xlink:href="#f0_i" transform="matrix(14,0,0,14,367.6,428.8)" />
<use xlink:href="#f0_19" transform="matrix(14,0,0,14,507,428.8)" />
<use xlink:href="#f0_2f" transform="matrix(14,0,0,14,520.7,428.8)" />
<use xlink:href="#f0_1x" transform="matrix(14,0,0,14,529,428.8)" />
<use xlink:href="#f0_25" transform="matrix(14,0,0,14,539.7,428.8)" />
<use xlink:href="#f0_20" transform="matrix(14,0,0,14,545.7,428.8)" />
<use xlink:href="#f0_2g" transform="matrix(14,0,0,14,562.9,428.8)" />
<use xlink:href="#f0_2b" transform="matrix(14,0,0,14,570,428.8)" />
<use xlink:href="#f0_24" transform="matrix(14,0,0,14,586,428.8)" />
<use xlink:href="#f0_25" transform="matrix(14,0,0,14,597.9,428.8)" />
<use xlink:href="#f0_29" transform="matrix(14,0,0,14,603.9,428.8)" />
<use xlink:href="#f0_28" transform="matrix(14,0,0,14,627,428.8)" />
<use xlink:href="#f0_21" transform="matrix(14,0,0,14,632.9,428.8)" />
<use xlink:href="#f0_2g" transform="matrix(14,0,0,14,642.4,428.8)" />
<use xlink:href="#f0_b" transform="matrix(14,0,0,14,649.6,428.8)" />
<use xlink:href="#f0_2f" transform="matrix(14,0,0,14,655.5,428.8)" />
<use xlink:href="#f0_1y" transform="matrix(14,0,0,14,669.2,428.8)" />
<use xlink:href="#f0_2h" transform="matrix(14,0,0,14,681.1,428.8)" />
<use xlink:href="#f0_2l" transform="matrix(14,0,0,14,692.9,428.8)" />
<use xlink:href="#f0_25" transform="matrix(14,0,0,14,709,428.8)" />
<use xlink:href="#f0_2g" transform="matrix(14,0,0,14,714.9,428.8)" />
<use xlink:href="#f0_i" transform="matrix(14,0,0,14,722,428.8)" />
</g>
<path d="M63.5,433.5h1.3V408.8H63.5v24.7Z" class="g1_115"/>
<path d="M888.2,433.5h1.2V408.8h-1.2v24.7Z" class="g1_115"/>
<path d="M64.8,458.1H888.2V433.5H64.8v24.6Z" class="g0_115"/>
<g fill="#000000" >
<use xlink:href="#f0_19" transform="matrix(14,0,0,14,77.7,453.5)" />
<use xlink:href="#f0_1k" transform="matrix(14,0,0,14,91.4,453.5)" />
<use xlink:href="#f0_15" transform="matrix(14,0,0,14,105.7,453.5)" />
<use xlink:href="#f0_1c" transform="matrix(14,0,0,14,119.9,453.5)" />
<use xlink:href="#f0_1c" transform="matrix(14,0,0,14,134.2,453.5)" />
<use xlink:href="#f0_18" transform="matrix(14,0,0,14,153.9,453.5)" />
<use xlink:href="#f0_19" transform="matrix(14,0,0,14,170.6,453.5)" />
<use xlink:href="#f0_1d" transform="matrix(14,0,0,14,178.9,453.5)" />
<use xlink:href="#f0_1j" transform="matrix(14,0,0,14,507.1,453.5)" />
<use xlink:href="#f0_24" transform="matrix(14,0,0,14,519,453.5)" />
<use xlink:href="#f0_21" transform="matrix(14,0,0,14,530.9,453.5)" />
<use xlink:href="#f0_2g" transform="matrix(14,0,0,14,545.7,453.5)" />
<use xlink:href="#f0_2b" transform="matrix(14,0,0,14,552.9,453.5)" />
<use xlink:href="#f0_28" transform="matrix(14,0,0,14,563.6,453.5)" />
<use xlink:href="#f0_20" transform="matrix(14,0,0,14,569.5,453.5)" />
<use xlink:href="#f0_29" transform="matrix(14,0,0,14,586.8,453.5)" />
<use xlink:href="#f0_21" transform="matrix(14,0,0,14,604.6,453.5)" />
<use xlink:href="#f0_28" transform="matrix(14,0,0,14,619.4,453.5)" />
<use xlink:href="#f0_21" transform="matrix(14,0,0,14,625.3,453.5)" />
<use xlink:href="#f0_2g" transform="matrix(14,0,0,14,634.8,453.5)" />
<use xlink:href="#f0_b" transform="matrix(14,0,0,14,642,453.5)" />
<use xlink:href="#f0_2f" transform="matrix(14,0,0,14,647.9,453.5)" />
<use xlink:href="#f0_2f" transform="matrix(14,0,0,14,661.5,453.5)" />
<use xlink:href="#f0_25" transform="matrix(14,0,0,14,669.9,453.5)" />
<use xlink:href="#f0_2a" transform="matrix(14,0,0,14,675.8,453.5)" />
<use xlink:href="#f0_23" transform="matrix(14,0,0,14,687.7,453.5)" />
<use xlink:href="#f0_2g" transform="matrix(14,0,0,14,703.7,453.5)" />
<use xlink:href="#f0_2b" transform="matrix(14,0,0,14,710.8,453.5)" />
<use xlink:href="#f0_23" transform="matrix(14,0,0,14,721.5,453.5)" />
<use xlink:href="#f0_21" transform="matrix(14,0,0,14,732.2,453.5)" />
<use xlink:href="#f0_2g" transform="matrix(14,0,0,14,741.7,453.5)" />
<use xlink:href="#f0_24" transform="matrix(14,0,0,14,748.8,453.5)" />
<use xlink:href="#f0_21" transform="matrix(14,0,0,14,760.7,453.5)" />
<use xlink:href="#f0_2e" transform="matrix(14,0,0,14,770.2,453.5)" />
<use xlink:href="#f0_i" transform="matrix(14,0,0,14,779.7,453.5)" />
</g>
<path d="M81.2,484.2H852.5v-1.5H81.2v1.5Z" class="g1_115"/>
<path d="M63.5,458.1h1.3V433.5H63.5v24.6Z" class="g1_115"/>
<path d="M888.2,458.1h1.2V433.5h-1.2v24.6Z" class="g1_115"/>
<path d="M64.8,482.6H888.2V458.1H64.8v24.5Z" class="g0_115"/>
<path d="M63.5,482.6h1.3V458.1H63.5v24.5Z" class="g1_115"/>
<path d="M888.2,482.6h1.2V458.1h-1.2v24.5Z" class="g1_115"/>
<path d="M64.8,484.1H888.2v-1.5H64.8v1.5Z" class="g0_115"/>
<path d="M63.5,484.1h1.3v-1.5H63.5v1.5Z" class="g1_115"/>
<path d="M888.2,484.1h1.2v-1.5h-1.2v1.5Z" class="g1_115"/>
<path d="M64.8,508.8H888.2V484.1H64.8v24.7Z" class="g0_115"/>
<path d="M63.5,508.8h1.3V484.1H63.5v24.7Z" class="g1_115"/>
<path d="M888.2,508.8h1.2V484.1h-1.2v24.7Z" class="g1_115"/>
<path d="M64.8,533.3H888.2V508.8H64.8v24.5Z" class="g0_115"/>
<g fill="#000000" >
<use xlink:href="#f0_19" transform="matrix(14,0,0,14,77.7,528.7)" />
<use xlink:href="#f0_1j" transform="matrix(14,0,0,14,91.4,528.7)" />
<use xlink:href="#f0_11" transform="matrix(14,0,0,14,103.3,528.7)" />
<use xlink:href="#f0_1p" transform="matrix(14,0,0,14,118.7,528.7)" />
<use xlink:href="#f0_1k" transform="matrix(14,0,0,14,139.5,528.7)" />
<use xlink:href="#f0_1f" transform="matrix(14,0,0,14,153.7,528.7)" />
<use xlink:href="#f0_18" transform="matrix(14,0,0,14,175.7,528.7)" />
<use xlink:href="#f0_19" transform="matrix(14,0,0,14,192.3,528.7)" />
<use xlink:href="#f0_1d" transform="matrix(14,0,0,14,200.7,528.7)" />
<use xlink:href="#f0_1c" transform="matrix(14,0,0,14,280.1,528.7)" />
<use xlink:href="#f0_15" transform="matrix(14,0,0,14,294.4,528.7)" />
<use xlink:href="#f0_1k" transform="matrix(14,0,0,14,308.7,528.7)" />
<use xlink:href="#f0_b" transform="matrix(14,0,0,14,322.9,528.7)" />
<use xlink:href="#f0_1j" transform="matrix(14,0,0,14,328.9,528.7)" />
<use xlink:href="#f0_14" transform="matrix(14,0,0,14,346.1,528.7)" />
<use xlink:href="#f0_1f" transform="matrix(14,0,0,14,361.5,528.7)" />
<use xlink:href="#f0_1e" transform="matrix(14,0,0,14,378.2,528.7)" />
<use xlink:href="#f0_b" transform="matrix(14,0,0,14,393.6,528.7)" />
<use xlink:href="#f0_1k" transform="matrix(14,0,0,14,399.5,528.7)" />
<use xlink:href="#f0_2i" transform="matrix(14,0,0,14,419.1,528.7)" />
</g>
<path d="M419.2,533h10.7v-2H419.2v2Z" class="g1_115"/>
<g fill="#000000" >
<use xlink:href="#f0_i" transform="matrix(14,0,0,14,429.9,528.7)" />
<use xlink:href="#f0_18" transform="matrix(14,0,0,14,507,528.7)" />
<use xlink:href="#f0_21" transform="matrix(14,0,0,14,523.7,528.7)" />
<use xlink:href="#f0_2f" transform="matrix(14,0,0,14,538.5,528.7)" />
<use xlink:href="#f0_1x" transform="matrix(14,0,0,14,546.8,528.7)" />
<use xlink:href="#f0_25" transform="matrix(14,0,0,14,557.5,528.7)" />
<use xlink:href="#f0_20" transform="matrix(14,0,0,14,563.5,528.7)" />
<use xlink:href="#f0_28" transform="matrix(14,0,0,14,580.7,528.7)" />
<use xlink:href="#f0_21" transform="matrix(14,0,0,14,586.7,528.7)" />
<use xlink:href="#f0_2g" transform="matrix(14,0,0,14,596.2,528.7)" />
<use xlink:href="#f0_b" transform="matrix(14,0,0,14,603.3,528.7)" />
<use xlink:href="#f0_2f" transform="matrix(14,0,0,14,609.3,528.7)" />
<use xlink:href="#f0_20" transform="matrix(14,0,0,14,622.9,528.7)" />
<use xlink:href="#f0_2b" transform="matrix(14,0,0,14,634.8,528.7)" />
<use xlink:href="#f0_2a" transform="matrix(14,0,0,14,645.5,528.7)" />
<use xlink:href="#f0_b" transform="matrix(14,0,0,14,657.4,528.7)" />
<use xlink:href="#f0_2g" transform="matrix(14,0,0,14,663.4,528.7)" />
<use xlink:href="#f0_22" transform="matrix(14,0,0,14,675.8,528.7)" />
<use xlink:href="#f0_25" transform="matrix(14,0,0,14,682.9,528.7)" />
<use xlink:href="#f0_2a" transform="matrix(14,0,0,14,688.9,528.7)" />
<use xlink:href="#f0_25" transform="matrix(14,0,0,14,700.8,528.7)" />
<use xlink:href="#f0_2f" transform="matrix(14,0,0,14,706.8,528.7)" />
<use xlink:href="#f0_24" transform="matrix(14,0,0,14,715.1,528.7)" />
<use xlink:href="#f0_25" transform="matrix(14,0,0,14,732.3,528.7)" />
<use xlink:href="#f0_2g" transform="matrix(14,0,0,14,738.3,528.7)" />
<use xlink:href="#f0_i" transform="matrix(14,0,0,14,745.4,528.7)" />
</g>
<path d="M63.5,533.3h1.3V508.8H63.5v24.5Z" class="g1_115"/>
<path d="M888.2,533.3h1.2V508.8h-1.2v24.5Z" class="g1_115"/>
<path d="M64.8,557.9H888.2V533.3H64.8v24.6Z" class="g0_115"/>
<g fill="#000000" >
<use xlink:href="#f0_19" transform="matrix(14,0,0,14,77.7,553.3)" />
<use xlink:href="#f0_1k" transform="matrix(14,0,0,14,91.4,553.3)" />
<use xlink:href="#f0_15" transform="matrix(14,0,0,14,105.7,553.3)" />
<use xlink:href="#f0_1c" transform="matrix(14,0,0,14,119.9,553.3)" />
<use xlink:href="#f0_1c" transform="matrix(14,0,0,14,134.2,553.3)" />
<use xlink:href="#f0_18" transform="matrix(14,0,0,14,153.8,553.3)" />
<use xlink:href="#f0_15" transform="matrix(14,0,0,14,170.5,553.3)" />
<use xlink:href="#f0_1i" transform="matrix(14,0,0,14,184.7,553.3)" />
<use xlink:href="#f0_1c" transform="matrix(14,0,0,14,280.1,553.3)" />
<use xlink:href="#f0_15" transform="matrix(14,0,0,14,294.4,553.3)" />
<use xlink:href="#f0_1k" transform="matrix(14,0,0,14,308.6,553.3)" />
<use xlink:href="#f0_b" transform="matrix(14,0,0,14,322.9,553.3)" />
<use xlink:href="#f0_1j" transform="matrix(14,0,0,14,328.8,553.3)" />
<use xlink:href="#f0_1e" transform="matrix(14,0,0,14,346.1,553.3)" />
<use xlink:href="#f0_1f" transform="matrix(14,0,0,14,361.5,553.3)" />
<use xlink:href="#f0_1k" transform="matrix(14,0,0,14,378.2,553.3)" />
<use xlink:href="#f0_2i" transform="matrix(14,0,0,14,397.8,553.3)" />
</g>
<path d="M397.7,557.6h10.8v-2H397.7v2Z" class="g1_115"/>
<g fill="#000000" >
<use xlink:href="#f0_i" transform="matrix(14,0,0,14,408.5,553.3)" />
<use xlink:href="#f0_19" transform="matrix(14,0,0,14,507,553.3)" />
<use xlink:href="#f0_2g" transform="matrix(14,0,0,14,520.7,553.3)" />
<use xlink:href="#f0_2b" transform="matrix(14,0,0,14,527.8,553.3)" />
<use xlink:href="#f0_28" transform="matrix(14,0,0,14,538.5,553.3)" />
<use xlink:href="#f0_20" transform="matrix(14,0,0,14,544.5,553.3)" />
<use xlink:href="#f0_24" transform="matrix(14,0,0,14,561.7,553.3)" />
<use xlink:href="#f0_21" transform="matrix(14,0,0,14,573.6,553.3)" />
<use xlink:href="#f0_2e" transform="matrix(14,0,0,14,583.1,553.3)" />
<use xlink:href="#f0_28" transform="matrix(14,0,0,14,598,553.3)" />
<use xlink:href="#f0_21" transform="matrix(14,0,0,14,603.9,553.3)" />
<use xlink:href="#f0_2g" transform="matrix(14,0,0,14,613.4,553.3)" />
<use xlink:href="#f0_b" transform="matrix(14,0,0,14,620.6,553.3)" />
<use xlink:href="#f0_2f" transform="matrix(14,0,0,14,626.5,553.3)" />
<use xlink:href="#f0_2a" transform="matrix(14,0,0,14,640.2,553.3)" />
<use xlink:href="#f0_2b" transform="matrix(14,0,0,14,652.1,553.3)" />
<use xlink:href="#f0_2g" transform="matrix(14,0,0,14,662.8,553.3)" />
<use xlink:href="#f0_20" transform="matrix(14,0,0,14,675.3,553.3)" />
<use xlink:href="#f0_2e" transform="matrix(14,0,0,14,687.1,553.3)" />
<use xlink:href="#f0_25" transform="matrix(14,0,0,14,696.7,553.3)" />
<use xlink:href="#f0_2a" transform="matrix(14,0,0,14,702.6,553.3)" />
<use xlink:href="#f0_27" transform="matrix(14,0,0,14,714.5,553.3)" />
<use xlink:href="#f0_2g" transform="matrix(14,0,0,14,731.6,553.3)" />
<use xlink:href="#f0_24" transform="matrix(14,0,0,14,738.7,553.3)" />
<use xlink:href="#f0_1x" transform="matrix(14,0,0,14,750.6,553.3)" />
<use xlink:href="#f0_2g" transform="matrix(14,0,0,14,761.3,553.3)" />
<use xlink:href="#f0_i" transform="matrix(14,0,0,14,768.4,553.3)" />
</g>
<path d="M81.2,583.9H852.5v-1.4H81.2v1.4Z" class="g1_115"/>
<path d="M63.5,557.9h1.3V533.3H63.5v24.6Z" class="g1_115"/>
<path d="M888.2,557.9h1.2V533.3h-1.2v24.6Z" class="g1_115"/>
<path d="M64.8,582.4H888.2V557.9H64.8v24.5Z" class="g0_115"/>
<path d="M63.5,582.4h1.3V557.9H63.5v24.5Z" class="g1_115"/>
<path d="M888.2,582.4h1.2V557.9h-1.2v24.5Z" class="g1_115"/>
<path d="M64.8,583.9H888.2v-1.4H64.8v1.4Z" class="g0_115"/>
<path d="M63.5,583.9h1.3v-1.4H63.5v1.4Z" class="g1_115"/>
<path d="M888.2,583.9h1.2v-1.4h-1.2v1.4Z" class="g1_115"/>
<path d="M64.8,608.6H888.2V583.9H64.8v24.7Z" class="g0_115"/>
<path d="M63.5,608.6h1.3V583.9H63.5v24.7Z" class="g1_115"/>
<path d="M888.2,608.6h1.2V583.9h-1.2v24.7Z" class="g1_115"/>
<path d="M64.8,633.1H888.2V608.6H64.8v24.5Z" class="g0_115"/>
<g fill="#000000" >
<use xlink:href="#f0_19" transform="matrix(14,0,0,14,77.7,628.6)" />
<use xlink:href="#f0_1j" transform="matrix(14,0,0,14,91.4,628.6)" />
<use xlink:href="#f0_11" transform="matrix(14,0,0,14,103.3,628.6)" />
<use xlink:href="#f0_1p" transform="matrix(14,0,0,14,118.7,628.6)" />
<use xlink:href="#f0_1k" transform="matrix(14,0,0,14,139.6,628.6)" />
<use xlink:href="#f0_1f" transform="matrix(14,0,0,14,153.9,628.6)" />
<use xlink:href="#f0_18" transform="matrix(14,0,0,14,175.8,628.6)" />
<use xlink:href="#f0_19" transform="matrix(14,0,0,14,192.5,628.6)" />
<use xlink:href="#f0_1d" transform="matrix(14,0,0,14,200.8,628.6)" />
<use xlink:href="#f0_1x" transform="matrix(14,0,0,14,280.2,628.6)" />
<use xlink:href="#f0_i" transform="matrix(14,0,0,14,290.9,628.6)" />
<use xlink:href="#f0_2g" transform="matrix(14,0,0,14,317.5,628.6)" />
<use xlink:href="#f0_24" transform="matrix(14,0,0,14,324.7,628.6)" />
<use xlink:href="#f0_1x" transform="matrix(14,0,0,14,336.6,628.6)" />
<use xlink:href="#f0_2g" transform="matrix(14,0,0,14,347.3,628.6)" />
</g>
<path d="M317.5,632.9h37v-2.1h-37v2.1Z" class="g1_115"/>
<g fill="#000000" >
<use xlink:href="#f0_2f" transform="matrix(14,0,0,14,375.8,628.6)" />
</g>
<path d="M365.2,632.9h24.3v-2.1H365.2v2.1Z" class="g1_115"/>
<g fill="#000000" >
<use xlink:href="#f0_i" transform="matrix(14,0,0,14,389.5,628.6)" />
<use xlink:href="#f0_19" transform="matrix(14,0,0,14,507,628.6)" />
<use xlink:href="#f0_2f" transform="matrix(14,0,0,14,520.7,628.6)" />
<use xlink:href="#f0_1x" transform="matrix(14,0,0,14,529,628.6)" />
<use xlink:href="#f0_25" transform="matrix(14,0,0,14,539.7,628.6)" />
<use xlink:href="#f0_20" transform="matrix(14,0,0,14,545.7,628.6)" />
<use xlink:href="#f0_2g" transform="matrix(14,0,0,14,562.9,628.6)" />
<use xlink:href="#f0_24" transform="matrix(14,0,0,14,570,628.6)" />
<use xlink:href="#f0_1x" transform="matrix(14,0,0,14,581.9,628.6)" />
<use xlink:href="#f0_2g" transform="matrix(14,0,0,14,592.6,628.6)" />
<use xlink:href="#f0_19" transform="matrix(14,0,0,14,605.1,628.6)" />
<use xlink:href="#f0_20" transform="matrix(14,0,0,14,618.7,628.6)" />
<use xlink:href="#f0_25" transform="matrix(14,0,0,14,630.6,628.6)" />
<use xlink:href="#f0_20" transform="matrix(14,0,0,14,636.6,628.6)" />
<use xlink:href="#f0_2a" transform="matrix(14,0,0,14,648.5,628.6)" />
<use xlink:href="#f0_b" transform="matrix(14,0,0,14,660.3,628.6)" />
<use xlink:href="#f0_2g" transform="matrix(14,0,0,14,666.3,628.6)" />
<use xlink:href="#f0_2j" transform="matrix(14,0,0,14,678.7,628.6)" />
<use xlink:href="#f0_1x" transform="matrix(14,0,0,14,694,628.6)" />
<use xlink:href="#f0_2a" transform="matrix(14,0,0,14,704.8,628.6)" />
<use xlink:href="#f0_2g" transform="matrix(14,0,0,14,716.7,628.6)" />
<use xlink:href="#f0_2g" transform="matrix(14,0,0,14,729.1,628.6)" />
<use xlink:href="#f0_2b" transform="matrix(14,0,0,14,736.2,628.6)" />
<use xlink:href="#f0_23" transform="matrix(14,0,0,14,752.2,628.6)" />
<use xlink:href="#f0_2b" transform="matrix(14,0,0,14,763,628.6)" />
<use xlink:href="#f0_i" transform="matrix(14,0,0,14,773.7,628.6)" />
</g>
<path d="M63.5,633.1h1.3V608.6H63.5v24.5Z" class="g1_115"/>
<path d="M888.2,633.1h1.2V608.6h-1.2v24.5Z" class="g1_115"/>
<path d="M64.8,657.7H888.2V633.1H64.8v24.6Z" class="g0_115"/>
<g fill="#000000" >
<use xlink:href="#f0_19" transform="matrix(14,0,0,14,77.7,653.1)" />
<use xlink:href="#f0_1k" transform="matrix(14,0,0,14,91.4,653.1)" />
<use xlink:href="#f0_15" transform="matrix(14,0,0,14,105.7,653.1)" />
<use xlink:href="#f0_1c" transform="matrix(14,0,0,14,119.9,653.1)" />
<use xlink:href="#f0_1c" transform="matrix(14,0,0,14,134.2,653.1)" />
<use xlink:href="#f0_18" transform="matrix(14,0,0,14,153.8,653.1)" />
<use xlink:href="#f0_15" transform="matrix(14,0,0,14,170.4,653.1)" />
<use xlink:href="#f0_1i" transform="matrix(14,0,0,14,184.7,653.1)" />
<use xlink:href="#f0_1j" transform="matrix(14,0,0,14,507,653.1)" />
<use xlink:href="#f0_24" transform="matrix(14,0,0,14,518.9,653.1)" />
<use xlink:href="#f0_21" transform="matrix(14,0,0,14,530.8,653.1)" />
<use xlink:href="#f0_2g" transform="matrix(14,0,0,14,545.6,653.1)" />
<use xlink:href="#f0_2b" transform="matrix(14,0,0,14,552.7,653.1)" />
<use xlink:href="#f0_28" transform="matrix(14,0,0,14,563.4,653.1)" />
<use xlink:href="#f0_20" transform="matrix(14,0,0,14,569.4,653.1)" />
<use xlink:href="#f0_29" transform="matrix(14,0,0,14,586.6,653.1)" />
<use xlink:href="#f0_21" transform="matrix(14,0,0,14,604.4,653.1)" />
<use xlink:href="#f0_24" transform="matrix(14,0,0,14,619.3,653.1)" />
<use xlink:href="#f0_21" transform="matrix(14,0,0,14,631.2,653.1)" />
<use xlink:href="#f0_1z" transform="matrix(14,0,0,14,646,653.1)" />
<use xlink:href="#f0_1x" transform="matrix(14,0,0,14,655.5,653.1)" />
<use xlink:href="#f0_2a" transform="matrix(14,0,0,14,666.2,653.1)" />
<use xlink:href="#f0_b" transform="matrix(14,0,0,14,678.1,653.1)" />
<use xlink:href="#f0_2g" transform="matrix(14,0,0,14,684.1,653.1)" />
<use xlink:href="#f0_1z" transform="matrix(14,0,0,14,696.5,653.1)" />
<use xlink:href="#f0_2b" transform="matrix(14,0,0,14,706.1,653.1)" />
<use xlink:href="#f0_29" transform="matrix(14,0,0,14,716.8,653.1)" />
<use xlink:href="#f0_21" transform="matrix(14,0,0,14,734.6,653.1)" />
<use xlink:href="#f0_i" transform="matrix(14,0,0,14,744.1,653.1)" />
</g>
<path d="M63.5,657.7h1.3V633.1H63.5v24.6Z" class="g1_115"/>
<path d="M888.2,657.7h1.2V633.1h-1.2v24.6Z" class="g1_115"/>
<path d="M64.8,682.4H888.2V657.7H64.8v24.7Z" class="g0_115"/>
<g fill="#000000" >
<use xlink:href="#f0_1y" transform="matrix(14,0,0,14,280.2,677.7)" />
<use xlink:href="#f0_i" transform="matrix(14,0,0,14,292.1,677.7)" />
<use xlink:href="#f0_1n" transform="matrix(14,0,0,14,318.9,677.7)" />
<use xlink:href="#f0_18" transform="matrix(14,0,0,14,340.2,677.7)" />
<use xlink:href="#f0_11" transform="matrix(14,0,0,14,356.9,677.7)" />
<use xlink:href="#f0_1k" transform="matrix(14,0,0,14,372.3,677.7)" />
<use xlink:href="#f0_19" transform="matrix(14,0,0,14,507.1,677.7)" />
<use xlink:href="#f0_2g" transform="matrix(14,0,0,14,520.7,677.7)" />
<use xlink:href="#f0_2b" transform="matrix(14,0,0,14,527.9,677.7)" />
<use xlink:href="#f0_28" transform="matrix(14,0,0,14,538.6,677.7)" />
<use xlink:href="#f0_20" transform="matrix(14,0,0,14,544.5,677.7)" />
<use xlink:href="#f0_24" transform="matrix(14,0,0,14,561.8,677.7)" />
<use xlink:href="#f0_21" transform="matrix(14,0,0,14,573.7,677.7)" />
<use xlink:href="#f0_2e" transform="matrix(14,0,0,14,583.2,677.7)" />
<use xlink:href="#f0_2j" transform="matrix(14,0,0,14,598.1,677.7)" />
<use xlink:href="#f0_24" transform="matrix(14,0,0,14,613.5,677.7)" />
<use xlink:href="#f0_1x" transform="matrix(14,0,0,14,625.4,677.7)" />
<use xlink:href="#f0_2g" transform="matrix(14,0,0,14,636.1,677.7)" />
<use xlink:href="#f0_2f" transform="matrix(14,0,0,14,648.5,677.7)" />
<use xlink:href="#f0_24" transform="matrix(14,0,0,14,656.8,677.7)" />
<use xlink:href="#f0_21" transform="matrix(14,0,0,14,668.7,677.7)" />
<use xlink:href="#f0_2f" transform="matrix(14,0,0,14,683.6,677.7)" />
<use xlink:href="#f0_24" transform="matrix(14,0,0,14,691.9,677.7)" />
<use xlink:href="#f0_2b" transform="matrix(14,0,0,14,703.8,677.7)" />
<use xlink:href="#f0_2h" transform="matrix(14,0,0,14,714.4,677.7)" />
<use xlink:href="#f0_28" transform="matrix(14,0,0,14,726.3,677.7)" />
<use xlink:href="#f0_20" transform="matrix(14,0,0,14,732.3,677.7)" />
<use xlink:href="#f0_2g" transform="matrix(14,0,0,14,749.5,677.7)" />
<use xlink:href="#f0_1x" transform="matrix(14,0,0,14,756.6,677.7)" />
<use xlink:href="#f0_27" transform="matrix(14,0,0,14,767.3,677.7)" />
<use xlink:href="#f0_21" transform="matrix(14,0,0,14,779.2,677.7)" />
<use xlink:href="#f0_i" transform="matrix(14,0,0,14,788.7,677.7)" />
</g>
<path d="M63.5,682.4h1.3V657.7H63.5v24.7Z" class="g1_115"/>
<path d="M888.2,682.4h1.2V657.7h-1.2v24.7Z" class="g1_115"/>
<path d="M64.8,706.9H888.2V682.4H64.8v24.5Z" class="g0_115"/>
<g fill="#000000" >
<use xlink:href="#f0_1n" transform="matrix(14,0,0,14,322.9,702.4)" />
<use xlink:href="#f0_18" transform="matrix(14,0,0,14,344.3,702.4)" />
<use xlink:href="#f0_15" transform="matrix(14,0,0,14,361,702.4)" />
<use xlink:href="#f0_1i" transform="matrix(14,0,0,14,375.2,702.4)" />
<use xlink:href="#f0_15" transform="matrix(14,0,0,14,390.7,702.4)" />
<use xlink:href="#f0_1j" transform="matrix(14,0,0,14,507,702.4)" />
<use xlink:href="#f0_24" transform="matrix(14,0,0,14,518.9,702.4)" />
<use xlink:href="#f0_21" transform="matrix(14,0,0,14,530.8,702.4)" />
<use xlink:href="#f0_2g" transform="matrix(14,0,0,14,545.6,702.4)" />
<use xlink:href="#f0_2b" transform="matrix(14,0,0,14,552.8,702.4)" />
<use xlink:href="#f0_28" transform="matrix(14,0,0,14,563.5,702.4)" />
<use xlink:href="#f0_20" transform="matrix(14,0,0,14,569.4,702.4)" />
<use xlink:href="#f0_29" transform="matrix(14,0,0,14,586.7,702.4)" />
<use xlink:href="#f0_21" transform="matrix(14,0,0,14,604.5,702.4)" />
<use xlink:href="#f0_2j" transform="matrix(14,0,0,14,619.5,702.4)" />
<use xlink:href="#f0_24" transform="matrix(14,0,0,14,634.8,702.4)" />
<use xlink:href="#f0_21" transform="matrix(14,0,0,14,646.7,702.4)" />
<use xlink:href="#f0_2e" transform="matrix(14,0,0,14,656.2,702.4)" />
<use xlink:href="#f0_21" transform="matrix(14,0,0,14,665.7,702.4)" />
<use xlink:href="#f0_2f" transform="matrix(14,0,0,14,680.5,702.4)" />
<use xlink:href="#f0_24" transform="matrix(14,0,0,14,688.9,702.4)" />
<use xlink:href="#f0_21" transform="matrix(14,0,0,14,700.8,702.4)" />
<use xlink:href="#f0_2j" transform="matrix(14,0,0,14,715.6,702.4)" />
<use xlink:href="#f0_21" transform="matrix(14,0,0,14,730.9,702.4)" />
<use xlink:href="#f0_2a" transform="matrix(14,0,0,14,740.4,702.4)" />
<use xlink:href="#f0_2g" transform="matrix(14,0,0,14,752.3,702.4)" />
<use xlink:href="#f0_i" transform="matrix(14,0,0,14,759.5,702.4)" />
</g>
<path d="M63.5,706.9h1.3V682.4H63.5v24.5Z" class="g1_115"/>
<path d="M888.2,706.9h1.2V682.4h-1.2v24.5Z" class="g1_115"/>
<path d="M64.8,731.5H888.2V706.9H64.8v24.6Z" class="g0_115"/>
<g fill="#000000" >
<use xlink:href="#f0_1n" transform="matrix(14,0,0,14,322.9,726.9)" />
<use xlink:href="#f0_18" transform="matrix(14,0,0,14,344.4,726.9)" />
<use xlink:href="#f0_1p" transform="matrix(14,0,0,14,361.1,726.9)" />
<use xlink:href="#f0_2f" transform="matrix(14,0,0,14,381.8,726.9)" />
</g>
<path d="M381.8,731.2h8.3v-2h-8.3v2Z" class="g1_115"/>
<g fill="#000000" >
<use xlink:href="#f0_i" transform="matrix(14,0,0,14,390.1,726.9)" />
<use xlink:href="#f0_18" transform="matrix(14,0,0,14,507.1,726.9)" />
<use xlink:href="#f0_21" transform="matrix(14,0,0,14,523.7,726.9)" />
<use xlink:href="#f0_2g" transform="matrix(14,0,0,14,538.6,726.9)" />
<use xlink:href="#f0_2b" transform="matrix(14,0,0,14,545.7,726.9)" />
<use xlink:href="#f0_28" transform="matrix(14,0,0,14,556.4,726.9)" />
<use xlink:href="#f0_20" transform="matrix(14,0,0,14,562.4,726.9)" />
<use xlink:href="#f0_29" transform="matrix(14,0,0,14,579.6,726.9)" />
<use xlink:href="#f0_21" transform="matrix(14,0,0,14,597.4,726.9)" />
<use xlink:href="#f0_2j" transform="matrix(14,0,0,14,612.3,726.9)" />
<use xlink:href="#f0_24" transform="matrix(14,0,0,14,627.6,726.9)" />
<use xlink:href="#f0_2l" transform="matrix(14,0,0,14,639.5,726.9)" />
<use xlink:href="#f0_24" transform="matrix(14,0,0,14,655.6,726.9)" />
<use xlink:href="#f0_21" transform="matrix(14,0,0,14,667.5,726.9)" />
<use xlink:href="#f0_1z" transform="matrix(14,0,0,14,682.3,726.9)" />
<use xlink:href="#f0_2e" transform="matrix(14,0,0,14,691.8,726.9)" />
<use xlink:href="#f0_25" transform="matrix(14,0,0,14,701.4,726.9)" />
<use xlink:href="#f0_21" transform="matrix(14,0,0,14,707.3,726.9)" />
<use xlink:href="#f0_20" transform="matrix(14,0,0,14,716.8,726.9)" />
<use xlink:href="#f0_i" transform="matrix(14,0,0,14,728.7,726.9)" />
</g>
<path d="M63.5,731.5h1.3V706.9H63.5v24.6Z" class="g1_115"/>
<path d="M888.2,731.5h1.2V706.9h-1.2v24.6Z" class="g1_115"/>
<path d="M64.8,756.2H888.2V731.5H64.8v24.7Z" class="g0_115"/>
<g fill="#000000" >
<use xlink:href="#f0_1n" transform="matrix(14,0,0,14,322.9,751.5)" />
<use xlink:href="#f0_18" transform="matrix(14,0,0,14,344.3,751.5)" />
<use xlink:href="#f0_1f" transform="matrix(14,0,0,14,360.9,751.5)" />
<use xlink:href="#f0_1k" transform="matrix(14,0,0,14,507,751.5)" />
<use xlink:href="#f0_24" transform="matrix(14,0,0,14,521.3,751.5)" />
<use xlink:href="#f0_21" transform="matrix(14,0,0,14,533.2,751.5)" />
<use xlink:href="#f0_2l" transform="matrix(14,0,0,14,542.7,751.5)" />
<use xlink:href="#f0_2g" transform="matrix(14,0,0,14,558.7,751.5)" />
<use xlink:href="#f0_2b" transform="matrix(14,0,0,14,565.8,751.5)" />
<use xlink:href="#f0_28" transform="matrix(14,0,0,14,576.5,751.5)" />
<use xlink:href="#f0_20" transform="matrix(14,0,0,14,582.4,751.5)" />
<use xlink:href="#f0_29" transform="matrix(14,0,0,14,599.7,751.5)" />
<use xlink:href="#f0_21" transform="matrix(14,0,0,14,617.5,751.5)" />
<use xlink:href="#f0_2j" transform="matrix(14,0,0,14,632.5,751.5)" />
<use xlink:href="#f0_24" transform="matrix(14,0,0,14,647.8,751.5)" />
<use xlink:href="#f0_2b" transform="matrix(14,0,0,14,659.7,751.5)" />
<use xlink:href="#f0_24" transform="matrix(14,0,0,14,675.7,751.5)" />
<use xlink:href="#f0_21" transform="matrix(14,0,0,14,687.6,751.5)" />
<use xlink:href="#f0_29" transform="matrix(14,0,0,14,702.4,751.5)" />
<use xlink:href="#f0_21" transform="matrix(14,0,0,14,720.2,751.5)" />
<use xlink:href="#f0_2g" transform="matrix(14,0,0,14,729.7,751.5)" />
<use xlink:href="#f0_i" transform="matrix(14,0,0,14,736.8,751.5)" />
</g>
<path d="M63.5,756.2h1.3V731.5H63.5v24.7Z" class="g1_115"/>
<path d="M888.2,756.2h1.2V731.5h-1.2v24.7Z" class="g1_115"/>
<path d="M64.8,780.7H888.2V756.2H64.8v24.5Z" class="g0_115"/>
<g fill="#000000" >
<use xlink:href="#f0_1n" transform="matrix(14,0,0,14,322.9,776.1)" />
<use xlink:href="#f0_18" transform="matrix(14,0,0,14,344.4,776.1)" />
<use xlink:href="#f0_15" transform="matrix(14,0,0,14,361.1,776.1)" />
<use xlink:href="#f0_1e" transform="matrix(14,0,0,14,375.3,776.1)" />
<use xlink:href="#f0_19" transform="matrix(14,0,0,14,507.1,776.1)" />
<use xlink:href="#f0_2g" transform="matrix(14,0,0,14,520.7,776.1)" />
<use xlink:href="#f0_2b" transform="matrix(14,0,0,14,527.8,776.1)" />
<use xlink:href="#f0_28" transform="matrix(14,0,0,14,538.5,776.1)" />
<use xlink:href="#f0_20" transform="matrix(14,0,0,14,544.5,776.1)" />
<use xlink:href="#f0_24" transform="matrix(14,0,0,14,561.7,776.1)" />
<use xlink:href="#f0_25" transform="matrix(14,0,0,14,573.6,776.1)" />
<use xlink:href="#f0_29" transform="matrix(14,0,0,14,579.5,776.1)" />
<use xlink:href="#f0_2j" transform="matrix(14,0,0,14,602.7,776.1)" />
<use xlink:href="#f0_24" transform="matrix(14,0,0,14,618.1,776.1)" />
<use xlink:href="#f0_21" transform="matrix(14,0,0,14,630,776.1)" />
<use xlink:href="#f0_2a" transform="matrix(14,0,0,14,639.5,776.1)" />
<use xlink:href="#f0_19" transform="matrix(14,0,0,14,656.7,776.1)" />
<use xlink:href="#f0_2j" transform="matrix(14,0,0,14,670.5,776.1)" />
<use xlink:href="#f0_2b" transform="matrix(14,0,0,14,685.9,776.1)" />
<use xlink:href="#f0_2e" transform="matrix(14,0,0,14,696.6,776.1)" />
<use xlink:href="#f0_27" transform="matrix(14,0,0,14,706.1,776.1)" />
<use xlink:href="#f0_21" transform="matrix(14,0,0,14,718,776.1)" />
<use xlink:href="#f0_20" transform="matrix(14,0,0,14,727.5,776.1)" />
<use xlink:href="#f0_i" transform="matrix(14,0,0,14,739.3,776.1)" />
</g>
<path d="M81.2,806.8H852.5v-1.5H81.2v1.5Z" class="g1_115"/>
<path d="M63.5,780.7h1.3V756.2H63.5v24.5Z" class="g1_115"/>
<path d="M888.2,780.7h1.2V756.2h-1.2v24.5Z" class="g1_115"/>
<path d="M64.8,805.3H888.2V780.7H64.8v24.6Z" class="g0_115"/>
<g fill="#000000" >
<use xlink:href="#f0_18" transform="matrix(14,0,0,14,322.9,800.7)" />
<use xlink:href="#f0_1f" transform="matrix(14,0,0,14,339.6,800.7)" />
<use xlink:href="#f0_1n" transform="matrix(14,0,0,14,356.3,800.7)" />
<use xlink:href="#f0_18" transform="matrix(14,0,0,14,507.1,800.7)" />
<use xlink:href="#f0_21" transform="matrix(14,0,0,14,523.7,800.7)" />
<use xlink:href="#f0_2g" transform="matrix(14,0,0,14,538.5,800.7)" />
<use xlink:href="#f0_2b" transform="matrix(14,0,0,14,545.7,800.7)" />
<use xlink:href="#f0_28" transform="matrix(14,0,0,14,556.3,800.7)" />
<use xlink:href="#f0_20" transform="matrix(14,0,0,14,562.3,800.7)" />
<use xlink:href="#f0_29" transform="matrix(14,0,0,14,579.5,800.7)" />
<use xlink:href="#f0_21" transform="matrix(14,0,0,14,597.4,800.7)" />
<use xlink:href="#f0_24" transform="matrix(14,0,0,14,612.2,800.7)" />
<use xlink:href="#f0_2b" transform="matrix(14,0,0,14,624,800.7)" />
<use xlink:href="#f0_2j" transform="matrix(14,0,0,14,634.9,800.7)" />
<use xlink:href="#f0_24" transform="matrix(14,0,0,14,655.6,800.7)" />
<use xlink:href="#f0_21" transform="matrix(14,0,0,14,667.5,800.7)" />
<use xlink:href="#f0_23" transform="matrix(14,0,0,14,682.3,800.7)" />
<use xlink:href="#f0_2b" transform="matrix(14,0,0,14,693,800.7)" />
<use xlink:href="#f0_2g" transform="matrix(14,0,0,14,703.7,800.7)" />
<use xlink:href="#f0_2g" transform="matrix(14,0,0,14,716.1,800.7)" />
<use xlink:href="#f0_24" transform="matrix(14,0,0,14,723.3,800.7)" />
<use xlink:href="#f0_21" transform="matrix(14,0,0,14,735.1,800.7)" />
<use xlink:href="#f0_2e" transform="matrix(14,0,0,14,744.6,800.7)" />
<use xlink:href="#f0_21" transform="matrix(14,0,0,14,754.1,800.7)" />
<use xlink:href="#f0_i" transform="matrix(14,0,0,14,763.6,800.7)" />
</g>
<path d="M63.5,805.3h1.3V780.7H63.5v24.6Z" class="g1_115"/>
<path d="M888.2,805.3h1.2V780.7h-1.2v24.6Z" class="g1_115"/>
<path d="M64.8,806.8H888.2v-1.5H64.8v1.5Z" class="g0_115"/>
<path d="M63.5,806.8h1.3v-1.5H63.5v1.5Z" class="g1_115"/>
<path d="M888.2,806.8h1.2v-1.5h-1.2v1.5Z" class="g1_115"/>
<path d="M64.8,831.3H888.2V806.8H64.8v24.5Z" class="g0_115"/>
<g fill="#000000" >
<use xlink:href="#f0_19" transform="matrix(14,0,0,14,77.7,826.7)" />
<use xlink:href="#f0_11" transform="matrix(14,0,0,14,91.4,826.7)" />
<use xlink:href="#f0_1j" transform="matrix(14,0,0,14,106.8,826.7)" />
<use xlink:href="#f0_1b" transform="matrix(14,0,0,14,118.8,826.7)" />
<use xlink:href="#f0_18" transform="matrix(14,0,0,14,140.7,826.7)" />
<use xlink:href="#f0_19" transform="matrix(14,0,0,14,157.4,826.7)" />
<use xlink:href="#f0_1d" transform="matrix(14,0,0,14,165.7,826.7)" />
<use xlink:href="#f0_1x" transform="matrix(14,0,0,14,280.2,826.7)" />
<use xlink:href="#f0_i" transform="matrix(14,0,0,14,290.9,826.7)" />
<use xlink:href="#f0_1n" transform="matrix(14,0,0,14,317.7,826.7)" />
<use xlink:href="#f0_18" transform="matrix(14,0,0,14,339,826.7)" />
<use xlink:href="#f0_15" transform="matrix(14,0,0,14,355.7,826.7)" />
<use xlink:href="#f0_1k" transform="matrix(14,0,0,14,370,826.7)" />
<use xlink:href="#f0_18" transform="matrix(14,0,0,14,384.2,826.7)" />
<use xlink:href="#f0_15" transform="matrix(14,0,0,14,400.8,826.7)" />
<use xlink:href="#f0_1i" transform="matrix(14,0,0,14,415,826.7)" />
</g>
<path d="M317.6,831.1h113V829h-113v2.1Z" class="g1_115"/>
<g fill="#000000" >
<use xlink:href="#f0_2f" transform="matrix(14,0,0,14,435.9,826.7)" />
</g>
<path d="M435.9,831.1h8.3V829h-8.3v2.1Z" class="g1_115"/>
<g fill="#000000" >
<use xlink:href="#f0_i" transform="matrix(14,0,0,14,444.2,826.7)" />
<use xlink:href="#f0_19" transform="matrix(14,0,0,14,507.1,826.7)" />
<use xlink:href="#f0_1x" transform="matrix(14,0,0,14,520.8,826.7)" />
<use xlink:href="#f0_2f" transform="matrix(14,0,0,14,531.5,826.7)" />
<use xlink:href="#f0_27" transform="matrix(14,0,0,14,539.8,826.7)" />
<use xlink:href="#f0_21" transform="matrix(14,0,0,14,551.7,826.7)" />
<use xlink:href="#f0_20" transform="matrix(14,0,0,14,561.2,826.7)" />
<use xlink:href="#f0_24" transform="matrix(14,0,0,14,578.5,826.7)" />
<use xlink:href="#f0_21" transform="matrix(14,0,0,14,590.4,826.7)" />
<use xlink:href="#f0_2e" transform="matrix(14,0,0,14,599.9,826.7)" />
<use xlink:href="#f0_2j" transform="matrix(14,0,0,14,614.7,826.7)" />
<use xlink:href="#f0_24" transform="matrix(14,0,0,14,630,826.7)" />
<use xlink:href="#f0_21" transform="matrix(14,0,0,14,642.1,826.7)" />
<use xlink:href="#f0_2g" transform="matrix(14,0,0,14,651.6,826.7)" />
<use xlink:href="#f0_24" transform="matrix(14,0,0,14,658.7,826.7)" />
<use xlink:href="#f0_21" transform="matrix(14,0,0,14,670.6,826.7)" />
<use xlink:href="#f0_2e" transform="matrix(14,0,0,14,680.1,826.7)" />
<use xlink:href="#f0_24" transform="matrix(14,0,0,14,695,826.7)" />
<use xlink:href="#f0_21" transform="matrix(14,0,0,14,706.9,826.7)" />
<use xlink:href="#f0_1z" transform="matrix(14,0,0,14,721.7,826.7)" />
<use xlink:href="#f0_2b" transform="matrix(14,0,0,14,731.3,826.7)" />
<use xlink:href="#f0_2b" transform="matrix(14,0,0,14,742,826.7)" />
<use xlink:href="#f0_27" transform="matrix(14,0,0,14,752.7,826.7)" />
<use xlink:href="#f0_2f" transform="matrix(14,0,0,14,764.4,826.7)" />
<use xlink:href="#f0_i" transform="matrix(14,0,0,14,772.7,826.7)" />
</g>
<path d="M63.5,831.3h1.3V806.8H63.5v24.5Z" class="g1_115"/>
<path d="M888.2,831.3h1.2V806.8h-1.2v24.5Z" class="g1_115"/>
<path d="M64.8,856H888.2V831.3H64.8V856Z" class="g0_115"/>
<g fill="#000000" >
<use xlink:href="#f0_19" transform="matrix(14,0,0,14,355,851.3)" />
<use xlink:href="#f0_16" transform="matrix(14,0,0,14,363.3,851.3)" />
<use xlink:href="#f0_1j" transform="matrix(14,0,0,14,506.9,851.3)" />
<use xlink:href="#f0_24" transform="matrix(14,0,0,14,518.8,851.3)" />
<use xlink:href="#f0_21" transform="matrix(14,0,0,14,530.7,851.3)" />
<use xlink:href="#f0_1x" transform="matrix(14,0,0,14,545.6,851.3)" />
<use xlink:href="#f0_2f" transform="matrix(14,0,0,14,556.3,851.3)" />
<use xlink:href="#f0_27" transform="matrix(14,0,0,14,564.6,851.3)" />
<use xlink:href="#f0_21" transform="matrix(14,0,0,14,576.3,851.3)" />
<use xlink:href="#f0_20" transform="matrix(14,0,0,14,585.8,851.3)" />
<use xlink:href="#f0_29" transform="matrix(14,0,0,14,603,851.3)" />
<use xlink:href="#f0_21" transform="matrix(14,0,0,14,620.8,851.3)" />
<use xlink:href="#f0_25" transform="matrix(14,0,0,14,635.7,851.3)" />
<use xlink:href="#f0_22" transform="matrix(14,0,0,14,641.6,851.3)" />
<use xlink:href="#f0_19" transform="matrix(14,0,0,14,654.1,851.3)" />
<use xlink:href="#f0_2j" transform="matrix(14,0,0,14,667.8,851.3)" />
<use xlink:href="#f0_1x" transform="matrix(14,0,0,14,683.2,851.3)" />
<use xlink:href="#f0_2f" transform="matrix(14,0,0,14,693.9,851.3)" />
<use xlink:href="#f0_2a" transform="matrix(14,0,0,14,707.6,851.3)" />
<use xlink:href="#f0_21" transform="matrix(14,0,0,14,719.5,851.3)" />
<use xlink:href="#f0_2e" transform="matrix(14,0,0,14,729,851.3)" />
<use xlink:href="#f0_2i" transform="matrix(14,0,0,14,738.5,851.3)" />
<use xlink:href="#f0_2b" transform="matrix(14,0,0,14,749.2,851.3)" />
<use xlink:href="#f0_2h" transform="matrix(14,0,0,14,759.9,851.3)" />
<use xlink:href="#f0_2f" transform="matrix(14,0,0,14,771.8,851.3)" />
<use xlink:href="#f0_i" transform="matrix(14,0,0,14,780.2,851.3)" />
</g>
<path d="M63.5,856h1.3V831.3H63.5V856Z" class="g1_115"/>
<path d="M888.2,856h1.2V831.3h-1.2V856Z" class="g1_115"/>
<path d="M64.8,880.6H888.2V856H64.8v24.6Z" class="g0_115"/>
<g fill="#000000" >
<use xlink:href="#f0_2d" transform="matrix(14,0,0,14,333.7,876)" />
<use xlink:href="#f0_i" transform="matrix(14,0,0,14,345.6,876)" />
</g>
<path d="M333.7,880.3H351v-2H333.7v2Z" class="g1_115"/>
<g fill="#000000" >
<use xlink:href="#f0_19" transform="matrix(14,0,0,14,514.7,876)" />
<use xlink:href="#f0_1x" transform="matrix(14,0,0,14,528.3,876)" />
<use xlink:href="#f0_2f" transform="matrix(14,0,0,14,539,876)" />
<use xlink:href="#f0_27" transform="matrix(14,0,0,14,547.4,876)" />
<use xlink:href="#f0_21" transform="matrix(14,0,0,14,559.3,876)" />
<use xlink:href="#f0_20" transform="matrix(14,0,0,14,568.8,876)" />
<use xlink:href="#f0_24" transform="matrix(14,0,0,14,586,876)" />
<use xlink:href="#f0_25" transform="matrix(14,0,0,14,598,876)" />
<use xlink:href="#f0_29" transform="matrix(14,0,0,14,603.9,876)" />
<use xlink:href="#f0_1z" transform="matrix(14,0,0,14,627.1,876)" />
<use xlink:href="#f0_1x" transform="matrix(14,0,0,14,636.6,876)" />
<use xlink:href="#f0_2a" transform="matrix(14,0,0,14,647.3,876)" />
<use xlink:href="#f0_24" transform="matrix(14,0,0,14,664.5,876)" />
<use xlink:href="#f0_21" transform="matrix(14,0,0,14,676.4,876)" />
<use xlink:href="#f0_2f" transform="matrix(14,0,0,14,691.3,876)" />
<use xlink:href="#f0_2j" transform="matrix(14,0,0,14,699.6,876)" />
<use xlink:href="#f0_25" transform="matrix(14,0,0,14,714.9,876)" />
<use xlink:href="#f0_29" transform="matrix(14,0,0,14,720.9,876)" />
<use xlink:href="#f0_i" transform="matrix(14,0,0,14,738.7,876)" />
</g>
<path d="M63.5,880.6h1.3V856H63.5v24.6Z" class="g1_115"/>
<path d="M888.2,880.6h1.2V856h-1.2v24.6Z" class="g1_115"/>
<path d="M64.8,905.1H888.2V880.6H64.8v24.5Z" class="g0_115"/>
<path d="M63.5,905.1h1.3V880.6H63.5v24.5Z" class="g1_115"/>
<path d="M888.2,905.1h1.2V880.6h-1.2v24.5Z" class="g1_115"/>
<path d="M64.8,929.8H888.2V905.1H64.8v24.7Z" class="g0_115"/>
<g fill="#000000" >
<use xlink:href="#f0_1y" transform="matrix(14,0,0,14,280.2,925.1)" />
<use xlink:href="#f0_i" transform="matrix(14,0,0,14,292.1,925.1)" />
<use xlink:href="#f0_1n" transform="matrix(14,0,0,14,302.8,925.1)" />
<use xlink:href="#f0_18" transform="matrix(14,0,0,14,324.2,925.1)" />
<use xlink:href="#f0_11" transform="matrix(14,0,0,14,340.9,925.1)" />
<use xlink:href="#f0_1k" transform="matrix(14,0,0,14,356.3,925.1)" />
<use xlink:href="#f0_1j" transform="matrix(14,0,0,14,507.2,925.1)" />
<use xlink:href="#f0_24" transform="matrix(14,0,0,14,519.1,925.1)" />
<use xlink:href="#f0_21" transform="matrix(14,0,0,14,531,925.1)" />
<use xlink:href="#f0_1x" transform="matrix(14,0,0,14,545.9,925.1)" />
<use xlink:href="#f0_2f" transform="matrix(14,0,0,14,556.6,925.1)" />
<use xlink:href="#f0_27" transform="matrix(14,0,0,14,564.9,925.1)" />
<use xlink:href="#f0_21" transform="matrix(14,0,0,14,576.6,925.1)" />
<use xlink:href="#f0_20" transform="matrix(14,0,0,14,586.1,925.1)" />
<use xlink:href="#f0_29" transform="matrix(14,0,0,14,603.4,925.1)" />
<use xlink:href="#f0_21" transform="matrix(14,0,0,14,621.2,925.1)" />
<use xlink:href="#f0_2j" transform="matrix(14,0,0,14,636,925.1)" />
<use xlink:href="#f0_24" transform="matrix(14,0,0,14,651.3,925.1)" />
<use xlink:href="#f0_1x" transform="matrix(14,0,0,14,663.2,925.1)" />
<use xlink:href="#f0_2g" transform="matrix(14,0,0,14,674,925.1)" />
<use xlink:href="#f0_19" transform="matrix(14,0,0,14,686.4,925.1)" />
<use xlink:href="#f0_1x" transform="matrix(14,0,0,14,700.1,925.1)" />
<use xlink:href="#f0_2g" transform="matrix(14,0,0,14,710.8,925.1)" />
<use xlink:href="#f0_21" transform="matrix(14,0,0,14,718,925.1)" />
<use xlink:href="#f0_i" transform="matrix(14,0,0,14,727.5,925.1)" />
</g>
<path d="M63.5,929.8h1.3V905.1H63.5v24.7Z" class="g1_115"/>
<path d="M888.2,929.8h1.2V905.1h-1.2v24.7Z" class="g1_115"/>
<path d="M64.8,954.3H888.2V929.8H64.8v24.5Z" class="g0_115"/>
<g fill="#000000" >
<use xlink:href="#f0_1n" transform="matrix(14,0,0,14,301.6,949.8)" />
<use xlink:href="#f0_18" transform="matrix(14,0,0,14,323,949.8)" />
<use xlink:href="#f0_15" transform="matrix(14,0,0,14,339.6,949.8)" />
<use xlink:href="#f0_1i" transform="matrix(14,0,0,14,353.9,949.8)" />
<use xlink:href="#f0_15" transform="matrix(14,0,0,14,369.3,949.8)" />
<use xlink:href="#f0_18" transform="matrix(14,0,0,14,507.1,949.8)" />
<use xlink:href="#f0_21" transform="matrix(14,0,0,14,523.7,949.8)" />
<use xlink:href="#f0_1x" transform="matrix(14,0,0,14,538.5,949.8)" />
<use xlink:href="#f0_2f" transform="matrix(14,0,0,14,549.2,949.8)" />
<use xlink:href="#f0_27" transform="matrix(14,0,0,14,557.6,949.8)" />
<use xlink:href="#f0_21" transform="matrix(14,0,0,14,569.5,949.8)" />
<use xlink:href="#f0_20" transform="matrix(14,0,0,14,579,949.8)" />
<use xlink:href="#f0_29" transform="matrix(14,0,0,14,596.2,949.8)" />
<use xlink:href="#f0_21" transform="matrix(14,0,0,14,614,949.8)" />
<use xlink:href="#f0_2j" transform="matrix(14,0,0,14,629,949.8)" />
<use xlink:href="#f0_24" transform="matrix(14,0,0,14,644.3,949.8)" />
<use xlink:href="#f0_21" transform="matrix(14,0,0,14,656.2,949.8)" />
<use xlink:href="#f0_2e" transform="matrix(14,0,0,14,665.7,949.8)" />
<use xlink:href="#f0_21" transform="matrix(14,0,0,14,675.2,949.8)" />
<use xlink:href="#f0_19" transform="matrix(14,0,0,14,690.1,949.8)" />
<use xlink:href="#f0_2f" transform="matrix(14,0,0,14,703.8,949.8)" />
<use xlink:href="#f0_28" transform="matrix(14,0,0,14,712.1,949.8)" />
<use xlink:href="#f0_21" transform="matrix(14,0,0,14,718,949.8)" />
<use xlink:href="#f0_2c" transform="matrix(14,0,0,14,727.6,949.8)" />
<use xlink:href="#f0_2g" transform="matrix(14,0,0,14,739.5,949.8)" />
<use xlink:href="#f0_i" transform="matrix(14,0,0,14,746.6,949.8)" />
</g>
<path d="M63.5,954.3h1.3V929.8H63.5v24.5Z" class="g1_115"/>
<path d="M888.2,954.3h1.2V929.8h-1.2v24.5Z" class="g1_115"/>
<path d="M64.8,978.9H888.2V954.3H64.8v24.6Z" class="g0_115"/>
<g fill="#000000" >
<use xlink:href="#f0_1n" transform="matrix(14,0,0,14,307.7,974.3)" />
<use xlink:href="#f0_18" transform="matrix(14,0,0,14,329.1,974.3)" />
<use xlink:href="#f0_1p" transform="matrix(14,0,0,14,345.8,974.3)" />
<use xlink:href="#f0_2f" transform="matrix(14,0,0,14,382.6,974.3)" />
<use xlink:href="#f0_j" transform="matrix(14,0,0,14,390.9,974.3)" />
<use xlink:href="#f0_2d" transform="matrix(14,0,0,14,396.9,974.3)" />
</g>
<path d="M382.5,978.6h26.2v-2H382.5v2Z" class="g1_115"/>
<g fill="#000000" >
<use xlink:href="#f0_i" transform="matrix(14,0,0,14,408.7,974.3)" />
<use xlink:href="#f0_1k" transform="matrix(14,0,0,14,507.2,974.3)" />
<use xlink:href="#f0_24" transform="matrix(14,0,0,14,521.4,974.3)" />
<use xlink:href="#f0_21" transform="matrix(14,0,0,14,533.3,974.3)" />
<use xlink:href="#f0_2l" transform="matrix(14,0,0,14,542.8,974.3)" />
<use xlink:href="#f0_1x" transform="matrix(14,0,0,14,558.8,974.3)" />
<use xlink:href="#f0_2f" transform="matrix(14,0,0,14,569.5,974.3)" />
<use xlink:href="#f0_27" transform="matrix(14,0,0,14,577.8,974.3)" />
<use xlink:href="#f0_21" transform="matrix(14,0,0,14,589.7,974.3)" />
<use xlink:href="#f0_20" transform="matrix(14,0,0,14,599.2,974.3)" />
<use xlink:href="#f0_29" transform="matrix(14,0,0,14,616.5,974.3)" />
<use xlink:href="#f0_21" transform="matrix(14,0,0,14,634.3,974.3)" />
<use xlink:href="#f0_2j" transform="matrix(14,0,0,14,649.2,974.3)" />
<use xlink:href="#f0_24" transform="matrix(14,0,0,14,664.5,974.3)" />
<use xlink:href="#f0_2l" transform="matrix(14,0,0,14,676.5,974.3)" />
<use xlink:href="#f0_19" transform="matrix(14,0,0,14,692.5,974.3)" />
<use xlink:href="#f0_28" transform="matrix(14,0,0,14,706.1,974.3)" />
<use xlink:href="#f0_21" transform="matrix(14,0,0,14,712.1,974.3)" />
<use xlink:href="#f0_22" transform="matrix(14,0,0,14,721.6,974.3)" />
<use xlink:href="#f0_2g" transform="matrix(14,0,0,14,728.7,974.3)" />
<use xlink:href="#f0_i" transform="matrix(14,0,0,14,735.8,974.3)" />
</g>
<path d="M63.5,978.9h1.3V954.3H63.5v24.6Z" class="g1_115"/>
<path d="M888.2,978.9h1.2V954.3h-1.2v24.6Z" class="g1_115"/>
<path d="M64.8,1003.5H888.2V978.9H64.8v24.6Z" class="g0_115"/>
<g fill="#000000" >
<use xlink:href="#f0_1n" transform="matrix(14,0,0,14,307.7,998.9)" />
<use xlink:href="#f0_18" transform="matrix(14,0,0,14,329.1,998.9)" />
<use xlink:href="#f0_15" transform="matrix(14,0,0,14,345.7,998.9)" />
<use xlink:href="#f0_1e" transform="matrix(14,0,0,14,360,998.9)" />
<use xlink:href="#f0_19" transform="matrix(14,0,0,14,507.1,998.9)" />
<use xlink:href="#f0_1x" transform="matrix(14,0,0,14,520.7,998.9)" />
<use xlink:href="#f0_2f" transform="matrix(14,0,0,14,531.4,998.9)" />
<use xlink:href="#f0_27" transform="matrix(14,0,0,14,539.8,998.9)" />
<use xlink:href="#f0_21" transform="matrix(14,0,0,14,551.7,998.9)" />
<use xlink:href="#f0_20" transform="matrix(14,0,0,14,561.2,998.9)" />
<use xlink:href="#f0_24" transform="matrix(14,0,0,14,578.4,998.9)" />
<use xlink:href="#f0_25" transform="matrix(14,0,0,14,590.3,998.9)" />
<use xlink:href="#f0_29" transform="matrix(14,0,0,14,596.2,998.9)" />
<use xlink:href="#f0_2j" transform="matrix(14,0,0,14,619.4,998.9)" />
<use xlink:href="#f0_24" transform="matrix(14,0,0,14,634.7,998.9)" />
<use xlink:href="#f0_21" transform="matrix(14,0,0,14,646.7,998.9)" />
<use xlink:href="#f0_2a" transform="matrix(14,0,0,14,656.2,998.9)" />
<use xlink:href="#f0_24" transform="matrix(14,0,0,14,673.4,998.9)" />
<use xlink:href="#f0_21" transform="matrix(14,0,0,14,685.3,998.9)" />
<use xlink:href="#f0_b" transform="matrix(14,0,0,14,694.8,998.9)" />
<use xlink:href="#f0_28" transform="matrix(14,0,0,14,700.8,998.9)" />
<use xlink:href="#f0_28" transform="matrix(14,0,0,14,706.7,998.9)" />
<use xlink:href="#f0_1y" transform="matrix(14,0,0,14,718,998.9)" />
<use xlink:href="#f0_21" transform="matrix(14,0,0,14,729.9,998.9)" />
<use xlink:href="#f0_23" transform="matrix(14,0,0,14,739.4,998.9)" />
<use xlink:href="#f0_25" transform="matrix(14,0,0,14,750.1,998.9)" />
<use xlink:href="#f0_2a" transform="matrix(14,0,0,14,756,998.9)" />
<use xlink:href="#f0_i" transform="matrix(14,0,0,14,767.9,998.9)" />
</g>
<path d="M63.5,1003.5h1.3V978.9H63.5v24.6Z" class="g1_115"/>
<path d="M888.2,1003.5h1.2V978.9h-1.2v24.6Z" class="g1_115"/>
<path d="M64.8,1028.1H888.2v-24.6H64.8v24.6Z" class="g0_115"/>
<g fill="#000000" >
<use xlink:href="#f0_1n" transform="matrix(14,0,0,14,307.7,1023.5)" />
<use xlink:href="#f0_18" transform="matrix(14,0,0,14,329.1,1023.5)" />
<use xlink:href="#f0_1f" transform="matrix(14,0,0,14,345.7,1023.5)" />
<use xlink:href="#f0_18" transform="matrix(14,0,0,14,507.1,1023.5)" />
<use xlink:href="#f0_21" transform="matrix(14,0,0,14,523.7,1023.5)" />
<use xlink:href="#f0_1x" transform="matrix(14,0,0,14,538.6,1023.5)" />
<use xlink:href="#f0_2f" transform="matrix(14,0,0,14,549.3,1023.5)" />
<use xlink:href="#f0_27" transform="matrix(14,0,0,14,557.6,1023.5)" />
<use xlink:href="#f0_21" transform="matrix(14,0,0,14,569.5,1023.5)" />
<use xlink:href="#f0_20" transform="matrix(14,0,0,14,579,1023.5)" />
<use xlink:href="#f0_29" transform="matrix(14,0,0,14,596.3,1023.5)" />
<use xlink:href="#f0_21" transform="matrix(14,0,0,14,614.1,1023.5)" />
<use xlink:href="#f0_2j" transform="matrix(14,0,0,14,629,1023.5)" />
<use xlink:href="#f0_24" transform="matrix(14,0,0,14,644.4,1023.5)" />
<use xlink:href="#f0_2b" transform="matrix(14,0,0,14,656.3,1023.5)" />
<use xlink:href="#f0_19" transform="matrix(14,0,0,14,672.3,1023.5)" />
<use xlink:href="#f0_29" transform="matrix(14,0,0,14,686,1023.5)" />
<use xlink:href="#f0_21" transform="matrix(14,0,0,14,703.8,1023.5)" />
<use xlink:href="#f0_2g" transform="matrix(14,0,0,14,713.3,1023.5)" />
<use xlink:href="#f0_i" transform="matrix(14,0,0,14,720.4,1023.5)" />
</g>
<path d="M63.5,1028.1h1.3v-24.6H63.5v24.6Z" class="g1_115"/>
<path d="M888.2,1028.1h1.2v-24.6h-1.2v24.6Z" class="g1_115"/>
<path d="M64.8,1052.7H888.2v-24.6H64.8v24.6Z" class="g0_115"/>
<g fill="#000000" >
<use xlink:href="#f0_18" transform="matrix(14,0,0,14,307.7,1048.1)" />
<use xlink:href="#f0_1f" transform="matrix(14,0,0,14,324.4,1048.1)" />
<use xlink:href="#f0_1n" transform="matrix(14,0,0,14,341,1048.1)" />
<use xlink:href="#f0_1j" transform="matrix(14,0,0,14,507.2,1048.1)" />
<use xlink:href="#f0_24" transform="matrix(14,0,0,14,519.1,1048.1)" />
<use xlink:href="#f0_21" transform="matrix(14,0,0,14,531,1048.1)" />
<use xlink:href="#f0_1x" transform="matrix(14,0,0,14,545.8,1048.1)" />
<use xlink:href="#f0_2f" transform="matrix(14,0,0,14,556.6,1048.1)" />
<use xlink:href="#f0_27" transform="matrix(14,0,0,14,564.9,1048.1)" />
<use xlink:href="#f0_21" transform="matrix(14,0,0,14,576.6,1048.1)" />
<use xlink:href="#f0_20" transform="matrix(14,0,0,14,586.1,1048.1)" />
<use xlink:href="#f0_29" transform="matrix(14,0,0,14,603.3,1048.1)" />
<use xlink:href="#f0_21" transform="matrix(14,0,0,14,621.1,1048.1)" />
<use xlink:href="#f0_24" transform="matrix(14,0,0,14,635.9,1048.1)" />
<use xlink:href="#f0_2b" transform="matrix(14,0,0,14,647.9,1048.1)" />
<use xlink:href="#f0_2j" transform="matrix(14,0,0,14,658.6,1048.1)" />
<use xlink:href="#f0_20" transform="matrix(14,0,0,14,679.2,1048.1)" />
<use xlink:href="#f0_25" transform="matrix(14,0,0,14,691.1,1048.1)" />
<use xlink:href="#f0_20" transform="matrix(14,0,0,14,697.1,1048.1)" />
<use xlink:href="#f0_19" transform="matrix(14,0,0,14,714.3,1048.1)" />
<use xlink:href="#f0_20" transform="matrix(14,0,0,14,728,1048.1)" />
<use xlink:href="#f0_2b" transform="matrix(14,0,0,14,739.9,1048.1)" />
<use xlink:href="#f0_25" transform="matrix(14,0,0,14,755.9,1048.1)" />
<use xlink:href="#f0_2g" transform="matrix(14,0,0,14,761.9,1048.1)" />
<use xlink:href="#f0_i" transform="matrix(14,0,0,14,769,1048.1)" />
</g>
<path d="M63.5,1054h1.3v-1.3H63.5v1.3Z" class="g1_115"/>
<path d="M63.5,1054H889.4v-1.3H63.5v1.3Z" class="g1_115"/>
<path d="M888.2,1054h1.2v-1.3h-1.2v1.3Z" class="g1_115"/>
<path d="M63.5,1052.7h1.3v-24.6H63.5v24.6Z" class="g1_115"/>
<path d="M888.2,1052.7h1.2v-24.6h-1.2v24.6Z" class="g1_115"/>
<defs>
<path d="M26,0V54L154,74V926L27,945v55H544V945L389,926V79H593c0,0,159,0,234,15l61,208h67L927,0Z"
id="f0_1c"
transform="scale(0.001,-0.001)"/>

<path d="M639,416L478,858L313,416ZM647,0V54L762,74L667,333H283L191,74L319,54V0H15V54L90,74l355,935H662L1016,74l76,-20V0Z"
id="f0_11"
transform="scale(0.001,-0.001)"/>

<path d="M559,77c0,0,87,0,129,53c0,0,42,53,42,162c0,0,0,99,-49,147c0,0,-50,49,-163,49H389V82c0,0,108,-5,170,-5ZM499,570c0,0,80,0,118,42c0,0,38,42,38,141c0,0,0,88,-38,126c0,0,-37,39,-124,39H389V570ZM561,-3L221,0H25V54L154,74V926L25,945v55H511c0,0,199,0,294,-53c0,0,95,-53,95,-173c0,0,0,-89,-56,-154c0,0,-56,-65,-150,-85c0,0,139,-14,211,-76c0,0,71,-61,71,-167c0,0,0,-146,-107,-221C869,71,762,-3,561,-3Z"
id="f0_12"
transform="scale(0.001,-0.001)"/>

<path d="M595,60c0,0,141,0,206,102c0,0,65,102,65,340c0,0,0,236,-65,335c0,0,-65,100,-206,100c0,0,-142,0,-207,-100c0,0,-66,-99,-66,-335c0,0,0,-239,66,-340c0,0,65,-102,207,-102Zm0,-74c0,0,-253,0,-387,130C208,116,75,246,75,501c0,0,0,510,520,510c0,0,256,0,387,-129c0,0,132,-130,132,-381c0,0,0,-254,-133,-385C981,116,848,-14,595,-14Z"
id="f0_1f"
transform="scale(0.001,-0.001)"/>

<path d="M868,0L251,804V74L385,54V0H29V54L157,74V926L29,945v55H371L862,361V926L727,945v55h356V945L955,926V0Z"
id="f0_1e"
transform="scale(0.001,-0.001)"/>

<path d="M231,0V54L390,74V921H352c0,0,-171,0,-240,-15L92,721H24v279H996V721H927L907,906c0,0,-62,14,-245,14H626V74L785,54V0Z"
id="f0_1k"
transform="scale(0.001,-0.001)"/>

<path d="M26,0V54L154,74V926L26,945v55H878V746H810L786,908c0,0,-83,10,-241,10H389V551H651l23,111h67V355H674L651,468H389V82H578c0,0,193,0,252,12l43,185h68L927,0Z"
id="f0_15"
transform="scale(0.001,-0.001)"/>

<path d="M95,554v69c0,0,47,14,81,37c0,0,34,24,52,52c0,0,18,29,18,53c0,0,0,18,-14,32c0,0,-14,13,-43,27c0,0,-56,29,-56,93c0,0,0,45,32,72c0,0,33,27,87,27c0,0,63,0,105,-40c0,0,42,-41,42,-105c0,0,0,-118,-77,-197c0,0,-78,-80,-227,-120Z"
id="f0_1k5"
transform="scale(0.001,-0.001)"/>

<path d="M410,-14c0,0,-86,0,-175,14C235,0,145,14,81,38V307h66L181,146c0,0,31,-37,94,-62c0,0,64,-24,132,-24c0,0,214,0,214,177c0,0,0,55,-41,93c0,0,-41,38,-128,68c0,0,-128,42,-185,68c0,0,-56,27,-95,63c0,0,-38,36,-62,87c0,0,-23,51,-23,125c0,0,0,132,90,201c0,0,90,69,263,69c0,0,125,0,278,-32V741H651L618,878c0,0,-76,56,-178,56c0,0,-92,0,-141,-34c0,0,-49,-34,-49,-104c0,0,0,-50,41,-86c0,0,41,-35,128,-63c0,0,171,-56,235,-97c0,0,64,-41,97,-103c0,0,34,-61,34,-143c0,0,0,-318,-375,-318Z"
id="f0_1j"
transform="scale(0.001,-0.001)"/>

<path d="M452,474c0,0,104,0,151,52c0,0,47,53,47,178c0,0,0,119,-45,167c0,0,-44,47,-156,47H390V474ZM36,0V54L154,74V926L26,945v55H467c0,0,213,0,318,-71c0,0,105,-71,105,-224c0,0,0,-313,-366,-313H390V74L557,54V0Z"
id="f0_1g"
transform="scale(0.001,-0.001)"/>

<path d="M122,0V64L295,82V837L123,780v64l282,165H511V82L685,64V0Z"
id="f0_l"
transform="scale(0.001,-0.001)"/>

<path d="M379,60c0,0,55,0,82,103c0,0,26,104,26,342c0,0,0,233,-26,335c0,0,-26,102,-82,102c0,0,-55,0,-79,-99c0,0,-23,-99,-23,-338c0,0,0,-244,24,-345c0,0,24,-100,78,-100Zm-2,-74c0,0,-158,0,-238,132c0,0,-81,133,-81,386c0,0,0,249,81,380c0,0,80,132,244,132c0,0,159,0,241,-130c0,0,82,-130,82,-382c0,0,0,-518,-329,-518Z"
id="f0_k"
transform="scale(0.001,-0.001)"/>

<path d="M614,-14c0,0,-163,0,-285,59c0,0,-122,60,-188,174c0,0,-66,114,-66,269c0,0,0,252,143,387c0,0,144,136,410,136c0,0,65,0,118,-5c0,0,54,-5,100,-14c0,0,46,-9,170,-44V718H949L931,848c0,0,-59,40,-130,62c0,0,-71,23,-146,23c0,0,-174,0,-253,-108c0,0,-80,-108,-80,-335c0,0,0,-211,84,-319c0,0,84,-108,243,-108c0,0,87,0,165,26V377L686,397v55h461V397l-98,-20V52C1049,52,956,22,834,4C834,4,712,-14,614,-14Z"
id="f0_17"
transform="scale(0.001,-0.001)"/>

<path d="M51,0V55L180,74V926L51,946v54H543V946L415,926V74L543,55V0Z"
id="f0_19"
transform="scale(0.001,-0.001)"/>

<path d="M26,0V55L154,74V926L26,946v54H518V946L389,926V555H798V926L670,946v54h493V946L1034,926V74L1163,55V0H670V55L798,74V473H389V74L518,55V0Z"
id="f0_18"
transform="scale(0.001,-0.001)"/>

<path d="M608,-14c0,0,-251,0,-392,133C216,119,75,252,75,488c0,0,0,257,134,390c0,0,135,133,398,133c0,0,174,0,361,-50l4,-240H905L884,866c0,0,-98,67,-229,67c0,0,-173,0,-253,-108c0,0,-80,-108,-80,-334c0,0,0,-209,84,-319c0,0,83,-109,243,-109c0,0,84,0,147,22c0,0,63,22,99,53l24,164h68L982,48C982,48,915,22,808,4C808,4,700,-14,608,-14Z"
id="f0_13"
transform="scale(0.001,-0.001)"/>

<path d="M506,-22L99,926L17,946v54H452V946L348,926L630,270L892,926L791,946v54h295V946L991,926L605,-22Z"
id="f0_1m"
transform="scale(0.001,-0.001)"/>

<path d="M498,506c0,0,115,0,164,47c0,0,48,48,48,166c0,0,0,112,-46,156c0,0,-46,43,-169,43H390V506ZM793,0L514,423H390V74L518,54V0H36V54L154,74V926L26,945v55H504c0,0,221,0,330,-68c0,0,109,-68,109,-212c0,0,0,-215,-201,-276L1009,74L1117,54V0Z"
id="f0_1i"
transform="scale(0.001,-0.001)"/>

<path d="M404,60c0,0,54,0,75,59c0,0,21,59,21,177c0,0,0,106,-29,162c0,0,-29,57,-87,57c0,0,-55,0,-112,-17v-4c0,0,0,-434,132,-434Zm3,-74c0,0,-172,0,-263,130c0,0,-92,130,-92,378c0,0,0,161,48,278c0,0,48,117,135,178c0,0,87,61,199,61c0,0,117,0,225,-32V751H594L562,896c0,0,-52,39,-113,39c0,0,-75,0,-121,-95c0,0,-47,-96,-55,-267c0,0,81,35,161,35c0,0,137,0,211,-77c0,0,74,-77,74,-220c0,0,0,-158,-81,-242c0,0,-81,-83,-231,-83Z"
id="f0_q"
transform="scale(0.001,-0.001)"/>

<path d="M519,79c0,0,97,0,153,42c0,0,57,42,83,131c0,0,26,89,26,248c0,0,0,216,-79,317c0,0,-79,101,-257,101H389V85c0,0,72,-6,130,-6ZM533,-2L198,0H27V54L155,74V926L27,945v55H502c0,0,269,0,398,-122c0,0,129,-122,129,-372c0,0,0,-258,-123,-383C906,123,783,-2,533,-2Z"
id="f0_14"
transform="scale(0.001,-0.001)"/>

<path d="M566,-14c0,0,-200,0,-308,93c0,0,-107,94,-107,270V926L38,945v55H515V945L386,926V339c0,0,0,-120,61,-184c0,0,61,-64,178,-64c0,0,112,0,173,63c0,0,61,62,61,184V926L725,945v55h340V945L952,926V343c0,0,0,-173,-100,-265c0,0,-100,-92,-286,-92Z"
id="f0_1l"
transform="scale(0.001,-0.001)"/>

<path d="M285,0V54L444,74V389L140,926L27,945v55H542V945L407,926L636,507L856,926L734,945v55h340V945L968,926L680,394V74L838,54V0Z"
id="f0_1p"
transform="scale(0.001,-0.001)"/>

<path d="M900,0V54l135,20V845L658,0H617L248,845V74L382,54V0H26V54L154,74V926L26,945v55H419L705,342l292,658h401V945L1270,926V74L1398,54V0Z"
id="f0_1d"
transform="scale(0.001,-0.001)"/>

<path d="M342,-14L49,634L0,652v49H359V652L275,632L455,233L617,634l-82,18v49H764V652L713,637L433,-14Z"
id="f0_2i"
transform="scale(0.001,-0.001)"/>

<path d="M191,-20c0,0,-51,0,-88,34c0,0,-36,36,-36,88c0,0,0,52,36,88c0,0,36,36,88,36c0,0,51,0,88,-36c0,0,36,-36,36,-88c0,0,0,-51,-36,-87c0,0,-36,-35,-88,-35Z"
id="f0_i"
transform="scale(0.001,-0.001)"/>

<path d="M276,-14c0,0,-57,0,-125,13C151,-1,83,10,48,23V214H97l28,-98c0,0,26,-26,69,-44c0,0,42,-17,86,-17c0,0,65,0,97,28c0,0,32,28,32,71c0,0,0,41,-31,65c0,0,-30,25,-133,57c0,0,-108,34,-154,92c0,0,-45,58,-45,143c0,0,0,95,71,152c0,0,71,57,183,57c0,0,77,0,207,-22V518H457l-24,82c0,0,-21,22,-60,35c0,0,-40,14,-75,14c0,0,-53,0,-79,-22c0,0,-26,-22,-26,-59c0,0,0,-40,32,-65c0,0,32,-26,132,-55c0,0,109,-34,155,-89c0,0,45,-55,45,-137c0,0,0,-117,-72,-177c0,0,-72,-59,-209,-59Z"
id="f0_2f"
transform="scale(0.001,-0.001)"/>

<path d="M345,75c0,0,50,0,110,26V351l-63,-2c0,0,-72,-3,-100,-38c0,0,-28,-35,-28,-113c0,0,0,-63,22,-93c0,0,23,-30,59,-30ZM266,-14c0,0,-217,0,-217,208c0,0,0,79,32,126c0,0,32,48,93,71c0,0,60,22,190,25l91,2V521c0,0,0,126,-104,126c0,0,-62,0,-140,-39L183,521H134V691c0,0,112,17,165,21c0,0,53,5,108,5c0,0,264,0,264,-194V67L741,49V0H483L466,54C466,54,408,14,361,0c0,0,-47,-14,-95,-14Z"
id="f0_1x"
transform="scale(0.001,-0.001)"/>

<path d="M34,0V49l76,18V634L38,652v49H325V67L402,49V0ZM217,831c0,0,-48,0,-81,33c0,0,-34,33,-34,82c0,0,0,48,34,81c0,0,34,33,81,33c0,0,48,0,81,-33c0,0,33,-33,33,-81c0,0,0,-47,-33,-81c0,0,-32,-34,-81,-34Z"
id="f0_25"
transform="scale(0.001,-0.001)"/>

<path d="M416,68c0,0,60,0,124,32V628c0,0,-58,15,-118,15c0,0,-67,0,-104,-73c0,0,-38,-73,-38,-216c0,0,0,-139,36,-212c0,0,35,-74,100,-74ZM369,-14c0,0,-155,0,-231,88c0,0,-76,90,-76,274c0,0,0,182,82,277c0,0,81,95,236,95c0,0,82,0,165,-20c0,0,-5,24,-5,115V992l-72,18v50H756V67L833,49V0H562L547,40C547,40,505,13,483,4c0,0,-23,-7,-51,-12c0,0,-28,-6,-63,-6Z"
id="f0_20"
transform="scale(0.001,-0.001)"/>

<path d="M327,-14c0,0,-101,0,-156,45c0,0,-55,45,-55,131V624H25v48l108,29l87,159H332V701H480V624H332V176c0,0,0,-49,20,-73c0,0,20,-25,53,-25c0,0,40,0,97,12V26c0,0,-22,-15,-76,-27c0,0,-55,-13,-99,-13Z"
id="f0_2g"
transform="scale(0.001,-0.001)"/>

<path d="M379,60c0,0,59,0,84,64c0,0,24,65,24,231c0,0,0,164,-24,227c0,0,-24,63,-84,63c0,0,-57,0,-80,-60c0,0,-22,-61,-22,-230c0,0,0,-173,23,-234c0,0,22,-61,79,-61Zm-2,-74c0,0,-161,0,-240,91c0,0,-79,91,-79,277c0,0,0,186,80,276c0,0,81,90,245,90c0,0,167,0,245,-93c0,0,78,-93,78,-273c0,0,0,-188,-81,-278c0,0,-81,-90,-248,-90Z"
id="f0_2b"
transform="scale(0.001,-0.001)"/>

<path d="M41,0V49l69,18V992l-72,18v50H325V756c0,0,0,-49,-4,-116l51,26c0,0,106,54,190,54c0,0,194,0,194,-207V67L827,49V0H478V49l63,18V484c0,0,0,63,-27,98c0,0,-26,35,-75,35c0,0,-57,0,-114,-25V67L389,49V0Z"
id="f0_24"
transform="scale(0.001,-0.001)"/>

<path d="M41,0V49l69,18V634L41,652v49H313l11,-61l50,26c0,0,105,54,188,54c0,0,125,0,167,-91c0,0,153,91,258,91c0,0,189,0,189,-207V67l71,-17V0H898V50l63,17V484c0,0,0,63,-24,98c0,0,-25,35,-74,35c0,0,-55,0,-119,-31c0,0,7,-32,7,-73V67L821,50V0H473V50l63,17V484c0,0,0,63,-25,98c0,0,-24,35,-73,35c0,0,-49,0,-113,-29V67L389,49V0Z"
id="f0_29"
transform="scale(0.001,-0.001)"/>

<path d="M360,-256c0,0,108,0,167,35c0,0,59,35,59,98c0,0,0,70,-95,70H254c0,0,-65,-47,-65,-108c0,0,0,-47,46,-71c0,0,45,-24,125,-24Zm9,561c0,0,55,0,79,43c0,0,25,43,25,129c0,0,0,87,-24,127c0,0,-25,41,-80,41c0,0,-52,0,-75,-41c0,0,-24,-40,-24,-127c0,0,0,-86,23,-129c0,0,23,-43,76,-43Zm-9,-641c0,0,-153,0,-236,43c0,0,-84,44,-84,120c0,0,0,33,28,65c0,0,27,31,105,76c0,0,-44,17,-75,59c0,0,-31,43,-31,90L192,258c0,0,-133,56,-133,219c0,0,0,116,81,180c0,0,82,63,233,63c0,0,32,0,82,-6c0,0,51,-6,74,-13l168,83l26,-32L638,631c0,0,46,-57,46,-154c0,0,0,-119,-80,-182c0,0,-80,-64,-234,-64c0,0,-59,0,-114,9L238,183c0,0,1,-22,28,-41c0,0,26,-19,64,-19H493c0,0,256,0,256,-196c0,0,0,-81,-44,-139c0,0,-45,-59,-131,-92c0,0,-86,-32,-214,-32Z"
id="f0_23"
transform="scale(0.001,-0.001)"/>

<path d="M30,0V49l76,18V992l-72,18v50H322V67L398,49V0Z"
id="f0_28"
transform="scale(0.001,-0.001)"/>

<path d="M425,-14c0,0,-187,0,-280,90c0,0,-93,90,-93,276c0,0,0,115,42,198c0,0,43,82,121,126c0,0,78,44,182,44c0,0,104,0,227,-26V486H571L539,609c0,0,-25,19,-50,26c0,0,-24,7,-65,7c0,0,-44,0,-79,-35c0,0,-36,-35,-56,-98c0,0,-20,-64,-20,-153c0,0,0,-150,47,-214c0,0,47,-64,148,-64c0,0,103,0,176,21V42C640,42,606,15,547,0c0,0,-59,-14,-122,-14Z"
id="f0_1z"
transform="scale(0.001,-0.001)"/>

<path d="M434,423c0,0,0,101,-7,142c0,0,-6,40,-22,60c0,0,-16,19,-45,19c0,0,-44,0,-66,-48c0,0,-22,-49,-22,-173ZM389,-14c0,0,-172,0,-254,89c0,0,-83,90,-83,279c0,0,0,184,79,274c0,0,79,91,238,91c0,0,142,0,206,-76c0,0,64,-76,64,-237V345H271V333c0,0,0,-111,18,-158c0,0,18,-47,58,-72c0,0,40,-25,110,-25c0,0,66,0,166,22V42C623,42,582,18,517,1c0,0,-66,-15,-128,-15Z"
id="f0_21"
transform="scale(0.001,-0.001)"/>

<path d="M41,0V49l69,18V634L41,652v49H313l11,-61l50,26c0,0,105,54,188,54c0,0,194,0,194,-207V67L827,49V0H478V49l63,18V484c0,0,0,63,-27,98c0,0,-26,35,-75,35c0,0,-57,0,-114,-25V67L389,49V0Z"
id="f0_2a"
transform="scale(0.001,-0.001)"/>

<path d="M850,0L476,482L389,407V74L533,54V0H26V54L154,74V926L26,945v55H518V945L389,926V519L845,926l-92,19v55h343V945L974,926L643,634L1083,74l93,-20V0Z"
id="f0_1b"
transform="scale(0.001,-0.001)"/>

<path d="M173,641l-57,359H309L251,641Z"
id="f0_b"
transform="scale(0.001,-0.001)"/>

<path d="M43,0V49l67,18V992l-72,18v50H325V336L599,635l-75,17v49H791V652L711,636L544,460L785,67L847,50V0H510V50l41,17L411,313L325,253V67L395,49V0Z"
id="f0_27"
transform="scale(0.001,-0.001)"/>

<path d="M41,0V49l91,18V634L41,652v49H336l8,-145c0,0,80,89,144,128c0,0,64,40,117,40h40V468H604l-45,94c0,0,-47,0,-106,-21c0,0,-60,-20,-105,-48V67L460,49V0Z"
id="f0_2e"
transform="scale(0.001,-0.001)"/>

<path d="M424,64c0,0,74,0,109,71c0,0,36,72,36,236c0,0,0,137,-34,201c0,0,-34,65,-111,65c0,0,-29,0,-62,-7c0,0,-34,-6,-55,-19V76c0,0,47,-12,117,-12Zm21,-78c0,0,-121,0,-354,50V994l-72,18v48H307V802c0,0,0,-69,-8,-141c0,0,30,25,86,42c0,0,57,17,110,17c0,0,153,0,223,-84c0,0,70,-83,70,-266c0,0,0,-180,-90,-283C698,87,608,-14,445,-14Z"
id="f0_1y"
transform="scale(0.001,-0.001)"/>

<path d="M438,65c0,0,131,0,131,293c0,0,0,279,-130,279c0,0,-69,0,-127,-29V80c0,0,60,-15,126,-15ZM20,-325v50l76,18V634L19,652v49H304l1,-36c0,0,80,55,194,55c0,0,146,0,218,-86c0,0,71,-86,71,-271c0,0,0,-183,-83,-280c0,0,-83,-97,-238,-97c0,0,-79,0,-160,19c0,0,5,-48,5,-109V-257l103,-18v-50Z"
id="f0_2c"
transform="scale(0.001,-0.001)"/>

<path d="M287,-18c0,0,-194,0,-194,206V634L23,652v49H309V217c0,0,0,-63,26,-98c0,0,27,-35,76,-35c0,0,57,0,113,25V634l-64,18v49H740V67L809,49V0H536L526,61L475,35c0,0,-104,-53,-188,-53Z"
id="f0_2h"
transform="scale(0.001,-0.001)"/>

<path d="M159,-329c0,0,-61,0,-123,14v180H81l32,-94c0,0,21,-17,55,-17c0,0,28,0,50,13c0,0,21,14,40,39c0,0,20,25,37,62c0,0,17,37,50,110L64,634L15,652v49H374V652L290,632L455,244L602,634l-82,18v49H749V652L698,637L421,-44c0,0,-47,-121,-83,-176c0,0,-36,-55,-80,-82c0,0,-43,-27,-99,-27Z"
id="f0_2l"
transform="scale(0.001,-0.001)"/>

<path d="M41,0V49l76,18V624H11v51l106,29v75c0,0,0,144,73,220c0,0,73,77,210,77c0,0,74,0,124,-15V894H476l-22,81c0,0,-18,17,-47,17c0,0,-74,0,-74,-189V701H475V624H333V67L447,49V0Z"
id="f0_22"
transform="scale(0.001,-0.001)"/>

<path d="M305,-14L57,634L4,652v49H351V652L268,632L419,232L581,631h71L814,232L950,634l-82,18v49h227V652l-54,-15L806,-14H715L555,378L395,-14Z"
id="f0_2j"
transform="scale(0.001,-0.001)"/>

<path d="M440,-22L109,926L22,945v55H471V945L354,926L567,330L801,915h93L1129,332l177,594l-126,19v55h324V945l-87,-19L1120,-22h-92L779,594L532,-22Z"
id="f0_1n"
transform="scale(0.001,-0.001)"/>

<path d="M36,0V54L154,74V926L26,945v55H860V731H790L766,908c0,0,-36,5,-121,8c0,0,-84,2,-133,2H389V508H633l23,127h67V298H656L633,426H389V74L556,54V0Z"
id="f0_16"
transform="scale(0.001,-0.001)"/>

<path d="M430,68c0,0,29,0,60,8c0,0,32,8,54,21V630c0,0,-51,12,-114,12c0,0,-76,0,-112,-75c0,0,-37,-75,-37,-233c0,0,0,-134,35,-200c0,0,35,-66,114,-66Zm11,-393v50l103,18V-97c0,0,0,70,7,141c0,0,-73,-58,-182,-58c0,0,-156,0,-231,91c0,0,-75,92,-75,277c0,0,0,179,84,272c0,0,84,94,248,94c0,0,53,0,208,-18l89,33h67V-257l77,-18v-50Z"
id="f0_2d"
transform="scale(0.001,-0.001)"/>

<path d="M-14,-14L336,1006H440L90,-14Z"
id="f0_j"
transform="scale(0.001,-0.001)"/>


</defs>
</svg>