<?xml version="1.0" encoding="UTF-8" standalone="no"?>
<!DOCTYPE svg PUBLIC "-//W3C//DTD SVG 1.1//EN"
"http://www.w3.org/Graphics/SVG/1.1/DTD/svg11.dtd">
<svg viewBox="0 0 935 1210" version="1.1" xmlns="http://www.w3.org/2000/svg" xmlns:xlink="http://www.w3.org/1999/xlink">
<defs>
</defs>
<image preserveAspectRatio="none" x="300" y="103" width="338" height="493" xlink:href="img/1.png"/>
<g fill="#000000" >
<use xlink:href="#f0_1c" transform="matrix(24,0,0,24,283.7,776.2)" />
<use xlink:href="#f0_11" transform="matrix(24,0,0,24,308.1,776.2)" />
<use xlink:href="#f0_12" transform="matrix(24,0,0,24,343.8,776.2)" />
<use xlink:href="#f0_1f" transform="matrix(24,0,0,24,368.2,776.2)" />
<use xlink:href="#f0_1e" transform="matrix(24,0,0,24,396.7,776.2)" />
<use xlink:href="#f0_1k" transform="matrix(24,0,0,24,423.2,776.2)" />
<use xlink:href="#f0_15" transform="matrix(24,0,0,24,447.7,776.2)" />
<use xlink:href="#f0_b" transform="matrix(24,0,0,24,472.1,776.2)" />
<use xlink:href="#f0_1j" transform="matrix(24,0,0,24,482.3,776.2)" />
<use xlink:href="#f0_1k" transform="matrix(24,0,0,24,511.8,776.2)" />
<use xlink:href="#f0_1f" transform="matrix(24,0,0,24,536.3,776.2)" />
<use xlink:href="#f0_1g" transform="matrix(24,0,0,24,564.8,776.2)" />
<use xlink:href="#f0_l" transform="matrix(24,0,0,24,596.4,776.2)" />
<use xlink:href="#f0_k" transform="matrix(24,0,0,24,614.7,776.2)" />
<use xlink:href="#f0_k" transform="matrix(24,0,0,24,633,776.2)" />
<use xlink:href="#f0_15" transform="matrix(24,0,0,24,127.3,834.3)" />
<use xlink:href="#f0_1e" transform="matrix(24,0,0,24,151.8,834.3)" />
<use xlink:href="#f0_17" transform="matrix(24,0,0,24,178.2,834.3)" />
<use xlink:href="#f0_1c" transform="matrix(24,0,0,24,206.8,834.3)" />
<use xlink:href="#f0_19" transform="matrix(24,0,0,24,231.2,834.3)" />
<use xlink:href="#f0_1j" transform="matrix(24,0,0,24,245.5,834.3)" />
<use xlink:href="#f0_18" transform="matrix(24,0,0,24,265.8,834.3)" />
<use xlink:href="#f0_13" transform="matrix(24,0,0,24,303.5,834.3)" />
<use xlink:href="#f0_1f" transform="matrix(24,0,0,24,330,834.3)" />
<use xlink:href="#f0_1e" transform="matrix(24,0,0,24,358.5,834.3)" />
<use xlink:href="#f0_1m" transform="matrix(24,0,0,24,385,834.3)" />
<use xlink:href="#f0_15" transform="matrix(24,0,0,24,411.4,834.3)" />
<use xlink:href="#f0_1i" transform="matrix(24,0,0,24,435.9,834.3)" />
<use xlink:href="#f0_1j" transform="matrix(24,0,0,24,462.4,834.3)" />
<use xlink:href="#f0_11" transform="matrix(24,0,0,24,482.7,834.3)" />
<use xlink:href="#f0_1k" transform="matrix(24,0,0,24,509.2,834.3)" />
<use xlink:href="#f0_19" transform="matrix(24,0,0,24,533.7,834.3)" />
<use xlink:href="#f0_1f" transform="matrix(24,0,0,24,547.9,834.3)" />
<use xlink:href="#f0_1e" transform="matrix(24,0,0,24,576.4,834.3)" />
<use xlink:href="#f0_1g" transform="matrix(24,0,0,24,612.1,834.3)" />
<use xlink:href="#f0_11" transform="matrix(24,0,0,24,634.5,834.3)" />
<use xlink:href="#f0_1k" transform="matrix(24,0,0,24,660.9,834.3)" />
<use xlink:href="#f0_1k" transform="matrix(24,0,0,24,685.4,834.3)" />
<use xlink:href="#f0_15" transform="matrix(24,0,0,24,709.8,834.3)" />
<use xlink:href="#f0_1i" transform="matrix(24,0,0,24,734.3,834.3)" />
<use xlink:href="#f0_1e" transform="matrix(24,0,0,24,760.7,834.3)" />
<use xlink:href="#f0_1j" transform="matrix(24,0,0,24,787.2,834.3)" />
<use xlink:href="#f0_1y" transform="matrix(22,0,0,22,449.8,933.4)" />
<use xlink:href="#f0_2l" transform="matrix(22,0,0,22,468.5,933.4)" />
<use xlink:href="#f0_14" transform="matrix(22,0,0,22,367.6,987.8)" />
<use xlink:href="#f0_2b" transform="matrix(22,0,0,22,391.9,987.8)" />
<use xlink:href="#f0_2a" transform="matrix(22,0,0,22,408.7,987.8)" />
<use xlink:href="#f0_1c" transform="matrix(22,0,0,22,435.8,987.8)" />
<use xlink:href="#f0_1x" transform="matrix(22,0,0,22,458.2,987.8)" />
<use xlink:href="#f0_12" transform="matrix(22,0,0,22,483.4,987.8)" />
<use xlink:href="#f0_2b" transform="matrix(22,0,0,22,505.8,987.8)" />
<use xlink:href="#f0_2a" transform="matrix(22,0,0,22,522.7,987.8)" />
<use xlink:href="#f0_2g" transform="matrix(22,0,0,22,541.3,987.8)" />
<use xlink:href="#f0_21" transform="matrix(22,0,0,22,552.5,987.8)" />
</g>
<defs>
<path d="M26,0V54L154,74V926L27,945v55H544V945L389,926V79H593c0,0,159,0,234,15l61,208h67L927,0Z"
id="f0_1c"
transform="scale(0.001,-0.001)"/>

<path d="M639,416L478,858L313,416ZM647,0V54L762,74L667,333H283L191,74L319,54V0H15V54L90,74l355,935H662L1016,74l76,-20V0Z"
id="f0_11"
transform="scale(0.001,-0.001)"/>

<path d="M559,77c0,0,87,0,129,53c0,0,42,53,42,162c0,0,0,99,-49,147c0,0,-50,49,-163,49H389V82c0,0,108,-5,170,-5ZM499,570c0,0,80,0,118,42c0,0,38,42,38,141c0,0,0,88,-38,126c0,0,-37,39,-124,39H389V570ZM561,-3L221,0H25V54L154,74V926L25,945v55H511c0,0,199,0,294,-53c0,0,95,-53,95,-173c0,0,0,-89,-56,-154c0,0,-56,-65,-150,-85c0,0,139,-14,211,-76c0,0,71,-61,71,-167c0,0,0,-146,-107,-221C869,71,762,-3,561,-3Z"
id="f0_12"
transform="scale(0.001,-0.001)"/>

<path d="M595,60c0,0,141,0,206,102c0,0,65,102,65,340c0,0,0,236,-65,335c0,0,-65,100,-206,100c0,0,-142,0,-207,-100c0,0,-66,-99,-66,-335c0,0,0,-239,66,-340c0,0,65,-102,207,-102Zm0,-74c0,0,-253,0,-387,130C208,116,75,246,75,501c0,0,0,510,520,510c0,0,256,0,387,-129c0,0,132,-130,132,-381c0,0,0,-254,-133,-385C981,116,848,-14,595,-14Z"
id="f0_1f"
transform="scale(0.001,-0.001)"/>

<path d="M868,0L251,804V74L385,54V0H29V54L157,74V926L29,945v55H371L862,361V926L727,945v55h356V945L955,926V0Z"
id="f0_1e"
transform="scale(0.001,-0.001)"/>

<path d="M231,0V54L390,74V921H352c0,0,-171,0,-240,-15L92,721H24v279H996V721H927L907,906c0,0,-62,14,-245,14H626V74L785,54V0Z"
id="f0_1k"
transform="scale(0.001,-0.001)"/>

<path d="M26,0V54L154,74V926L26,945v55H878V746H810L786,908c0,0,-83,10,-241,10H389V551H651l23,111h67V355H674L651,468H389V82H578c0,0,193,0,252,12l43,185h68L927,0Z"
id="f0_15"
transform="scale(0.001,-0.001)"/>

<path d="M173,641l-57,359H309L251,641Z"
id="f0_b"
transform="scale(0.001,-0.001)"/>

<path d="M410,-14c0,0,-86,0,-175,14C235,0,145,14,81,38V307h66L181,146c0,0,31,-37,94,-62c0,0,64,-24,132,-24c0,0,214,0,214,177c0,0,0,55,-41,93c0,0,-41,38,-128,68c0,0,-128,42,-185,68c0,0,-56,27,-95,63c0,0,-38,36,-62,87c0,0,-23,51,-23,125c0,0,0,132,90,201c0,0,90,69,263,69c0,0,125,0,278,-32V741H651L618,878c0,0,-76,56,-178,56c0,0,-92,0,-141,-34c0,0,-49,-34,-49,-104c0,0,0,-50,41,-86c0,0,41,-35,128,-63c0,0,171,-56,235,-97c0,0,64,-41,97,-103c0,0,34,-61,34,-143c0,0,0,-318,-375,-318Z"
id="f0_1j"
transform="scale(0.001,-0.001)"/>

<path d="M452,474c0,0,104,0,151,52c0,0,47,53,47,178c0,0,0,119,-45,167c0,0,-44,47,-156,47H390V474ZM36,0V54L154,74V926L26,945v55H467c0,0,213,0,318,-71c0,0,105,-71,105,-224c0,0,0,-313,-366,-313H390V74L557,54V0Z"
id="f0_1g"
transform="scale(0.001,-0.001)"/>

<path d="M122,0V64L295,82V837L123,780v64l282,165H511V82L685,64V0Z"
id="f0_l"
transform="scale(0.001,-0.001)"/>

<path d="M379,60c0,0,55,0,82,103c0,0,26,104,26,342c0,0,0,233,-26,335c0,0,-26,102,-82,102c0,0,-55,0,-79,-99c0,0,-23,-99,-23,-338c0,0,0,-244,24,-345c0,0,24,-100,78,-100Zm-2,-74c0,0,-158,0,-238,132c0,0,-81,133,-81,386c0,0,0,249,81,380c0,0,80,132,244,132c0,0,159,0,241,-130c0,0,82,-130,82,-382c0,0,0,-518,-329,-518Z"
id="f0_k"
transform="scale(0.001,-0.001)"/>

<path d="M614,-14c0,0,-163,0,-285,59c0,0,-122,60,-188,174c0,0,-66,114,-66,269c0,0,0,252,143,387c0,0,144,136,410,136c0,0,65,0,118,-5c0,0,54,-5,100,-14c0,0,46,-9,170,-44V718H949L931,848c0,0,-59,40,-130,62c0,0,-71,23,-146,23c0,0,-174,0,-253,-108c0,0,-80,-108,-80,-335c0,0,0,-211,84,-319c0,0,84,-108,243,-108c0,0,87,0,165,26V377L686,397v55h461V397l-98,-20V52C1049,52,956,22,834,4C834,4,712,-14,614,-14Z"
id="f0_17"
transform="scale(0.001,-0.001)"/>

<path d="M51,0V55L180,74V926L51,946v54H543V946L415,926V74L543,55V0Z"
id="f0_19"
transform="scale(0.001,-0.001)"/>

<path d="M26,0V55L154,74V926L26,946v54H518V946L389,926V555H798V926L670,946v54h493V946L1034,926V74L1163,55V0H670V55L798,74V473H389V74L518,55V0Z"
id="f0_18"
transform="scale(0.001,-0.001)"/>

<path d="M608,-14c0,0,-251,0,-392,133C216,119,75,252,75,488c0,0,0,257,134,390c0,0,135,133,398,133c0,0,174,0,361,-50l4,-240H905L884,866c0,0,-98,67,-229,67c0,0,-173,0,-253,-108c0,0,-80,-108,-80,-334c0,0,0,-209,84,-319c0,0,83,-109,243,-109c0,0,84,0,147,22c0,0,63,22,99,53l24,164h68L982,48C982,48,915,22,808,4C808,4,700,-14,608,-14Z"
id="f0_13"
transform="scale(0.001,-0.001)"/>

<path d="M506,-22L99,926L17,946v54H452V946L348,926L630,270L892,926L791,946v54h295V946L991,926L605,-22Z"
id="f0_1m"
transform="scale(0.001,-0.001)"/>

<path d="M498,506c0,0,115,0,164,47c0,0,48,48,48,166c0,0,0,112,-46,156c0,0,-46,43,-169,43H390V506ZM793,0L514,423H390V74L518,54V0H36V54L154,74V926L26,945v55H504c0,0,221,0,330,-68c0,0,109,-68,109,-212c0,0,0,-215,-201,-276L1009,74L1117,54V0Z"
id="f0_1i"
transform="scale(0.001,-0.001)"/>

<path d="M424,64c0,0,74,0,109,71c0,0,36,72,36,236c0,0,0,137,-34,201c0,0,-34,65,-111,65c0,0,-29,0,-62,-7c0,0,-34,-6,-55,-19V76c0,0,47,-12,117,-12Zm21,-78c0,0,-121,0,-354,50V994l-72,18v48H307V802c0,0,0,-69,-8,-141c0,0,30,25,86,42c0,0,57,17,110,17c0,0,153,0,223,-84c0,0,70,-83,70,-266c0,0,0,-180,-90,-283C698,87,608,-14,445,-14Z"
id="f0_1y"
transform="scale(0.001,-0.001)"/>

<path d="M159,-329c0,0,-61,0,-123,14v180H81l32,-94c0,0,21,-17,55,-17c0,0,28,0,50,13c0,0,21,14,40,39c0,0,20,25,37,62c0,0,17,37,50,110L64,634L15,652v49H374V652L290,632L455,244L602,634l-82,18v49H749V652L698,637L421,-44c0,0,-47,-121,-83,-176c0,0,-36,-55,-80,-82c0,0,-43,-27,-99,-27Z"
id="f0_2l"
transform="scale(0.001,-0.001)"/>

<path d="M519,79c0,0,97,0,153,42c0,0,57,42,83,131c0,0,26,89,26,248c0,0,0,216,-79,317c0,0,-79,101,-257,101H389V85c0,0,72,-6,130,-6ZM533,-2L198,0H27V54L155,74V926L27,945v55H502c0,0,269,0,398,-122c0,0,129,-122,129,-372c0,0,0,-258,-123,-383C906,123,783,-2,533,-2Z"
id="f0_14"
transform="scale(0.001,-0.001)"/>

<path d="M379,60c0,0,59,0,84,64c0,0,24,65,24,231c0,0,0,164,-24,227c0,0,-24,63,-84,63c0,0,-57,0,-80,-60c0,0,-22,-61,-22,-230c0,0,0,-173,23,-234c0,0,22,-61,79,-61Zm-2,-74c0,0,-161,0,-240,91c0,0,-79,91,-79,277c0,0,0,186,80,276c0,0,81,90,245,90c0,0,167,0,245,-93c0,0,78,-93,78,-273c0,0,0,-188,-81,-278c0,0,-81,-90,-248,-90Z"
id="f0_2b"
transform="scale(0.001,-0.001)"/>

<path d="M41,0V49l69,18V634L41,652v49H313l11,-61l50,26c0,0,105,54,188,54c0,0,194,0,194,-207V67L827,49V0H478V49l63,18V484c0,0,0,63,-27,98c0,0,-26,35,-75,35c0,0,-57,0,-114,-25V67L389,49V0Z"
id="f0_2a"
transform="scale(0.001,-0.001)"/>

<path d="M345,75c0,0,50,0,110,26V351l-63,-2c0,0,-72,-3,-100,-38c0,0,-28,-35,-28,-113c0,0,0,-63,22,-93c0,0,23,-30,59,-30ZM266,-14c0,0,-217,0,-217,208c0,0,0,79,32,126c0,0,32,48,93,71c0,0,60,22,190,25l91,2V521c0,0,0,126,-104,126c0,0,-62,0,-140,-39L183,521H134V691c0,0,112,17,165,21c0,0,53,5,108,5c0,0,264,0,264,-194V67L741,49V0H483L466,54C466,54,408,14,361,0c0,0,-47,-14,-95,-14Z"
id="f0_1x"
transform="scale(0.001,-0.001)"/>

<path d="M327,-14c0,0,-101,0,-156,45c0,0,-55,45,-55,131V624H25v48l108,29l87,159H332V701H480V624H332V176c0,0,0,-49,20,-73c0,0,20,-25,53,-25c0,0,40,0,97,12V26c0,0,-22,-15,-76,-27c0,0,-55,-13,-99,-13Z"
id="f0_2g"
transform="scale(0.001,-0.001)"/>

<path d="M434,423c0,0,0,101,-7,142c0,0,-6,40,-22,60c0,0,-16,19,-45,19c0,0,-44,0,-66,-48c0,0,-22,-49,-22,-173ZM389,-14c0,0,-172,0,-254,89c0,0,-83,90,-83,279c0,0,0,184,79,274c0,0,79,91,238,91c0,0,142,0,206,-76c0,0,64,-76,64,-237V345H271V333c0,0,0,-111,18,-158c0,0,18,-47,58,-72c0,0,40,-25,110,-25c0,0,66,0,166,22V42C623,42,582,18,517,1c0,0,-66,-15,-128,-15Z"
id="f0_21"
transform="scale(0.001,-0.001)"/>


</defs>
</svg>