<?xml version="1.0" encoding="UTF-8" standalone="no"?>
<!DOCTYPE svg PUBLIC "-//W3C//DTD SVG 1.1//EN"
"http://www.w3.org/Graphics/SVG/1.1/DTD/svg11.dtd">
<svg viewBox="0 0 935 1210" version="1.1" xmlns="http://www.w3.org/2000/svg" xmlns:xlink="http://www.w3.org/1999/xlink">
<defs>
<style type="text/css"><![CDATA[
.g0_13{
fill: #E4E4E4;
}
.g1_13{
}
]]></style>
</defs>
<g fill="#000000" >
<use xlink:href="#f0_1c" transform="matrix(9,0,0,9,263.4,40.2)" />
<use xlink:href="#f0_11" transform="matrix(9,0,0,9,272.5,40.2)" />
<use xlink:href="#f0_12" transform="matrix(9,0,0,9,285.9,40.2)" />
<use xlink:href="#f0_1f" transform="matrix(9,0,0,9,295.1,40.2)" />
<use xlink:href="#f0_1e" transform="matrix(9,0,0,9,305.8,40.2)" />
<use xlink:href="#f0_1k" transform="matrix(9,0,0,9,315.7,40.2)" />
<use xlink:href="#f0_15" transform="matrix(9,0,0,9,324.8,40.2)" />
<use xlink:href="#f0_1k5" transform="matrix(9,0,0,9,334,40.2)" />
<use xlink:href="#f0_1j" transform="matrix(9,0,0,9,338.6,40.2)" />
<use xlink:href="#f0_1k" transform="matrix(9,0,0,9,349.7,40.2)" />
<use xlink:href="#f0_1f" transform="matrix(9,0,0,9,358.8,40.2)" />
<use xlink:href="#f0_1g" transform="matrix(9,0,0,9,369.5,40.2)" />
<use xlink:href="#f0_l" transform="matrix(9,0,0,9,381.4,40.2)" />
<use xlink:href="#f0_k" transform="matrix(9,0,0,9,388.3,40.2)" />
<use xlink:href="#f0_k" transform="matrix(9,0,0,9,395.1,40.2)" />
<use xlink:href="#f0_15" transform="matrix(9,0,0,9,405.5,40.2)" />
<use xlink:href="#f0_1e" transform="matrix(9,0,0,9,414.6,40.2)" />
<use xlink:href="#f0_17" transform="matrix(9,0,0,9,424.5,40.2)" />
<use xlink:href="#f0_1c" transform="matrix(9,0,0,9,435.2,40.2)" />
<use xlink:href="#f0_19" transform="matrix(9,0,0,9,444.4,40.2)" />
<use xlink:href="#f0_1j" transform="matrix(9,0,0,9,449.7,40.2)" />
<use xlink:href="#f0_18" transform="matrix(9,0,0,9,457.3,40.2)" />
<use xlink:href="#f0_13" transform="matrix(9,0,0,9,471.5,40.2)" />
<use xlink:href="#f0_1f" transform="matrix(9,0,0,9,481.4,40.2)" />
<use xlink:href="#f0_1e" transform="matrix(9,0,0,9,492.1,40.2)" />
<use xlink:href="#f0_1m" transform="matrix(9,0,0,9,502,40.2)" />
<use xlink:href="#f0_15" transform="matrix(9,0,0,9,511.9,40.2)" />
<use xlink:href="#f0_1i" transform="matrix(9,0,0,9,521.2,40.2)" />
<use xlink:href="#f0_1j" transform="matrix(9,0,0,9,531.1,40.2)" />
<use xlink:href="#f0_11" transform="matrix(9,0,0,9,538.7,40.2)" />
<use xlink:href="#f0_1k" transform="matrix(9,0,0,9,548.7,40.2)" />
<use xlink:href="#f0_19" transform="matrix(9,0,0,9,557.8,40.2)" />
<use xlink:href="#f0_1f" transform="matrix(9,0,0,9,563.2,40.2)" />
<use xlink:href="#f0_1e" transform="matrix(9,0,0,9,573.8,40.2)" />
<use xlink:href="#f0_1g" transform="matrix(9,0,0,9,587.2,40.2)" />
<use xlink:href="#f0_11" transform="matrix(9,0,0,9,595.6,40.2)" />
<use xlink:href="#f0_1k" transform="matrix(9,0,0,9,605.5,40.2)" />
<use xlink:href="#f0_1k" transform="matrix(9,0,0,9,614.8,40.2)" />
<use xlink:href="#f0_15" transform="matrix(9,0,0,9,624,40.2)" />
<use xlink:href="#f0_1i" transform="matrix(9,0,0,9,633.1,40.2)" />
<use xlink:href="#f0_1e" transform="matrix(9,0,0,9,643,40.2)" />
<use xlink:href="#f0_1j" transform="matrix(9,0,0,9,652.9,40.2)" />
<use xlink:href="#f0_o" transform="matrix(12,0,0,12,861,44.6)" />
</g>
<path d="M53.8,87.4H881.3V55.7H53.8V87.4Z" class="g0_13"/>
<g fill="#000000" >
<use xlink:href="#f0_11" transform="matrix(18,0,0,18,184.5,81.4)" />
<use xlink:href="#f0_14" transform="matrix(18,0,0,18,204.4,81.4)" />
<use xlink:href="#f0_1a" transform="matrix(18,0,0,18,224.2,81.4)" />
<use xlink:href="#f0_15" transform="matrix(18,0,0,18,238,81.4)" />
<use xlink:href="#f0_13" transform="matrix(18,0,0,18,256.3,81.4)" />
<use xlink:href="#f0_1k" transform="matrix(18,0,0,18,276.2,81.4)" />
<use xlink:href="#f0_19" transform="matrix(18,0,0,18,294.6,81.4)" />
<use xlink:href="#f0_1m" transform="matrix(18,0,0,18,305.3,81.4)" />
<use xlink:href="#f0_15" transform="matrix(18,0,0,18,325.1,81.4)" />
<use xlink:href="#f0_u" transform="matrix(18,0,0,18,343.5,81.4)" />
<use xlink:href="#f0_18" transform="matrix(18,0,0,18,359.5,81.4)" />
<use xlink:href="#f0_1f" transform="matrix(18,0,0,18,380.9,81.4)" />
<use xlink:href="#f0_1n" transform="matrix(18,0,0,18,402.3,81.4)" />
<use xlink:href="#f0_1k" transform="matrix(18,0,0,18,436.7,81.4)" />
<use xlink:href="#f0_1f" transform="matrix(18,0,0,18,455,81.4)" />
<use xlink:href="#f0_1d" transform="matrix(18,0,0,18,483.3,81.4)" />
<use xlink:href="#f0_11" transform="matrix(18,0,0,18,509.3,81.4)" />
<use xlink:href="#f0_1b" transform="matrix(18,0,0,18,529.1,81.4)" />
<use xlink:href="#f0_15" transform="matrix(18,0,0,18,550.5,81.4)" />
<use xlink:href="#f0_11" transform="matrix(18,0,0,18,575.8,81.4)" />
<use xlink:href="#f0_1j" transform="matrix(18,0,0,18,602.5,81.4)" />
<use xlink:href="#f0_15" transform="matrix(18,0,0,18,617.8,81.4)" />
<use xlink:href="#f0_1e" transform="matrix(18,0,0,18,636.1,81.4)" />
<use xlink:href="#f0_1k" transform="matrix(18,0,0,18,656,81.4)" />
<use xlink:href="#f0_15" transform="matrix(18,0,0,18,674.3,81.4)" />
<use xlink:href="#f0_1e" transform="matrix(18,0,0,18,692.7,81.4)" />
<use xlink:href="#f0_13" transform="matrix(18,0,0,18,712.6,81.4)" />
<use xlink:href="#f0_15" transform="matrix(18,0,0,18,732.4,81.4)" />
</g>
<path d="M52.7,55.7h1.1V54.6H52.7v1.1Z" class="g1_13"/>
<path d="M52.7,55.7H882.4V54.6H52.7v1.1Z" class="g1_13"/>
<path d="M881.3,55.7h1.1V54.6h-1.1v1.1Z" class="g1_13"/>
<path d="M52.7,88.6h1.1V87.5H52.7v1.1Z" class="g1_13"/>
<path d="M52.7,88.6H882.4V87.5H52.7v1.1Z" class="g1_13"/>
<path d="M881.3,88.6h1.1V87.5h-1.1v1.1Z" class="g1_13"/>
<path d="M52.7,87.4h1.1V55.7H52.7V87.4Z" class="g1_13"/>
<path d="M881.3,87.4h1.1V55.7h-1.1V87.4Z" class="g1_13"/>
<path d="M79.9,198.6H187.5V106.2H79.9v92.4Z" class="g0_13"/>
<path d="M89.1,121.6h87.8V106.2H89.1v15.4Z" class="g0_13"/>
<path d="M89.1,145.8h87.8V121.6H89.1v24.2Z" class="g0_13"/>
<path d="M89.1,170.4h87.8V145.8H89.1v24.6Z" class="g0_13"/>
<g fill="#000000" >
<use xlink:href="#f0_1k" transform="matrix(14,0,0,14,89.1,165.8)" />
<use xlink:href="#f0_15" transform="matrix(14,0,0,14,103.4,165.8)" />
<use xlink:href="#f0_1e" transform="matrix(14,0,0,14,117.6,165.8)" />
<use xlink:href="#f0_1j" transform="matrix(14,0,0,14,133,165.8)" />
<use xlink:href="#f0_15" transform="matrix(14,0,0,14,144.9,165.8)" />
</g>
<path d="M188.6,153.3H832.2V106.2H188.6v47.1Z" class="g0_13"/>
<path d="M199.1,121.6h624V106.2h-624v15.4Z" class="g0_13"/>
<path d="M199.1,153.3h624V121.6h-624v31.7Z" class="g0_13"/>
<g fill="#000000" >
<use xlink:href="#f0_18" transform="matrix(18,0,0,18,340.3,147.2)" />
<use xlink:href="#f0_1f" transform="matrix(18,0,0,18,361.7,147.2)" />
<use xlink:href="#f0_1n" transform="matrix(18,0,0,18,383.1,147.2)" />
<use xlink:href="#f0_1k" transform="matrix(18,0,0,18,417.4,147.2)" />
<use xlink:href="#f0_1f" transform="matrix(18,0,0,18,435.8,147.2)" />
<use xlink:href="#f0_1d" transform="matrix(18,0,0,18,464,147.2)" />
<use xlink:href="#f0_11" transform="matrix(18,0,0,18,490,147.2)" />
<use xlink:href="#f0_1b" transform="matrix(18,0,0,18,509.9,147.2)" />
<use xlink:href="#f0_15" transform="matrix(18,0,0,18,531.3,147.2)" />
<use xlink:href="#f0_11" transform="matrix(18,0,0,18,556.5,147.2)" />
<use xlink:href="#f0_1j" transform="matrix(18,0,0,18,583.2,147.2)" />
<use xlink:href="#f0_15" transform="matrix(18,0,0,18,598.5,147.2)" />
<use xlink:href="#f0_1e" transform="matrix(18,0,0,18,616.8,147.2)" />
<use xlink:href="#f0_1k" transform="matrix(18,0,0,18,636.7,147.2)" />
<use xlink:href="#f0_15" transform="matrix(18,0,0,18,655,147.2)" />
<use xlink:href="#f0_1e" transform="matrix(18,0,0,18,673.4,147.2)" />
<use xlink:href="#f0_13" transform="matrix(18,0,0,18,693.2,147.2)" />
<use xlink:href="#f0_15" transform="matrix(18,0,0,18,713.1,147.2)" />
</g>
<path d="M76.1,106.3h1.3v-3.9H76.1v3.9Z" class="g1_13"/>
<path d="M76.1,103.7h3.8v-1.3H76.1v1.3Z" class="g1_13"/>
<path d="M78.6,106.3h1.3V105H78.6v1.3Z" class="g1_13"/>
<path d="M78.6,106.2h1.3V105H78.6v1.2Z" class="g1_13"/>
<path d="M79.9,103.7H187.4v-1.3H79.9v1.3Z" class="g1_13"/>
<path d="M79.9,106.2H187.4V105H79.9v1.2Z" class="g1_13"/>
<path d="M79.9,106.3H187.4v-.1H79.9v.1Z" class="g0_13"/>
<path d="M188.7,106.3h2.5v-.1h-2.5v.1Z" class="g0_13"/>
<path d="M187.4,106.3h1.2v-.1h-1.2v.1Z" class="g1_13"/>
<path d="M187.4,103.7h3.8v-1.3h-3.8v1.3Z" class="g1_13"/>
<path d="M187.4,106.2h3.8V105h-3.8v1.2Z" class="g1_13"/>
<path d="M191.2,103.7h641v-1.3h-641v1.3Z" class="g1_13"/>
<path d="M191.2,106.2h641V105h-641v1.2Z" class="g1_13"/>
<path d="M191.2,106.3h641v-.1h-641v.1Z" class="g0_13"/>
<path d="M834.8,106.3h1.3v-3.9h-1.3v3.9Z" class="g1_13"/>
<path d="M832.2,103.7h3.9v-1.3h-3.9v1.3Z" class="g1_13"/>
<path d="M832.2,106.3h1.3V105h-1.3v1.3Z" class="g1_13"/>
<path d="M832.2,106.2h1.3V105h-1.3v1.2Z" class="g1_13"/>
<path d="M78.6,153.3h1.3v-47H78.6v47Z" class="g1_13"/>
<path d="M76.1,153.3h1.3v-47H76.1v47Z" class="g1_13"/>
<path d="M187.4,153.3h1.2v-47h-1.2v47Z" class="g1_13"/>
<path d="M834.8,153.3h1.3v-47h-1.3v47Z" class="g1_13"/>
<path d="M832.2,153.3h1.3v-47h-1.3v47Z" class="g1_13"/>
<path d="M188.6,198.6H465.8v-44H188.6v44Z" class="g0_13"/>
<path d="M199.1,167H455.2V154.6H199.1V167Z" class="g0_13"/>
<path d="M199.1,198.6H455.2V167H199.1v31.6Z" class="g0_13"/>
<g fill="#000000" >
<use xlink:href="#f0_f" transform="matrix(18,0,0,18,304.2,192.6)" />
<use xlink:href="#f0_1j" transform="matrix(18,0,0,18,326.7,192.6)" />
</g>
<path d="M466.9,198.6H832.2v-44H466.9v44Z" class="g0_13"/>
<path d="M477.3,198.6H823.1v-44H477.3v44Z" class="g0_13"/>
<g fill="#000000" >
<use xlink:href="#f0_h" transform="matrix(18,0,0,18,630.4,192.6)" />
<use xlink:href="#f0_1j" transform="matrix(18,0,0,18,646.4,192.6)" />
</g>
<path d="M76.1,154.5h1.3v-1.2H76.1v1.2Z" class="g1_13"/>
<path d="M78.6,154.5h1.3v-1.2H78.6v1.2Z" class="g1_13"/>
<path d="M187.4,154.5H832.2v-1.2H187.4v1.2Z" class="g1_13"/>
<path d="M834.8,154.5h1.3v-1.2h-1.3v1.2Z" class="g1_13"/>
<path d="M832.2,154.5h1.3v-1.2h-1.3v1.2Z" class="g1_13"/>
<path d="M78.6,198.6h1.3v-44H78.6v44Z" class="g1_13"/>
<path d="M76.1,198.6h1.3v-44H76.1v44Z" class="g1_13"/>
<path d="M187.4,198.6h1.2v-44h-1.2v44Z" class="g1_13"/>
<path d="M465.7,198.6h1.2v-44h-1.2v44Z" class="g1_13"/>
<path d="M834.8,198.6h1.3v-44h-1.3v44Z" class="g1_13"/>
<path d="M832.2,198.6h1.3v-44h-1.3v44Z" class="g1_13"/>
<path d="M79.9,528.5H187.5V199.9H79.9V528.5Z" class="g0_13"/>
<path d="M89.1,212.4h87.8V199.9H89.1v12.5Z" class="g0_13"/>
<path d="M89.1,229.9h87.8V212.4H89.1v17.5Z" class="g0_13"/>
<path d="M89.1,247.5h87.8V229.9H89.1v17.6Z" class="g0_13"/>
<path d="M89.1,265.1h87.8V247.5H89.1v17.6Z" class="g0_13"/>
<path d="M89.1,282.6h87.8V265.1H89.1v17.5Z" class="g0_13"/>
<path d="M89.1,300.2h87.8V282.6H89.1v17.6Z" class="g0_13"/>
<path d="M89.1,317.8h87.8V300.2H89.1v17.6Z" class="g0_13"/>
<path d="M89.1,335.3h87.8V317.8H89.1v17.5Z" class="g0_13"/>
<path d="M89.1,352.9h87.8V335.3H89.1v17.6Z" class="g0_13"/>
<g fill="#000000" >
<use xlink:href="#f0_1g" transform="matrix(10,0,0,10,97.7,349.5)" />
<use xlink:href="#f0_1i" transform="matrix(10,0,0,10,107.1,349.5)" />
<use xlink:href="#f0_15" transform="matrix(10,0,0,10,118.1,349.5)" />
<use xlink:href="#f0_1j" transform="matrix(10,0,0,10,128.3,349.5)" />
<use xlink:href="#f0_15" transform="matrix(10,0,0,10,136.9,349.5)" />
<use xlink:href="#f0_1e" transform="matrix(10,0,0,10,147.1,349.5)" />
<use xlink:href="#f0_1k" transform="matrix(10,0,0,10,158.1,349.5)" />
<use xlink:href="#f0_19" transform="matrix(10,0,0,10,199.1,226.6)" />
<use xlink:href="#f0_11" transform="matrix(10,0,0,10,208.9,226.6)" />
<use xlink:href="#f0_1d" transform="matrix(10,0,0,10,219.9,226.6)" />
<use xlink:href="#f0_1x" transform="matrix(10,0,0,10,238.1,226.6)" />
</g>
<path d="M238.2,229.7h7.6v-1.5h-7.6v1.5Z" class="g1_13"/>
<g fill="#000000" >
<use xlink:href="#f0_i" transform="matrix(10,0,0,10,245.9,226.6)" />
<use xlink:href="#f0_1n" transform="matrix(10,0,0,10,347.3,226.6)" />
<use xlink:href="#f0_15" transform="matrix(10,0,0,10,362.6,226.6)" />
<use xlink:href="#f0_11" transform="matrix(10,0,0,10,376.7,226.6)" />
<use xlink:href="#f0_1i" transform="matrix(10,0,0,10,387.8,226.6)" />
<use xlink:href="#f0_15" transform="matrix(10,0,0,10,398.9,226.6)" />
<use xlink:href="#f0_19" transform="matrix(10,0,0,10,199.1,244.1)" />
<use xlink:href="#f0_b" transform="matrix(10,0,0,10,205.1,244.1)" />
<use xlink:href="#f0_1d" transform="matrix(10,0,0,10,209.3,244.1)" />
<use xlink:href="#f0_1n" transform="matrix(10,0,0,10,347.5,244.1)" />
<use xlink:href="#f0_15" transform="matrix(10,0,0,10,362.8,244.1)" />
<use xlink:href="#f0_b" transform="matrix(10,0,0,10,373,244.1)" />
<use xlink:href="#f0_1i" transform="matrix(10,0,0,10,377.3,244.1)" />
<use xlink:href="#f0_15" transform="matrix(10,0,0,10,388.4,244.1)" />
<use xlink:href="#f0_1p" transform="matrix(10,0,0,10,199.1,296.8)" />
<use xlink:href="#f0_1f" transform="matrix(10,0,0,10,210.2,296.8)" />
<use xlink:href="#f0_1l" transform="matrix(10,0,0,10,222,296.8)" />
<use xlink:href="#f0_11" transform="matrix(10,0,0,10,236.8,296.8)" />
<use xlink:href="#f0_1i" transform="matrix(10,0,0,10,247.9,296.8)" />
<use xlink:href="#f0_15" transform="matrix(10,0,0,10,259,296.8)" />
<use xlink:href="#f0_1p" transform="matrix(10,0,0,10,353.8,296.8)" />
<use xlink:href="#f0_1f" transform="matrix(10,0,0,10,364.8,296.8)" />
<use xlink:href="#f0_1l" transform="matrix(10,0,0,10,376.8,296.8)" />
<use xlink:href="#f0_11" transform="matrix(10,0,0,10,391.6,296.8)" />
<use xlink:href="#f0_1i" transform="matrix(10,0,0,10,402.7,296.8)" />
<use xlink:href="#f0_15" transform="matrix(10,0,0,10,413.8,296.8)" />
<use xlink:href="#f0_1p" transform="matrix(10,0,0,10,199.1,314.4)" />
<use xlink:href="#f0_1f" transform="matrix(10,0,0,10,210.2,314.4)" />
<use xlink:href="#f0_1l" transform="matrix(10,0,0,10,222,314.4)" />
<use xlink:href="#f0_b" transform="matrix(10,0,0,10,233.1,314.4)" />
<use xlink:href="#f0_1i" transform="matrix(10,0,0,10,237.3,314.4)" />
<use xlink:href="#f0_15" transform="matrix(10,0,0,10,248.4,314.4)" />
<use xlink:href="#f0_1p" transform="matrix(10,0,0,10,356.2,314.4)" />
<use xlink:href="#f0_1f" transform="matrix(10,0,0,10,367.3,314.4)" />
<use xlink:href="#f0_1l" transform="matrix(10,0,0,10,379.2,314.4)" />
<use xlink:href="#f0_b" transform="matrix(10,0,0,10,390.3,314.4)" />
<use xlink:href="#f0_1i" transform="matrix(10,0,0,10,394.5,314.4)" />
<use xlink:href="#f0_15" transform="matrix(10,0,0,10,405.6,314.4)" />
<use xlink:href="#f0_18" transform="matrix(10,0,0,10,199.1,367.2)" />
<use xlink:href="#f0_15" transform="matrix(10,0,0,10,211,367.2)" />
<use xlink:href="#f0_19" transform="matrix(10,0,0,10,225,367.2)" />
<use xlink:href="#f0_1j" transform="matrix(10,0,0,10,231,367.2)" />
<use xlink:href="#f0_1k" transform="matrix(10,0,0,10,350.1,367.2)" />
<use xlink:href="#f0_18" transform="matrix(10,0,0,10,360.3,367.2)" />
<use xlink:href="#f0_15" transform="matrix(10,0,0,10,372.2,367.2)" />
<use xlink:href="#f0_1p" transform="matrix(10,0,0,10,382.5,367.2)" />
<use xlink:href="#f0_11" transform="matrix(10,0,0,10,397.4,367.2)" />
<use xlink:href="#f0_1i" transform="matrix(10,0,0,10,408.4,367.2)" />
<use xlink:href="#f0_15" transform="matrix(10,0,0,10,419.5,367.2)" />
<use xlink:href="#f0_18" transform="matrix(10,0,0,10,199.1,384.8)" />
<use xlink:href="#f0_15" transform="matrix(10,0,0,10,211,384.8)" />
<use xlink:href="#f0_b" transform="matrix(10,0,0,10,221.2,384.8)" />
<use xlink:href="#f0_1j" transform="matrix(10,0,0,10,225.4,384.8)" />
<use xlink:href="#f0_1k" transform="matrix(10,0,0,10,351.2,384.8)" />
<use xlink:href="#f0_18" transform="matrix(10,0,0,10,361.3,384.8)" />
<use xlink:href="#f0_15" transform="matrix(10,0,0,10,373.3,384.8)" />
<use xlink:href="#f0_1p" transform="matrix(10,0,0,10,383.5,384.8)" />
<use xlink:href="#f0_b" transform="matrix(10,0,0,10,394.6,384.8)" />
<use xlink:href="#f0_1i" transform="matrix(10,0,0,10,398.8,384.8)" />
<use xlink:href="#f0_15" transform="matrix(10,0,0,10,409.9,384.8)" />
<use xlink:href="#f0_1j" transform="matrix(10,0,0,10,225.1,402.3)" />
<use xlink:href="#f0_18" transform="matrix(10,0,0,10,233.7,402.3)" />
<use xlink:href="#f0_15" transform="matrix(10,0,0,10,245.6,402.3)" />
<use xlink:href="#f0_19" transform="matrix(10,0,0,10,259.6,402.3)" />
<use xlink:href="#f0_1j" transform="matrix(10,0,0,10,265.6,402.3)" />
<use xlink:href="#f0_1j" transform="matrix(10,0,0,10,225.1,419.9)" />
<use xlink:href="#f0_18" transform="matrix(10,0,0,10,233.6,419.9)" />
<use xlink:href="#f0_15" transform="matrix(10,0,0,10,245.5,419.9)" />
<use xlink:href="#f0_b" transform="matrix(10,0,0,10,255.7,419.9)" />
<use xlink:href="#f0_1j" transform="matrix(10,0,0,10,260,419.9)" />
<use xlink:href="#f0_19" transform="matrix(10,0,0,10,199.1,437.5)" />
<use xlink:href="#f0_1k" transform="matrix(10,0,0,10,205.1,437.5)" />
<use xlink:href="#f0_19" transform="matrix(10,0,0,10,219.1,437.5)" />
<use xlink:href="#f0_1j" transform="matrix(10,0,0,10,225.1,437.5)" />
<use xlink:href="#f0_19" transform="matrix(10,0,0,10,199.1,455)" />
<use xlink:href="#f0_1k" transform="matrix(10,0,0,10,205,455)" />
<use xlink:href="#f0_b" transform="matrix(10,0,0,10,215.2,455)" />
<use xlink:href="#f0_1j" transform="matrix(10,0,0,10,219.5,455)" />
<use xlink:href="#f0_19" transform="matrix(10,0,0,10,477.3,226.7)" />
<use xlink:href="#f0_11" transform="matrix(10,0,0,10,487.1,226.7)" />
<use xlink:href="#f0_1d" transform="matrix(10,0,0,10,498.1,226.7)" />
<use xlink:href="#f0_1e" transform="matrix(10,0,0,10,516.3,226.7)" />
<use xlink:href="#f0_1f" transform="matrix(10,0,0,10,527.4,226.7)" />
<use xlink:href="#f0_1k" transform="matrix(10,0,0,10,539.3,226.7)" />
<use xlink:href="#f0_1x" transform="matrix(10,0,0,10,553.2,226.7)" />
</g>
<path d="M553.3,229.7H561v-1.5h-7.7v1.5Z" class="g1_13"/>
<g fill="#000000" >
<use xlink:href="#f0_i" transform="matrix(10,0,0,10,561,226.6)" />
<use xlink:href="#f0_1n" transform="matrix(10,0,0,10,669.1,226.6)" />
<use xlink:href="#f0_15" transform="matrix(10,0,0,10,684.4,226.6)" />
<use xlink:href="#f0_11" transform="matrix(10,0,0,10,698.4,226.6)" />
<use xlink:href="#f0_1i" transform="matrix(10,0,0,10,709.4,226.6)" />
<use xlink:href="#f0_15" transform="matrix(10,0,0,10,720.5,226.6)" />
<use xlink:href="#f0_1e" transform="matrix(10,0,0,10,734.5,226.6)" />
<use xlink:href="#f0_1f" transform="matrix(10,0,0,10,745.5,226.6)" />
<use xlink:href="#f0_1k" transform="matrix(10,0,0,10,757.4,226.6)" />
<use xlink:href="#f0_19" transform="matrix(10,0,0,10,477.3,244.1)" />
<use xlink:href="#f0_b" transform="matrix(10,0,0,10,483.3,244.1)" />
<use xlink:href="#f0_1d" transform="matrix(10,0,0,10,487.5,244.1)" />
<use xlink:href="#f0_1e" transform="matrix(10,0,0,10,505.7,244.1)" />
<use xlink:href="#f0_1f" transform="matrix(10,0,0,10,516.8,244.1)" />
<use xlink:href="#f0_1k" transform="matrix(10,0,0,10,528.7,244.1)" />
<use xlink:href="#f0_1n" transform="matrix(10,0,0,10,669.2,244.1)" />
<use xlink:href="#f0_15" transform="matrix(10,0,0,10,684.5,244.1)" />
<use xlink:href="#f0_b" transform="matrix(10,0,0,10,694.7,244.1)" />
<use xlink:href="#f0_1i" transform="matrix(10,0,0,10,698.9,244.1)" />
<use xlink:href="#f0_15" transform="matrix(10,0,0,10,710,244.1)" />
<use xlink:href="#f0_1e" transform="matrix(10,0,0,10,724,244.1)" />
<use xlink:href="#f0_1f" transform="matrix(10,0,0,10,735.1,244.1)" />
<use xlink:href="#f0_1k" transform="matrix(10,0,0,10,746.9,244.1)" />
<use xlink:href="#f0_1n" transform="matrix(10,0,0,10,659.9,261.7)" />
<use xlink:href="#f0_15" transform="matrix(10,0,0,10,675.2,261.7)" />
<use xlink:href="#f0_11" transform="matrix(10,0,0,10,689.2,261.7)" />
<use xlink:href="#f0_1i" transform="matrix(10,0,0,10,700.2,261.7)" />
<use xlink:href="#f0_15" transform="matrix(10,0,0,10,711.3,261.7)" />
<use xlink:href="#f0_1e" transform="matrix(10,0,0,10,721.5,261.7)" />
<use xlink:href="#f0_b" transform="matrix(10,0,0,10,732.6,261.7)" />
<use xlink:href="#f0_1k" transform="matrix(10,0,0,10,736.8,261.7)" />
<use xlink:href="#f0_1p" transform="matrix(10,0,0,10,477.3,296.8)" />
<use xlink:href="#f0_1f" transform="matrix(10,0,0,10,488.4,296.8)" />
<use xlink:href="#f0_1l" transform="matrix(10,0,0,10,500.2,296.8)" />
<use xlink:href="#f0_11" transform="matrix(10,0,0,10,515,296.8)" />
<use xlink:href="#f0_1i" transform="matrix(10,0,0,10,526.1,296.8)" />
<use xlink:href="#f0_15" transform="matrix(10,0,0,10,537.1,296.8)" />
<use xlink:href="#f0_1e" transform="matrix(10,0,0,10,551.1,296.8)" />
<use xlink:href="#f0_1f" transform="matrix(10,0,0,10,562.1,296.8)" />
<use xlink:href="#f0_1k" transform="matrix(10,0,0,10,574,296.8)" />
<use xlink:href="#f0_1p" transform="matrix(10,0,0,10,675.4,296.8)" />
<use xlink:href="#f0_1f" transform="matrix(10,0,0,10,686.5,296.8)" />
<use xlink:href="#f0_1l" transform="matrix(10,0,0,10,698.4,296.8)" />
<use xlink:href="#f0_11" transform="matrix(10,0,0,10,713.3,296.8)" />
<use xlink:href="#f0_1i" transform="matrix(10,0,0,10,724.3,296.8)" />
<use xlink:href="#f0_15" transform="matrix(10,0,0,10,735.4,296.8)" />
<use xlink:href="#f0_1e" transform="matrix(10,0,0,10,749.3,296.8)" />
<use xlink:href="#f0_1f" transform="matrix(10,0,0,10,760.4,296.8)" />
<use xlink:href="#f0_1k" transform="matrix(10,0,0,10,772.3,296.8)" />
<use xlink:href="#f0_1p" transform="matrix(10,0,0,10,477.3,314.4)" />
<use xlink:href="#f0_1f" transform="matrix(10,0,0,10,488.4,314.4)" />
<use xlink:href="#f0_1l" transform="matrix(10,0,0,10,500.2,314.4)" />
<use xlink:href="#f0_b" transform="matrix(10,0,0,10,511.3,314.4)" />
<use xlink:href="#f0_1i" transform="matrix(10,0,0,10,515.5,314.4)" />
<use xlink:href="#f0_15" transform="matrix(10,0,0,10,526.6,314.4)" />
<use xlink:href="#f0_1e" transform="matrix(10,0,0,10,540.6,314.4)" />
<use xlink:href="#f0_1f" transform="matrix(10,0,0,10,551.6,314.4)" />
<use xlink:href="#f0_1k" transform="matrix(10,0,0,10,563.4,314.4)" />
<use xlink:href="#f0_1p" transform="matrix(10,0,0,10,671.5,314.4)" />
<use xlink:href="#f0_1f" transform="matrix(10,0,0,10,682.5,314.4)" />
<use xlink:href="#f0_1l" transform="matrix(10,0,0,10,694.4,314.4)" />
<use xlink:href="#f0_b" transform="matrix(10,0,0,10,705.5,314.4)" />
<use xlink:href="#f0_1i" transform="matrix(10,0,0,10,709.6,314.4)" />
<use xlink:href="#f0_15" transform="matrix(10,0,0,10,720.7,314.4)" />
<use xlink:href="#f0_1e" transform="matrix(10,0,0,10,734.7,314.4)" />
<use xlink:href="#f0_1f" transform="matrix(10,0,0,10,745.7,314.4)" />
<use xlink:href="#f0_1k" transform="matrix(10,0,0,10,757.6,314.4)" />
<use xlink:href="#f0_1p" transform="matrix(10,0,0,10,477.3,332)" />
<use xlink:href="#f0_1f" transform="matrix(10,0,0,10,488.4,332)" />
<use xlink:href="#f0_1l" transform="matrix(10,0,0,10,500.2,332)" />
<use xlink:href="#f0_11" transform="matrix(10,0,0,10,515,332)" />
<use xlink:href="#f0_1i" transform="matrix(10,0,0,10,526.1,332)" />
<use xlink:href="#f0_15" transform="matrix(10,0,0,10,537.1,332)" />
<use xlink:href="#f0_1e" transform="matrix(10,0,0,10,547.2,332)" />
<use xlink:href="#f0_b" transform="matrix(10,0,0,10,558.3,332)" />
<use xlink:href="#f0_1k" transform="matrix(10,0,0,10,562.5,332)" />
<use xlink:href="#f0_1p" transform="matrix(10,0,0,10,670.5,332)" />
<use xlink:href="#f0_1f" transform="matrix(10,0,0,10,681.6,332)" />
<use xlink:href="#f0_1l" transform="matrix(10,0,0,10,693.5,332)" />
<use xlink:href="#f0_11" transform="matrix(10,0,0,10,708.4,332)" />
<use xlink:href="#f0_1i" transform="matrix(10,0,0,10,719.4,332)" />
<use xlink:href="#f0_15" transform="matrix(10,0,0,10,730.5,332)" />
<use xlink:href="#f0_1e" transform="matrix(10,0,0,10,740.5,332)" />
<use xlink:href="#f0_b" transform="matrix(10,0,0,10,751.6,332)" />
<use xlink:href="#f0_1k" transform="matrix(10,0,0,10,755.9,332)" />
<use xlink:href="#f0_18" transform="matrix(10,0,0,10,477.3,367.2)" />
<use xlink:href="#f0_15" transform="matrix(10,0,0,10,489.2,367.2)" />
<use xlink:href="#f0_19" transform="matrix(10,0,0,10,503.2,367.2)" />
<use xlink:href="#f0_1j" transform="matrix(10,0,0,10,509.2,367.2)" />
<use xlink:href="#f0_1e" transform="matrix(10,0,0,10,521.5,367.2)" />
<use xlink:href="#f0_1f" transform="matrix(10,0,0,10,532.5,367.2)" />
<use xlink:href="#f0_1k" transform="matrix(10,0,0,10,544.5,367.2)" />
<use xlink:href="#f0_1k" transform="matrix(10,0,0,10,671.9,367.2)" />
<use xlink:href="#f0_18" transform="matrix(10,0,0,10,682,367.2)" />
<use xlink:href="#f0_15" transform="matrix(10,0,0,10,693.9,367.2)" />
<use xlink:href="#f0_1p" transform="matrix(10,0,0,10,704.1,367.2)" />
<use xlink:href="#f0_11" transform="matrix(10,0,0,10,719,367.2)" />
<use xlink:href="#f0_1i" transform="matrix(10,0,0,10,730,367.2)" />
<use xlink:href="#f0_15" transform="matrix(10,0,0,10,741.1,367.2)" />
<use xlink:href="#f0_1e" transform="matrix(10,0,0,10,755,367.2)" />
<use xlink:href="#f0_1f" transform="matrix(10,0,0,10,766.1,367.2)" />
<use xlink:href="#f0_1k" transform="matrix(10,0,0,10,778,367.2)" />
<use xlink:href="#f0_18" transform="matrix(10,0,0,10,477.3,384.8)" />
<use xlink:href="#f0_15" transform="matrix(10,0,0,10,489.2,384.8)" />
<use xlink:href="#f0_b" transform="matrix(10,0,0,10,499.4,384.8)" />
<use xlink:href="#f0_1j" transform="matrix(10,0,0,10,503.6,384.8)" />
<use xlink:href="#f0_1e" transform="matrix(10,0,0,10,516,384.8)" />
<use xlink:href="#f0_1f" transform="matrix(10,0,0,10,527,384.8)" />
<use xlink:href="#f0_1k" transform="matrix(10,0,0,10,538.9,384.8)" />
<use xlink:href="#f0_1k" transform="matrix(10,0,0,10,672.9,384.8)" />
<use xlink:href="#f0_18" transform="matrix(10,0,0,10,683,384.8)" />
<use xlink:href="#f0_15" transform="matrix(10,0,0,10,694.9,384.8)" />
<use xlink:href="#f0_1p" transform="matrix(10,0,0,10,705.1,384.8)" />
<use xlink:href="#f0_b" transform="matrix(10,0,0,10,716.2,384.8)" />
<use xlink:href="#f0_1i" transform="matrix(10,0,0,10,720.4,384.8)" />
<use xlink:href="#f0_15" transform="matrix(10,0,0,10,731.5,384.8)" />
<use xlink:href="#f0_1e" transform="matrix(10,0,0,10,745.4,384.8)" />
<use xlink:href="#f0_1f" transform="matrix(10,0,0,10,756.5,384.8)" />
<use xlink:href="#f0_1k" transform="matrix(10,0,0,10,768.4,384.8)" />
<use xlink:href="#f0_18" transform="matrix(10,0,0,10,477.3,402.3)" />
<use xlink:href="#f0_15" transform="matrix(10,0,0,10,489.2,402.3)" />
<use xlink:href="#f0_19" transform="matrix(10,0,0,10,503.2,402.3)" />
<use xlink:href="#f0_1j" transform="matrix(10,0,0,10,509.2,402.3)" />
<use xlink:href="#f0_1e" transform="matrix(10,0,0,10,517.6,402.3)" />
<use xlink:href="#f0_b" transform="matrix(10,0,0,10,528.7,402.3)" />
<use xlink:href="#f0_1k" transform="matrix(10,0,0,10,532.9,402.3)" />
<use xlink:href="#f0_1k" transform="matrix(10,0,0,10,673.4,402.3)" />
<use xlink:href="#f0_18" transform="matrix(10,0,0,10,683.6,402.3)" />
<use xlink:href="#f0_15" transform="matrix(10,0,0,10,695.5,402.3)" />
<use xlink:href="#f0_1p" transform="matrix(10,0,0,10,705.7,402.3)" />
<use xlink:href="#f0_11" transform="matrix(10,0,0,10,720.6,402.3)" />
<use xlink:href="#f0_1i" transform="matrix(10,0,0,10,731.6,402.3)" />
<use xlink:href="#f0_15" transform="matrix(10,0,0,10,742.7,402.3)" />
<use xlink:href="#f0_1e" transform="matrix(10,0,0,10,752.8,402.3)" />
<use xlink:href="#f0_b" transform="matrix(10,0,0,10,763.8,402.3)" />
<use xlink:href="#f0_1k" transform="matrix(10,0,0,10,768.1,402.3)" />
<use xlink:href="#f0_1j" transform="matrix(10,0,0,10,503.3,419.9)" />
<use xlink:href="#f0_18" transform="matrix(10,0,0,10,511.9,419.9)" />
<use xlink:href="#f0_15" transform="matrix(10,0,0,10,523.8,419.9)" />
<use xlink:href="#f0_19" transform="matrix(10,0,0,10,537.8,419.9)" />
<use xlink:href="#f0_1j" transform="matrix(10,0,0,10,543.8,419.9)" />
<use xlink:href="#f0_1e" transform="matrix(10,0,0,10,556,419.9)" />
<use xlink:href="#f0_1f" transform="matrix(10,0,0,10,567,419.9)" />
<use xlink:href="#f0_1k" transform="matrix(10,0,0,10,578.9,419.9)" />
<use xlink:href="#f0_1j" transform="matrix(10,0,0,10,503.3,437.5)" />
<use xlink:href="#f0_18" transform="matrix(10,0,0,10,511.8,437.5)" />
<use xlink:href="#f0_15" transform="matrix(10,0,0,10,523.7,437.5)" />
<use xlink:href="#f0_b" transform="matrix(10,0,0,10,533.9,437.5)" />
<use xlink:href="#f0_1j" transform="matrix(10,0,0,10,538.2,437.5)" />
<use xlink:href="#f0_1e" transform="matrix(10,0,0,10,550.5,437.5)" />
<use xlink:href="#f0_1f" transform="matrix(10,0,0,10,561.5,437.5)" />
<use xlink:href="#f0_1k" transform="matrix(10,0,0,10,573.4,437.5)" />
<use xlink:href="#f0_1j" transform="matrix(10,0,0,10,503.3,455)" />
<use xlink:href="#f0_18" transform="matrix(10,0,0,10,511.8,455)" />
<use xlink:href="#f0_15" transform="matrix(10,0,0,10,523.8,455)" />
<use xlink:href="#f0_19" transform="matrix(10,0,0,10,537.8,455)" />
<use xlink:href="#f0_1j" transform="matrix(10,0,0,10,543.8,455)" />
<use xlink:href="#f0_1e" transform="matrix(10,0,0,10,552.3,455)" />
<use xlink:href="#f0_b" transform="matrix(10,0,0,10,563.3,455)" />
<use xlink:href="#f0_1k" transform="matrix(10,0,0,10,567.4,455)" />
<use xlink:href="#f0_19" transform="matrix(10,0,0,10,477.3,472.6)" />
<use xlink:href="#f0_1k" transform="matrix(10,0,0,10,483.3,472.6)" />
<use xlink:href="#f0_19" transform="matrix(10,0,0,10,497.3,472.6)" />
<use xlink:href="#f0_1j" transform="matrix(10,0,0,10,503.3,472.6)" />
<use xlink:href="#f0_1e" transform="matrix(10,0,0,10,515.5,472.6)" />
<use xlink:href="#f0_1f" transform="matrix(10,0,0,10,526.6,472.6)" />
<use xlink:href="#f0_1k" transform="matrix(10,0,0,10,538.5,472.6)" />
<use xlink:href="#f0_19" transform="matrix(10,0,0,10,477.3,490.2)" />
<use xlink:href="#f0_1k" transform="matrix(10,0,0,10,483.3,490.2)" />
<use xlink:href="#f0_b" transform="matrix(10,0,0,10,493.5,490.2)" />
<use xlink:href="#f0_1j" transform="matrix(10,0,0,10,497.7,490.2)" />
<use xlink:href="#f0_1e" transform="matrix(10,0,0,10,510.1,490.2)" />
<use xlink:href="#f0_1f" transform="matrix(10,0,0,10,521.2,490.2)" />
<use xlink:href="#f0_1k" transform="matrix(10,0,0,10,533.1,490.2)" />
<use xlink:href="#f0_19" transform="matrix(10,0,0,10,477.3,507.7)" />
<use xlink:href="#f0_1k" transform="matrix(10,0,0,10,483.3,507.7)" />
<use xlink:href="#f0_19" transform="matrix(10,0,0,10,497.3,507.7)" />
<use xlink:href="#f0_1j" transform="matrix(10,0,0,10,503.3,507.7)" />
<use xlink:href="#f0_1e" transform="matrix(10,0,0,10,511.8,507.7)" />
<use xlink:href="#f0_b" transform="matrix(10,0,0,10,522.8,507.7)" />
<use xlink:href="#f0_1k" transform="matrix(10,0,0,10,527.1,507.7)" />
</g>
<path d="M78.6,199.9h1.3v-1.3H78.6v1.3Z" class="g1_13"/>
<path d="M76.1,199.9h1.3v-1.3H76.1v1.3Z" class="g1_13"/>
<path d="M79.9,199.9H832.2v-1.3H79.9v1.3Z" class="g1_13"/>
<path d="M834.8,199.9h1.3v-1.3h-1.3v1.3Z" class="g1_13"/>
<path d="M832.2,199.9h1.3v-1.3h-1.3v1.3Z" class="g1_13"/>
<path d="M78.6,528.5h1.3V199.9H78.6V528.5Z" class="g1_13"/>
<path d="M76.1,528.5h1.3V199.9H76.1V528.5Z" class="g1_13"/>
<path d="M187.4,528.5h1.2V199.9h-1.2V528.5Z" class="g1_13"/>
<path d="M465.7,528.5h1.2V199.9h-1.2V528.5Z" class="g1_13"/>
<path d="M834.8,528.5h1.3V199.9h-1.3V528.5Z" class="g1_13"/>
<path d="M832.2,528.5h1.3V199.9h-1.3V528.5Z" class="g1_13"/>
<path d="M79.9,770.7H187.5V529.9H79.9V770.7Z" class="g0_13"/>
<path d="M89.1,542.3h87.8V529.9H89.1v12.4Z" class="g0_13"/>
<path d="M89.1,559.6h87.8V542.3H89.1v17.3Z" class="g0_13"/>
<path d="M89.1,577.2h87.8V559.6H89.1v17.6Z" class="g0_13"/>
<path d="M89.1,594.8h87.8V577.2H89.1v17.6Z" class="g0_13"/>
<path d="M89.1,612.3h87.8V594.8H89.1v17.5Z" class="g0_13"/>
<path d="M89.1,629.9h87.8V612.3H89.1v17.6Z" class="g0_13"/>
<g fill="#000000" >
<use xlink:href="#f0_1g" transform="matrix(10,0,0,10,113.5,626.5)" />
<use xlink:href="#f0_11" transform="matrix(10,0,0,10,122.9,626.5)" />
<use xlink:href="#f0_1j" transform="matrix(10,0,0,10,133.9,626.5)" />
<use xlink:href="#f0_1k" transform="matrix(10,0,0,10,142.4,626.5)" />
<use xlink:href="#f0_19" transform="matrix(10,0,0,10,199.1,556.5)" />
<use xlink:href="#f0_1n" transform="matrix(10,0,0,10,208.9,556.5)" />
<use xlink:href="#f0_11" transform="matrix(10,0,0,10,224.2,556.5)" />
<use xlink:href="#f0_1j" transform="matrix(10,0,0,10,235.3,556.5)" />
<use xlink:href="#f0_1x" transform="matrix(10,0,0,10,247.5,556.5)" />
</g>
<path d="M247.5,559.6h7.7v-1.4h-7.7v1.4Z" class="g1_13"/>
<g fill="#000000" >
<use xlink:href="#f0_i" transform="matrix(10,0,0,10,255.2,556.5)" />
<use xlink:href="#f0_1n" transform="matrix(10,0,0,10,350.2,556.5)" />
<use xlink:href="#f0_15" transform="matrix(10,0,0,10,365.5,556.5)" />
<use xlink:href="#f0_1n" transform="matrix(10,0,0,10,379.6,556.5)" />
<use xlink:href="#f0_15" transform="matrix(10,0,0,10,394.9,556.5)" />
<use xlink:href="#f0_1i" transform="matrix(10,0,0,10,405.1,556.5)" />
<use xlink:href="#f0_15" transform="matrix(10,0,0,10,416.2,556.5)" />
<use xlink:href="#f0_1p" transform="matrix(10,0,0,10,199.1,609.2)" />
<use xlink:href="#f0_1f" transform="matrix(10,0,0,10,210.2,609.2)" />
<use xlink:href="#f0_1l" transform="matrix(10,0,0,10,222,609.2)" />
<use xlink:href="#f0_1n" transform="matrix(10,0,0,10,236.9,609.2)" />
<use xlink:href="#f0_15" transform="matrix(10,0,0,10,252.2,609.2)" />
<use xlink:href="#f0_1i" transform="matrix(10,0,0,10,262.3,609.2)" />
<use xlink:href="#f0_15" transform="matrix(10,0,0,10,273.4,609.2)" />
<use xlink:href="#f0_1p" transform="matrix(10,0,0,10,348.6,609.2)" />
<use xlink:href="#f0_1f" transform="matrix(10,0,0,10,359.7,609.2)" />
<use xlink:href="#f0_1l" transform="matrix(10,0,0,10,371.6,609.2)" />
<use xlink:href="#f0_1n" transform="matrix(10,0,0,10,386.4,609.2)" />
<use xlink:href="#f0_15" transform="matrix(10,0,0,10,401.8,609.2)" />
<use xlink:href="#f0_1i" transform="matrix(10,0,0,10,412,609.2)" />
<use xlink:href="#f0_15" transform="matrix(10,0,0,10,423,609.2)" />
<use xlink:href="#f0_18" transform="matrix(10,0,0,10,199.1,662)" />
<use xlink:href="#f0_15" transform="matrix(10,0,0,10,211,662)" />
<use xlink:href="#f0_1n" transform="matrix(10,0,0,10,225,662)" />
<use xlink:href="#f0_11" transform="matrix(10,0,0,10,240.2,662)" />
<use xlink:href="#f0_1j" transform="matrix(10,0,0,10,251.3,662)" />
<use xlink:href="#f0_1k" transform="matrix(10,0,0,10,344.5,662)" />
<use xlink:href="#f0_18" transform="matrix(10,0,0,10,354.6,662)" />
<use xlink:href="#f0_15" transform="matrix(10,0,0,10,366.6,662)" />
<use xlink:href="#f0_1p" transform="matrix(10,0,0,10,376.8,662)" />
<use xlink:href="#f0_1n" transform="matrix(10,0,0,10,391.8,662)" />
<use xlink:href="#f0_15" transform="matrix(10,0,0,10,407.1,662)" />
<use xlink:href="#f0_1i" transform="matrix(10,0,0,10,417.2,662)" />
<use xlink:href="#f0_15" transform="matrix(10,0,0,10,428.2,662)" />
<use xlink:href="#f0_1j" transform="matrix(10,0,0,10,199.1,679.6)" />
<use xlink:href="#f0_18" transform="matrix(10,0,0,10,207.6,679.6)" />
<use xlink:href="#f0_15" transform="matrix(10,0,0,10,219.5,679.6)" />
<use xlink:href="#f0_1n" transform="matrix(10,0,0,10,233.6,679.6)" />
<use xlink:href="#f0_11" transform="matrix(10,0,0,10,248.8,679.6)" />
<use xlink:href="#f0_1j" transform="matrix(10,0,0,10,259.9,679.6)" />
<use xlink:href="#f0_19" transform="matrix(10,0,0,10,199.1,697.2)" />
<use xlink:href="#f0_1k" transform="matrix(10,0,0,10,205,697.2)" />
<use xlink:href="#f0_1n" transform="matrix(10,0,0,10,219.1,697.2)" />
<use xlink:href="#f0_11" transform="matrix(10,0,0,10,234.4,697.2)" />
<use xlink:href="#f0_1j" transform="matrix(10,0,0,10,245.4,697.2)" />
<use xlink:href="#f0_19" transform="matrix(10,0,0,10,477.3,556.6)" />
<use xlink:href="#f0_1n" transform="matrix(10,0,0,10,487.1,556.6)" />
<use xlink:href="#f0_11" transform="matrix(10,0,0,10,502.4,556.6)" />
<use xlink:href="#f0_1j" transform="matrix(10,0,0,10,513.5,556.6)" />
<use xlink:href="#f0_1e" transform="matrix(10,0,0,10,525.7,556.6)" />
<use xlink:href="#f0_1f" transform="matrix(10,0,0,10,536.8,556.6)" />
<use xlink:href="#f0_1k" transform="matrix(10,0,0,10,548.7,556.6)" />
<use xlink:href="#f0_1x" transform="matrix(10,0,0,10,562.6,556.6)" />
</g>
<path d="M562.7,559.6h7.6v-1.4h-7.6v1.4Z" class="g1_13"/>
<g fill="#000000" >
<use xlink:href="#f0_i" transform="matrix(10,0,0,10,570.3,556.5)" />
<use xlink:href="#f0_1n" transform="matrix(10,0,0,10,671.8,556.5)" />
<use xlink:href="#f0_15" transform="matrix(10,0,0,10,687.1,556.5)" />
<use xlink:href="#f0_1n" transform="matrix(10,0,0,10,701.1,556.5)" />
<use xlink:href="#f0_15" transform="matrix(10,0,0,10,716.5,556.5)" />
<use xlink:href="#f0_1i" transform="matrix(10,0,0,10,726.6,556.5)" />
<use xlink:href="#f0_15" transform="matrix(10,0,0,10,737.7,556.5)" />
<use xlink:href="#f0_1e" transform="matrix(10,0,0,10,751.7,556.5)" />
<use xlink:href="#f0_1f" transform="matrix(10,0,0,10,762.7,556.5)" />
<use xlink:href="#f0_1k" transform="matrix(10,0,0,10,774.6,556.5)" />
<use xlink:href="#f0_19" transform="matrix(10,0,0,10,477.3,574.1)" />
<use xlink:href="#f0_1n" transform="matrix(10,0,0,10,487.1,574.1)" />
<use xlink:href="#f0_11" transform="matrix(10,0,0,10,502.4,574.1)" />
<use xlink:href="#f0_1j" transform="matrix(10,0,0,10,513.4,574.1)" />
<use xlink:href="#f0_1e" transform="matrix(10,0,0,10,521.9,574.1)" />
<use xlink:href="#f0_b" transform="matrix(10,0,0,10,533,574.1)" />
<use xlink:href="#f0_1k" transform="matrix(10,0,0,10,537.2,574.1)" />
<use xlink:href="#f0_1n" transform="matrix(10,0,0,10,671.1,574.1)" />
<use xlink:href="#f0_15" transform="matrix(10,0,0,10,686.4,574.1)" />
<use xlink:href="#f0_1n" transform="matrix(10,0,0,10,700.5,574.1)" />
<use xlink:href="#f0_15" transform="matrix(10,0,0,10,715.8,574.1)" />
<use xlink:href="#f0_1i" transform="matrix(10,0,0,10,725.9,574.1)" />
<use xlink:href="#f0_15" transform="matrix(10,0,0,10,737,574.1)" />
<use xlink:href="#f0_1e" transform="matrix(10,0,0,10,747.1,574.1)" />
<use xlink:href="#f0_b" transform="matrix(10,0,0,10,758.2,574.1)" />
<use xlink:href="#f0_1k" transform="matrix(10,0,0,10,762.4,574.1)" />
<use xlink:href="#f0_1p" transform="matrix(10,0,0,10,477.3,609.2)" />
<use xlink:href="#f0_1f" transform="matrix(10,0,0,10,488.4,609.2)" />
<use xlink:href="#f0_1l" transform="matrix(10,0,0,10,500.2,609.2)" />
<use xlink:href="#f0_1n" transform="matrix(10,0,0,10,515.1,609.2)" />
<use xlink:href="#f0_15" transform="matrix(10,0,0,10,530.4,609.2)" />
<use xlink:href="#f0_1i" transform="matrix(10,0,0,10,540.5,609.2)" />
<use xlink:href="#f0_15" transform="matrix(10,0,0,10,551.6,609.2)" />
<use xlink:href="#f0_1e" transform="matrix(10,0,0,10,565.5,609.2)" />
<use xlink:href="#f0_1f" transform="matrix(10,0,0,10,576.6,609.2)" />
<use xlink:href="#f0_1k" transform="matrix(10,0,0,10,588.5,609.2)" />
<use xlink:href="#f0_1p" transform="matrix(10,0,0,10,676.8,609.2)" />
<use xlink:href="#f0_1f" transform="matrix(10,0,0,10,687.9,609.2)" />
<use xlink:href="#f0_1l" transform="matrix(10,0,0,10,699.8,609.2)" />
<use xlink:href="#f0_1n" transform="matrix(10,0,0,10,714.7,609.2)" />
<use xlink:href="#f0_15" transform="matrix(10,0,0,10,730,609.2)" />
<use xlink:href="#f0_1i" transform="matrix(10,0,0,10,740.1,609.2)" />
<use xlink:href="#f0_15" transform="matrix(10,0,0,10,751.1,609.2)" />
<use xlink:href="#f0_1e" transform="matrix(10,0,0,10,765.2,609.2)" />
<use xlink:href="#f0_1f" transform="matrix(10,0,0,10,776.2,609.2)" />
<use xlink:href="#f0_1k" transform="matrix(10,0,0,10,788.1,609.2)" />
<use xlink:href="#f0_1p" transform="matrix(10,0,0,10,477.3,626.8)" />
<use xlink:href="#f0_1f" transform="matrix(10,0,0,10,488.4,626.8)" />
<use xlink:href="#f0_1l" transform="matrix(10,0,0,10,500.2,626.8)" />
<use xlink:href="#f0_1n" transform="matrix(10,0,0,10,515.1,626.8)" />
<use xlink:href="#f0_15" transform="matrix(10,0,0,10,530.4,626.8)" />
<use xlink:href="#f0_1i" transform="matrix(10,0,0,10,540.5,626.8)" />
<use xlink:href="#f0_15" transform="matrix(10,0,0,10,551.6,626.8)" />
<use xlink:href="#f0_1e" transform="matrix(10,0,0,10,561.7,626.8)" />
<use xlink:href="#f0_b" transform="matrix(10,0,0,10,572.7,626.8)" />
<use xlink:href="#f0_1k" transform="matrix(10,0,0,10,577,626.8)" />
<use xlink:href="#f0_1p" transform="matrix(10,0,0,10,678.4,626.8)" />
<use xlink:href="#f0_1f" transform="matrix(10,0,0,10,689.5,626.8)" />
<use xlink:href="#f0_1l" transform="matrix(10,0,0,10,701.4,626.8)" />
<use xlink:href="#f0_1n" transform="matrix(10,0,0,10,716.2,626.8)" />
<use xlink:href="#f0_15" transform="matrix(10,0,0,10,731.5,626.8)" />
<use xlink:href="#f0_1i" transform="matrix(10,0,0,10,741.6,626.8)" />
<use xlink:href="#f0_15" transform="matrix(10,0,0,10,752.7,626.8)" />
<use xlink:href="#f0_1e" transform="matrix(10,0,0,10,762.9,626.8)" />
<use xlink:href="#f0_b" transform="matrix(10,0,0,10,774,626.8)" />
<use xlink:href="#f0_1k" transform="matrix(10,0,0,10,778.2,626.8)" />
<use xlink:href="#f0_18" transform="matrix(10,0,0,10,477.3,662)" />
<use xlink:href="#f0_15" transform="matrix(10,0,0,10,489.2,662)" />
<use xlink:href="#f0_1n" transform="matrix(10,0,0,10,503.2,662)" />
<use xlink:href="#f0_11" transform="matrix(10,0,0,10,518.5,662)" />
<use xlink:href="#f0_1j" transform="matrix(10,0,0,10,529.5,662)" />
<use xlink:href="#f0_1e" transform="matrix(10,0,0,10,541.8,662)" />
<use xlink:href="#f0_1f" transform="matrix(10,0,0,10,552.9,662)" />
<use xlink:href="#f0_1k" transform="matrix(10,0,0,10,564.7,662)" />
<use xlink:href="#f0_1k" transform="matrix(10,0,0,10,666.2,662)" />
<use xlink:href="#f0_18" transform="matrix(10,0,0,10,676.3,662)" />
<use xlink:href="#f0_15" transform="matrix(10,0,0,10,688.2,662)" />
<use xlink:href="#f0_1p" transform="matrix(10,0,0,10,698.4,662)" />
<use xlink:href="#f0_1n" transform="matrix(10,0,0,10,713.3,662)" />
<use xlink:href="#f0_15" transform="matrix(10,0,0,10,728.7,662)" />
<use xlink:href="#f0_1i" transform="matrix(10,0,0,10,738.7,662)" />
<use xlink:href="#f0_15" transform="matrix(10,0,0,10,749.8,662)" />
<use xlink:href="#f0_1e" transform="matrix(10,0,0,10,763.8,662)" />
<use xlink:href="#f0_1f" transform="matrix(10,0,0,10,774.8,662)" />
<use xlink:href="#f0_1k" transform="matrix(10,0,0,10,786.7,662)" />
<use xlink:href="#f0_18" transform="matrix(10,0,0,10,477.3,679.6)" />
<use xlink:href="#f0_15" transform="matrix(10,0,0,10,489.2,679.6)" />
<use xlink:href="#f0_1n" transform="matrix(10,0,0,10,503.2,679.6)" />
<use xlink:href="#f0_11" transform="matrix(10,0,0,10,518.5,679.6)" />
<use xlink:href="#f0_1j" transform="matrix(10,0,0,10,529.5,679.6)" />
<use xlink:href="#f0_1e" transform="matrix(10,0,0,10,538.1,679.6)" />
<use xlink:href="#f0_b" transform="matrix(10,0,0,10,549.1,679.6)" />
<use xlink:href="#f0_1k" transform="matrix(10,0,0,10,553.4,679.6)" />
<use xlink:href="#f0_1k" transform="matrix(10,0,0,10,667.7,679.6)" />
<use xlink:href="#f0_18" transform="matrix(10,0,0,10,677.9,679.6)" />
<use xlink:href="#f0_15" transform="matrix(10,0,0,10,689.8,679.6)" />
<use xlink:href="#f0_1p" transform="matrix(10,0,0,10,700,679.6)" />
<use xlink:href="#f0_1n" transform="matrix(10,0,0,10,714.9,679.6)" />
<use xlink:href="#f0_15" transform="matrix(10,0,0,10,730.2,679.6)" />
<use xlink:href="#f0_1i" transform="matrix(10,0,0,10,740.3,679.6)" />
<use xlink:href="#f0_15" transform="matrix(10,0,0,10,751.3,679.6)" />
<use xlink:href="#f0_1e" transform="matrix(10,0,0,10,761.5,679.6)" />
<use xlink:href="#f0_b" transform="matrix(10,0,0,10,772.5,679.6)" />
<use xlink:href="#f0_1k" transform="matrix(10,0,0,10,776.8,679.6)" />
<use xlink:href="#f0_1j" transform="matrix(10,0,0,10,503.3,697.2)" />
<use xlink:href="#f0_18" transform="matrix(10,0,0,10,511.8,697.2)" />
<use xlink:href="#f0_15" transform="matrix(10,0,0,10,523.7,697.2)" />
<use xlink:href="#f0_1n" transform="matrix(10,0,0,10,537.8,697.2)" />
<use xlink:href="#f0_11" transform="matrix(10,0,0,10,553.1,697.2)" />
<use xlink:href="#f0_1j" transform="matrix(10,0,0,10,564.1,697.2)" />
<use xlink:href="#f0_1e" transform="matrix(10,0,0,10,576.4,697.2)" />
<use xlink:href="#f0_1f" transform="matrix(10,0,0,10,587.5,697.2)" />
<use xlink:href="#f0_1k" transform="matrix(10,0,0,10,599.4,697.2)" />
<use xlink:href="#f0_1j" transform="matrix(10,0,0,10,503.3,714.7)" />
<use xlink:href="#f0_18" transform="matrix(10,0,0,10,511.8,714.7)" />
<use xlink:href="#f0_15" transform="matrix(10,0,0,10,523.7,714.7)" />
<use xlink:href="#f0_1n" transform="matrix(10,0,0,10,537.8,714.7)" />
<use xlink:href="#f0_11" transform="matrix(10,0,0,10,553.1,714.7)" />
<use xlink:href="#f0_1j" transform="matrix(10,0,0,10,564.1,714.7)" />
<use xlink:href="#f0_1e" transform="matrix(10,0,0,10,572.6,714.7)" />
<use xlink:href="#f0_b" transform="matrix(10,0,0,10,583.6,714.7)" />
<use xlink:href="#f0_1k" transform="matrix(10,0,0,10,587.9,714.7)" />
<use xlink:href="#f0_19" transform="matrix(10,0,0,10,477.3,732.3)" />
<use xlink:href="#f0_1k" transform="matrix(10,0,0,10,483.3,732.3)" />
<use xlink:href="#f0_1n" transform="matrix(10,0,0,10,497.3,732.3)" />
<use xlink:href="#f0_11" transform="matrix(10,0,0,10,512.6,732.3)" />
<use xlink:href="#f0_1j" transform="matrix(10,0,0,10,523.7,732.3)" />
<use xlink:href="#f0_1e" transform="matrix(10,0,0,10,536,732.3)" />
<use xlink:href="#f0_1f" transform="matrix(10,0,0,10,547,732.3)" />
<use xlink:href="#f0_1k" transform="matrix(10,0,0,10,558.9,732.3)" />
<use xlink:href="#f0_19" transform="matrix(10,0,0,10,477.3,749.9)" />
<use xlink:href="#f0_1k" transform="matrix(10,0,0,10,483.3,749.9)" />
<use xlink:href="#f0_1n" transform="matrix(10,0,0,10,497.3,749.9)" />
<use xlink:href="#f0_11" transform="matrix(10,0,0,10,512.6,749.9)" />
<use xlink:href="#f0_1j" transform="matrix(10,0,0,10,523.6,749.9)" />
<use xlink:href="#f0_1e" transform="matrix(10,0,0,10,532.1,749.9)" />
<use xlink:href="#f0_b" transform="matrix(10,0,0,10,543.2,749.9)" />
<use xlink:href="#f0_1k" transform="matrix(10,0,0,10,547.4,749.9)" />
</g>
<path d="M78.6,529.8h1.3v-1.3H78.6v1.3Z" class="g1_13"/>
<path d="M76.1,529.8h1.3v-1.3H76.1v1.3Z" class="g1_13"/>
<path d="M79.9,529.8H832.2v-1.3H79.9v1.3Z" class="g1_13"/>
<path d="M834.8,529.8h1.3v-1.3h-1.3v1.3Z" class="g1_13"/>
<path d="M832.2,529.8h1.3v-1.3h-1.3v1.3Z" class="g1_13"/>
<path d="M78.6,770.7h1.3V529.8H78.6V770.7Z" class="g1_13"/>
<path d="M76.1,770.7h1.3V529.8H76.1V770.7Z" class="g1_13"/>
<path d="M187.4,770.7h1.2V529.8h-1.2V770.7Z" class="g1_13"/>
<path d="M465.7,770.7h1.2V529.8h-1.2V770.7Z" class="g1_13"/>
<path d="M834.8,770.7h1.3V529.8h-1.3V770.7Z" class="g1_13"/>
<path d="M832.2,770.7h1.3V529.8h-1.3V770.7Z" class="g1_13"/>
<path d="M79.9,1017.3H187.5V772H79.9v245.3Z" class="g0_13"/>
<path d="M89.1,784.5h87.8V772H89.1v12.5Z" class="g0_13"/>
<path d="M89.1,801.8h87.8V784.5H89.1v17.3Z" class="g0_13"/>
<path d="M89.1,819.1h87.8V801.8H89.1v17.3Z" class="g0_13"/>
<path d="M89.1,836.4h87.8V819.1H89.1v17.3Z" class="g0_13"/>
<path d="M89.1,853.7h87.8V836.4H89.1v17.3Z" class="g0_13"/>
<path d="M89.1,871h87.8V853.7H89.1V871Z" class="g0_13"/>
<path d="M89.1,893h87.8V871H89.1v22Z" class="g0_13"/>
<g fill="#000000" >
<use xlink:href="#f0_16" transform="matrix(10,0,0,10,101.6,885.2)" />
<use xlink:href="#f0_1l" transform="matrix(10,0,0,10,110.9,885.2)" />
<use xlink:href="#f0_1k" transform="matrix(10,0,0,10,122,885.2)" />
<use xlink:href="#f0_1l" transform="matrix(10,0,0,10,132.2,885.2)" />
<use xlink:href="#f0_1i" transform="matrix(10,0,0,10,143.2,885.2)" />
<use xlink:href="#f0_15" transform="matrix(10,0,0,10,154.3,885.2)" />
<use xlink:href="#f0_19" transform="matrix(10,0,0,10,199.1,798.7)" />
<use xlink:href="#f0_1n" transform="matrix(10,0,0,10,208.9,798.7)" />
<use xlink:href="#f0_19" transform="matrix(10,0,0,10,224.2,798.7)" />
<use xlink:href="#f0_1c" transform="matrix(10,0,0,10,230.1,798.7)" />
<use xlink:href="#f0_1c" transform="matrix(10,0,0,10,240.3,798.7)" />
<use xlink:href="#f0_12" transform="matrix(10,0,0,10,254.3,798.7)" />
<use xlink:href="#f0_15" transform="matrix(10,0,0,10,264.5,798.7)" />
<use xlink:href="#f0_1x" transform="matrix(10,0,0,10,278.5,798.7)" />
</g>
<path d="M278.5,801.8h7.7v-1.5h-7.7v1.5Z" class="g1_13"/>
<g fill="#000000" >
<use xlink:href="#f0_i" transform="matrix(10,0,0,10,286.2,798.7)" />
<use xlink:href="#f0_1n" transform="matrix(10,0,0,10,335.5,798.7)" />
<use xlink:href="#f0_15" transform="matrix(10,0,0,10,350.8,798.7)" />
<use xlink:href="#f0_1n" transform="matrix(10,0,0,10,364.8,798.7)" />
<use xlink:href="#f0_19" transform="matrix(10,0,0,10,380.1,798.7)" />
<use xlink:href="#f0_1c" transform="matrix(10,0,0,10,386.1,798.7)" />
<use xlink:href="#f0_1c" transform="matrix(10,0,0,10,396.2,798.7)" />
<use xlink:href="#f0_12" transform="matrix(10,0,0,10,410.3,798.7)" />
<use xlink:href="#f0_15" transform="matrix(10,0,0,10,420.4,798.7)" />
<use xlink:href="#f0_19" transform="matrix(10,0,0,10,199.1,816.3)" />
<use xlink:href="#f0_b" transform="matrix(10,0,0,10,205,816.3)" />
<use xlink:href="#f0_1c" transform="matrix(10,0,0,10,209.2,816.3)" />
<use xlink:href="#f0_1c" transform="matrix(10,0,0,10,219.4,816.3)" />
<use xlink:href="#f0_12" transform="matrix(10,0,0,10,233.4,816.3)" />
<use xlink:href="#f0_15" transform="matrix(10,0,0,10,243.6,816.3)" />
<use xlink:href="#f0_1n" transform="matrix(10,0,0,10,332,816.3)" />
<use xlink:href="#f0_15" transform="matrix(10,0,0,10,347.3,816.3)" />
<use xlink:href="#f0_b" transform="matrix(10,0,0,10,357.4,816.3)" />
<use xlink:href="#f0_1c" transform="matrix(10,0,0,10,361.7,816.3)" />
<use xlink:href="#f0_1c" transform="matrix(10,0,0,10,371.9,816.3)" />
<use xlink:href="#f0_12" transform="matrix(10,0,0,10,386,816.3)" />
<use xlink:href="#f0_15" transform="matrix(10,0,0,10,396.1,816.3)" />
<use xlink:href="#f0_1p" transform="matrix(10,0,0,10,199.1,851.4)" />
<use xlink:href="#f0_1f" transform="matrix(10,0,0,10,210.1,851.4)" />
<use xlink:href="#f0_1l" transform="matrix(10,0,0,10,222,851.4)" />
<use xlink:href="#f0_1n" transform="matrix(10,0,0,10,236.9,851.4)" />
<use xlink:href="#f0_19" transform="matrix(10,0,0,10,252.2,851.4)" />
<use xlink:href="#f0_1c" transform="matrix(10,0,0,10,258.2,851.4)" />
<use xlink:href="#f0_1c" transform="matrix(10,0,0,10,268.4,851.4)" />
<use xlink:href="#f0_12" transform="matrix(10,0,0,10,282.4,851.4)" />
<use xlink:href="#f0_15" transform="matrix(10,0,0,10,292.5,851.4)" />
<use xlink:href="#f0_1p" transform="matrix(10,0,0,10,341.7,851.4)" />
<use xlink:href="#f0_1f" transform="matrix(10,0,0,10,352.8,851.4)" />
<use xlink:href="#f0_1l" transform="matrix(10,0,0,10,364.7,851.4)" />
<use xlink:href="#f0_1n" transform="matrix(10,0,0,10,379.5,851.4)" />
<use xlink:href="#f0_19" transform="matrix(10,0,0,10,394.8,851.4)" />
<use xlink:href="#f0_1c" transform="matrix(10,0,0,10,400.7,851.4)" />
<use xlink:href="#f0_1c" transform="matrix(10,0,0,10,410.9,851.4)" />
<use xlink:href="#f0_12" transform="matrix(10,0,0,10,425,851.4)" />
<use xlink:href="#f0_15" transform="matrix(10,0,0,10,435.2,851.4)" />
<use xlink:href="#f0_1p" transform="matrix(10,0,0,10,199.1,869)" />
<use xlink:href="#f0_1f" transform="matrix(10,0,0,10,210.1,869)" />
<use xlink:href="#f0_1l" transform="matrix(10,0,0,10,222,869)" />
<use xlink:href="#f0_b" transform="matrix(10,0,0,10,233,869)" />
<use xlink:href="#f0_1c" transform="matrix(10,0,0,10,237.3,869)" />
<use xlink:href="#f0_1c" transform="matrix(10,0,0,10,247.5,869)" />
<use xlink:href="#f0_12" transform="matrix(10,0,0,10,261.5,869)" />
<use xlink:href="#f0_15" transform="matrix(10,0,0,10,271.7,869)" />
<use xlink:href="#f0_1p" transform="matrix(10,0,0,10,340.4,869)" />
<use xlink:href="#f0_1f" transform="matrix(10,0,0,10,351.5,869)" />
<use xlink:href="#f0_1l" transform="matrix(10,0,0,10,363.4,869)" />
<use xlink:href="#f0_b" transform="matrix(10,0,0,10,374.4,869)" />
<use xlink:href="#f0_1c" transform="matrix(10,0,0,10,378.6,869)" />
<use xlink:href="#f0_1c" transform="matrix(10,0,0,10,388.8,869)" />
<use xlink:href="#f0_12" transform="matrix(10,0,0,10,402.9,869)" />
<use xlink:href="#f0_15" transform="matrix(10,0,0,10,413,869)" />
<use xlink:href="#f0_18" transform="matrix(10,0,0,10,199.1,904.1)" />
<use xlink:href="#f0_15" transform="matrix(10,0,0,10,211,904.1)" />
<use xlink:href="#f0_1n" transform="matrix(10,0,0,10,225,904.1)" />
<use xlink:href="#f0_19" transform="matrix(10,0,0,10,240.3,904.1)" />
<use xlink:href="#f0_1c" transform="matrix(10,0,0,10,246.3,904.1)" />
<use xlink:href="#f0_1c" transform="matrix(10,0,0,10,256.4,904.1)" />
<use xlink:href="#f0_12" transform="matrix(10,0,0,10,270.5,904.1)" />
<use xlink:href="#f0_15" transform="matrix(10,0,0,10,280.7,904.1)" />
<use xlink:href="#f0_1k" transform="matrix(10,0,0,10,329.8,904.1)" />
<use xlink:href="#f0_18" transform="matrix(10,0,0,10,340,904.1)" />
<use xlink:href="#f0_15" transform="matrix(10,0,0,10,351.9,904.1)" />
<use xlink:href="#f0_1p" transform="matrix(10,0,0,10,362.1,904.1)" />
<use xlink:href="#f0_1n" transform="matrix(10,0,0,10,377,904.1)" />
<use xlink:href="#f0_19" transform="matrix(10,0,0,10,392.3,904.1)" />
<use xlink:href="#f0_1c" transform="matrix(10,0,0,10,398.2,904.1)" />
<use xlink:href="#f0_1c" transform="matrix(10,0,0,10,408.4,904.1)" />
<use xlink:href="#f0_12" transform="matrix(10,0,0,10,422.4,904.1)" />
<use xlink:href="#f0_15" transform="matrix(10,0,0,10,432.6,904.1)" />
<use xlink:href="#f0_18" transform="matrix(10,0,0,10,199.1,921.6)" />
<use xlink:href="#f0_15" transform="matrix(10,0,0,10,211,921.6)" />
<use xlink:href="#f0_b" transform="matrix(10,0,0,10,221.2,921.6)" />
<use xlink:href="#f0_1c" transform="matrix(10,0,0,10,225.4,921.6)" />
<use xlink:href="#f0_1c" transform="matrix(10,0,0,10,235.6,921.6)" />
<use xlink:href="#f0_12" transform="matrix(10,0,0,10,249.6,921.6)" />
<use xlink:href="#f0_15" transform="matrix(10,0,0,10,259.8,921.6)" />
<use xlink:href="#f0_1k" transform="matrix(10,0,0,10,328.6,921.6)" />
<use xlink:href="#f0_18" transform="matrix(10,0,0,10,338.8,921.6)" />
<use xlink:href="#f0_15" transform="matrix(10,0,0,10,350.7,921.6)" />
<use xlink:href="#f0_1p" transform="matrix(10,0,0,10,360.9,921.6)" />
<use xlink:href="#f0_b" transform="matrix(10,0,0,10,371.9,921.6)" />
<use xlink:href="#f0_1c" transform="matrix(10,0,0,10,376.1,921.6)" />
<use xlink:href="#f0_1c" transform="matrix(10,0,0,10,386.3,921.6)" />
<use xlink:href="#f0_12" transform="matrix(10,0,0,10,400.3,921.6)" />
<use xlink:href="#f0_15" transform="matrix(10,0,0,10,410.5,921.6)" />
<use xlink:href="#f0_1j" transform="matrix(10,0,0,10,225.1,939.3)" />
<use xlink:href="#f0_18" transform="matrix(10,0,0,10,233.6,939.3)" />
<use xlink:href="#f0_15" transform="matrix(10,0,0,10,245.5,939.3)" />
<use xlink:href="#f0_1n" transform="matrix(10,0,0,10,259.6,939.3)" />
<use xlink:href="#f0_19" transform="matrix(10,0,0,10,274.9,939.3)" />
<use xlink:href="#f0_1c" transform="matrix(10,0,0,10,280.8,939.3)" />
<use xlink:href="#f0_1c" transform="matrix(10,0,0,10,290.9,939.3)" />
<use xlink:href="#f0_12" transform="matrix(10,0,0,10,304.9,939.3)" />
<use xlink:href="#f0_15" transform="matrix(10,0,0,10,315.1,939.3)" />
<use xlink:href="#f0_1j" transform="matrix(10,0,0,10,225.1,956.9)" />
<use xlink:href="#f0_18" transform="matrix(10,0,0,10,233.6,956.9)" />
<use xlink:href="#f0_15" transform="matrix(10,0,0,10,245.5,956.9)" />
<use xlink:href="#f0_b" transform="matrix(10,0,0,10,255.7,956.9)" />
<use xlink:href="#f0_1c" transform="matrix(10,0,0,10,259.9,956.9)" />
<use xlink:href="#f0_1c" transform="matrix(10,0,0,10,270.1,956.9)" />
<use xlink:href="#f0_12" transform="matrix(10,0,0,10,284.1,956.9)" />
<use xlink:href="#f0_15" transform="matrix(10,0,0,10,294.3,956.9)" />
<use xlink:href="#f0_19" transform="matrix(10,0,0,10,199.1,974.4)" />
<use xlink:href="#f0_1k" transform="matrix(10,0,0,10,205,974.4)" />
<use xlink:href="#f0_1n" transform="matrix(10,0,0,10,219.1,974.4)" />
<use xlink:href="#f0_19" transform="matrix(10,0,0,10,234.4,974.4)" />
<use xlink:href="#f0_1c" transform="matrix(10,0,0,10,240.3,974.4)" />
<use xlink:href="#f0_1c" transform="matrix(10,0,0,10,250.5,974.4)" />
<use xlink:href="#f0_12" transform="matrix(10,0,0,10,264.5,974.4)" />
<use xlink:href="#f0_15" transform="matrix(10,0,0,10,274.7,974.4)" />
<use xlink:href="#f0_19" transform="matrix(10,0,0,10,199.1,992)" />
<use xlink:href="#f0_1k" transform="matrix(10,0,0,10,205,992)" />
<use xlink:href="#f0_b" transform="matrix(10,0,0,10,215.2,992)" />
<use xlink:href="#f0_1c" transform="matrix(10,0,0,10,219.4,992)" />
<use xlink:href="#f0_1c" transform="matrix(10,0,0,10,229.6,992)" />
<use xlink:href="#f0_12" transform="matrix(10,0,0,10,243.6,992)" />
<use xlink:href="#f0_15" transform="matrix(10,0,0,10,253.8,992)" />
<use xlink:href="#f0_19" transform="matrix(10,0,0,10,477.3,798.7)" />
<use xlink:href="#f0_1n" transform="matrix(10,0,0,10,487.1,798.7)" />
<use xlink:href="#f0_19" transform="matrix(10,0,0,10,502.4,798.7)" />
<use xlink:href="#f0_1c" transform="matrix(10,0,0,10,508.3,798.7)" />
<use xlink:href="#f0_1c" transform="matrix(10,0,0,10,518.5,798.7)" />
<use xlink:href="#f0_1e" transform="matrix(10,0,0,10,532.5,798.7)" />
<use xlink:href="#f0_1f" transform="matrix(10,0,0,10,543.5,798.7)" />
<use xlink:href="#f0_1k" transform="matrix(10,0,0,10,555.4,798.7)" />
<use xlink:href="#f0_12" transform="matrix(10,0,0,10,569.3,798.7)" />
<use xlink:href="#f0_15" transform="matrix(10,0,0,10,579.5,798.7)" />
<use xlink:href="#f0_1x" transform="matrix(10,0,0,10,593.6,798.7)" />
</g>
<path d="M593.6,801.8h7.7v-1.5h-7.7v1.5Z" class="g1_13"/>
<g fill="#000000" >
<use xlink:href="#f0_i" transform="matrix(10,0,0,10,601.3,798.7)" />
<use xlink:href="#f0_1n" transform="matrix(10,0,0,10,663.7,798.7)" />
<use xlink:href="#f0_15" transform="matrix(10,0,0,10,679,798.7)" />
<use xlink:href="#f0_1n" transform="matrix(10,0,0,10,693,798.7)" />
<use xlink:href="#f0_19" transform="matrix(10,0,0,10,708.3,798.7)" />
<use xlink:href="#f0_1c" transform="matrix(10,0,0,10,714.3,798.7)" />
<use xlink:href="#f0_1c" transform="matrix(10,0,0,10,724.5,798.7)" />
<use xlink:href="#f0_1e" transform="matrix(10,0,0,10,738.4,798.7)" />
<use xlink:href="#f0_1f" transform="matrix(10,0,0,10,749.4,798.7)" />
<use xlink:href="#f0_1k" transform="matrix(10,0,0,10,761.3,798.7)" />
<use xlink:href="#f0_12" transform="matrix(10,0,0,10,775.4,798.7)" />
<use xlink:href="#f0_15" transform="matrix(10,0,0,10,785.6,798.7)" />
<use xlink:href="#f0_19" transform="matrix(10,0,0,10,477.3,816.3)" />
<use xlink:href="#f0_1n" transform="matrix(10,0,0,10,487.1,816.3)" />
<use xlink:href="#f0_1f" transform="matrix(10,0,0,10,502.4,816.3)" />
<use xlink:href="#f0_1e" transform="matrix(10,0,0,10,514.3,816.3)" />
<use xlink:href="#f0_b" transform="matrix(10,0,0,10,525.3,816.3)" />
<use xlink:href="#f0_1k" transform="matrix(10,0,0,10,529.5,816.3)" />
<use xlink:href="#f0_12" transform="matrix(10,0,0,10,543.5,816.3)" />
<use xlink:href="#f0_15" transform="matrix(10,0,0,10,553.7,816.3)" />
<use xlink:href="#f0_1n" transform="matrix(10,0,0,10,661.7,816.3)" />
<use xlink:href="#f0_15" transform="matrix(10,0,0,10,677,816.3)" />
<use xlink:href="#f0_1n" transform="matrix(10,0,0,10,691,816.3)" />
<use xlink:href="#f0_1f" transform="matrix(10,0,0,10,706.3,816.3)" />
<use xlink:href="#f0_1e" transform="matrix(10,0,0,10,718.2,816.3)" />
<use xlink:href="#f0_b" transform="matrix(10,0,0,10,729.2,816.3)" />
<use xlink:href="#f0_1k" transform="matrix(10,0,0,10,733.5,816.3)" />
<use xlink:href="#f0_12" transform="matrix(10,0,0,10,747.4,816.3)" />
<use xlink:href="#f0_15" transform="matrix(10,0,0,10,757.6,816.3)" />
<use xlink:href="#f0_1p" transform="matrix(10,0,0,10,477.3,851.4)" />
<use xlink:href="#f0_1f" transform="matrix(10,0,0,10,488.3,851.4)" />
<use xlink:href="#f0_1l" transform="matrix(10,0,0,10,500.2,851.4)" />
<use xlink:href="#f0_1n" transform="matrix(10,0,0,10,515.1,851.4)" />
<use xlink:href="#f0_19" transform="matrix(10,0,0,10,530.4,851.4)" />
<use xlink:href="#f0_1c" transform="matrix(10,0,0,10,536.4,851.4)" />
<use xlink:href="#f0_1c" transform="matrix(10,0,0,10,546.6,851.4)" />
<use xlink:href="#f0_1e" transform="matrix(10,0,0,10,560.5,851.4)" />
<use xlink:href="#f0_1f" transform="matrix(10,0,0,10,571.6,851.4)" />
<use xlink:href="#f0_1k" transform="matrix(10,0,0,10,583.5,851.4)" />
<use xlink:href="#f0_12" transform="matrix(10,0,0,10,597.5,851.4)" />
<use xlink:href="#f0_15" transform="matrix(10,0,0,10,607.7,851.4)" />
<use xlink:href="#f0_1p" transform="matrix(10,0,0,10,663.5,851.4)" />
<use xlink:href="#f0_1f" transform="matrix(10,0,0,10,674.5,851.4)" />
<use xlink:href="#f0_1l" transform="matrix(10,0,0,10,686.4,851.4)" />
<use xlink:href="#f0_1n" transform="matrix(10,0,0,10,701.3,851.4)" />
<use xlink:href="#f0_19" transform="matrix(10,0,0,10,716.6,851.4)" />
<use xlink:href="#f0_1c" transform="matrix(10,0,0,10,722.6,851.4)" />
<use xlink:href="#f0_1c" transform="matrix(10,0,0,10,732.8,851.4)" />
<use xlink:href="#f0_1e" transform="matrix(10,0,0,10,746.7,851.4)" />
<use xlink:href="#f0_1f" transform="matrix(10,0,0,10,757.7,851.4)" />
<use xlink:href="#f0_1k" transform="matrix(10,0,0,10,769.6,851.4)" />
<use xlink:href="#f0_12" transform="matrix(10,0,0,10,783.6,851.4)" />
<use xlink:href="#f0_15" transform="matrix(10,0,0,10,793.8,851.4)" />
<use xlink:href="#f0_1p" transform="matrix(10,0,0,10,477.3,869)" />
<use xlink:href="#f0_1f" transform="matrix(10,0,0,10,488.4,869)" />
<use xlink:href="#f0_1l" transform="matrix(10,0,0,10,500.2,869)" />
<use xlink:href="#f0_1n" transform="matrix(10,0,0,10,515.1,869)" />
<use xlink:href="#f0_1f" transform="matrix(10,0,0,10,530.3,869)" />
<use xlink:href="#f0_1e" transform="matrix(10,0,0,10,542.2,869)" />
<use xlink:href="#f0_b" transform="matrix(10,0,0,10,553.3,869)" />
<use xlink:href="#f0_1k" transform="matrix(10,0,0,10,557.5,869)" />
<use xlink:href="#f0_12" transform="matrix(10,0,0,10,571.5,869)" />
<use xlink:href="#f0_15" transform="matrix(10,0,0,10,581.7,869)" />
<use xlink:href="#f0_1p" transform="matrix(10,0,0,10,663.6,869)" />
<use xlink:href="#f0_1f" transform="matrix(10,0,0,10,674.6,869)" />
<use xlink:href="#f0_1l" transform="matrix(10,0,0,10,686.4,869)" />
<use xlink:href="#f0_1n" transform="matrix(10,0,0,10,701.3,869)" />
<use xlink:href="#f0_1f" transform="matrix(10,0,0,10,716.6,869)" />
<use xlink:href="#f0_1e" transform="matrix(10,0,0,10,728.5,869)" />
<use xlink:href="#f0_b" transform="matrix(10,0,0,10,739.5,869)" />
<use xlink:href="#f0_1k" transform="matrix(10,0,0,10,743.7,869)" />
<use xlink:href="#f0_12" transform="matrix(10,0,0,10,757.7,869)" />
<use xlink:href="#f0_15" transform="matrix(10,0,0,10,767.9,869)" />
<use xlink:href="#f0_18" transform="matrix(10,0,0,10,477.3,904.1)" />
<use xlink:href="#f0_15" transform="matrix(10,0,0,10,489.2,904.1)" />
<use xlink:href="#f0_1n" transform="matrix(10,0,0,10,503.2,904.1)" />
<use xlink:href="#f0_19" transform="matrix(10,0,0,10,518.5,904.1)" />
<use xlink:href="#f0_1c" transform="matrix(10,0,0,10,524.5,904.1)" />
<use xlink:href="#f0_1c" transform="matrix(10,0,0,10,534.7,904.1)" />
<use xlink:href="#f0_1e" transform="matrix(10,0,0,10,548.6,904.1)" />
<use xlink:href="#f0_1f" transform="matrix(10,0,0,10,559.7,904.1)" />
<use xlink:href="#f0_1k" transform="matrix(10,0,0,10,571.6,904.1)" />
<use xlink:href="#f0_12" transform="matrix(10,0,0,10,585.6,904.1)" />
<use xlink:href="#f0_15" transform="matrix(10,0,0,10,595.8,904.1)" />
<use xlink:href="#f0_1k" transform="matrix(10,0,0,10,658.1,904.1)" />
<use xlink:href="#f0_18" transform="matrix(10,0,0,10,668.3,904.1)" />
<use xlink:href="#f0_15" transform="matrix(10,0,0,10,680.2,904.1)" />
<use xlink:href="#f0_1p" transform="matrix(10,0,0,10,690.4,904.1)" />
<use xlink:href="#f0_1n" transform="matrix(10,0,0,10,705.3,904.1)" />
<use xlink:href="#f0_19" transform="matrix(10,0,0,10,720.6,904.1)" />
<use xlink:href="#f0_1c" transform="matrix(10,0,0,10,726.6,904.1)" />
<use xlink:href="#f0_1c" transform="matrix(10,0,0,10,736.6,904.1)" />
<use xlink:href="#f0_1e" transform="matrix(10,0,0,10,750.7,904.1)" />
<use xlink:href="#f0_1f" transform="matrix(10,0,0,10,761.7,904.1)" />
<use xlink:href="#f0_1k" transform="matrix(10,0,0,10,773.6,904.1)" />
<use xlink:href="#f0_12" transform="matrix(10,0,0,10,787.6,904.1)" />
<use xlink:href="#f0_15" transform="matrix(10,0,0,10,797.8,904.1)" />
<use xlink:href="#f0_18" transform="matrix(10,0,0,10,477.3,921.6)" />
<use xlink:href="#f0_15" transform="matrix(10,0,0,10,489.2,921.6)" />
<use xlink:href="#f0_1n" transform="matrix(10,0,0,10,503.2,921.6)" />
<use xlink:href="#f0_1f" transform="matrix(10,0,0,10,518.5,921.6)" />
<use xlink:href="#f0_1e" transform="matrix(10,0,0,10,530.4,921.6)" />
<use xlink:href="#f0_b" transform="matrix(10,0,0,10,541.4,921.6)" />
<use xlink:href="#f0_1k" transform="matrix(10,0,0,10,545.7,921.6)" />
<use xlink:href="#f0_12" transform="matrix(10,0,0,10,559.7,921.6)" />
<use xlink:href="#f0_15" transform="matrix(10,0,0,10,569.8,921.6)" />
<use xlink:href="#f0_1k" transform="matrix(10,0,0,10,651.6,921.6)" />
<use xlink:href="#f0_18" transform="matrix(10,0,0,10,661.9,921.6)" />
<use xlink:href="#f0_15" transform="matrix(10,0,0,10,673.8,921.6)" />
<use xlink:href="#f0_1p" transform="matrix(10,0,0,10,684,921.6)" />
<use xlink:href="#f0_1n" transform="matrix(10,0,0,10,698.8,921.6)" />
<use xlink:href="#f0_1f" transform="matrix(10,0,0,10,714.1,921.6)" />
<use xlink:href="#f0_1e" transform="matrix(10,0,0,10,725.9,921.6)" />
<use xlink:href="#f0_b" transform="matrix(10,0,0,10,737,921.6)" />
<use xlink:href="#f0_1k" transform="matrix(10,0,0,10,741.2,921.6)" />
<use xlink:href="#f0_12" transform="matrix(10,0,0,10,755.2,921.6)" />
<use xlink:href="#f0_15" transform="matrix(10,0,0,10,765.4,921.6)" />
<use xlink:href="#f0_1j" transform="matrix(10,0,0,10,503.3,939.3)" />
<use xlink:href="#f0_18" transform="matrix(10,0,0,10,511.8,939.3)" />
<use xlink:href="#f0_15" transform="matrix(10,0,0,10,523.7,939.3)" />
<use xlink:href="#f0_1n" transform="matrix(10,0,0,10,537.8,939.3)" />
<use xlink:href="#f0_19" transform="matrix(10,0,0,10,553.1,939.3)" />
<use xlink:href="#f0_1c" transform="matrix(10,0,0,10,559,939.3)" />
<use xlink:href="#f0_1c" transform="matrix(10,0,0,10,569.1,939.3)" />
<use xlink:href="#f0_1e" transform="matrix(10,0,0,10,583.1,939.3)" />
<use xlink:href="#f0_1f" transform="matrix(10,0,0,10,594.2,939.3)" />
<use xlink:href="#f0_1k" transform="matrix(10,0,0,10,606.1,939.3)" />
<use xlink:href="#f0_12" transform="matrix(10,0,0,10,620.1,939.3)" />
<use xlink:href="#f0_15" transform="matrix(10,0,0,10,630.3,939.3)" />
<use xlink:href="#f0_1j" transform="matrix(10,0,0,10,503.3,956.9)" />
<use xlink:href="#f0_18" transform="matrix(10,0,0,10,511.8,956.9)" />
<use xlink:href="#f0_15" transform="matrix(10,0,0,10,523.7,956.9)" />
<use xlink:href="#f0_1n" transform="matrix(10,0,0,10,537.7,956.9)" />
<use xlink:href="#f0_1f" transform="matrix(10,0,0,10,553,956.9)" />
<use xlink:href="#f0_1e" transform="matrix(10,0,0,10,564.9,956.9)" />
<use xlink:href="#f0_b" transform="matrix(10,0,0,10,575.9,956.9)" />
<use xlink:href="#f0_1k" transform="matrix(10,0,0,10,580.2,956.9)" />
<use xlink:href="#f0_12" transform="matrix(10,0,0,10,594.2,956.9)" />
<use xlink:href="#f0_15" transform="matrix(10,0,0,10,604.4,956.9)" />
<use xlink:href="#f0_19" transform="matrix(10,0,0,10,477.3,974.4)" />
<use xlink:href="#f0_1k" transform="matrix(10,0,0,10,483.2,974.4)" />
<use xlink:href="#f0_1n" transform="matrix(10,0,0,10,497.3,974.4)" />
<use xlink:href="#f0_19" transform="matrix(10,0,0,10,512.5,974.4)" />
<use xlink:href="#f0_1c" transform="matrix(10,0,0,10,518.5,974.4)" />
<use xlink:href="#f0_1c" transform="matrix(10,0,0,10,528.6,974.4)" />
<use xlink:href="#f0_1e" transform="matrix(10,0,0,10,542.7,974.4)" />
<use xlink:href="#f0_1f" transform="matrix(10,0,0,10,553.7,974.4)" />
<use xlink:href="#f0_1k" transform="matrix(10,0,0,10,565.6,974.4)" />
<use xlink:href="#f0_12" transform="matrix(10,0,0,10,579.6,974.4)" />
<use xlink:href="#f0_15" transform="matrix(10,0,0,10,589.8,974.4)" />
<use xlink:href="#f0_19" transform="matrix(10,0,0,10,483.8,992)" />
<use xlink:href="#f0_1k" transform="matrix(10,0,0,10,489.8,992)" />
<use xlink:href="#f0_1n" transform="matrix(10,0,0,10,503.8,992)" />
<use xlink:href="#f0_1f" transform="matrix(10,0,0,10,519.1,992)" />
<use xlink:href="#f0_1e" transform="matrix(10,0,0,10,531,992)" />
<use xlink:href="#f0_b" transform="matrix(10,0,0,10,542,992)" />
<use xlink:href="#f0_1k" transform="matrix(10,0,0,10,546.2,992)" />
<use xlink:href="#f0_12" transform="matrix(10,0,0,10,560.3,992)" />
<use xlink:href="#f0_15" transform="matrix(10,0,0,10,570.4,992)" />
</g>
<path d="M78.6,772h1.3v-1.3H78.6V772Z" class="g1_13"/>
<path d="M76.1,772h1.3v-1.3H76.1V772Z" class="g1_13"/>
<path d="M79.9,772H832.2v-1.3H79.9V772Z" class="g1_13"/>
<path d="M834.8,772h1.3v-1.3h-1.3V772Z" class="g1_13"/>
<path d="M832.2,772h1.3v-1.3h-1.3V772Z" class="g1_13"/>
<path d="M78.6,1017.3h1.3V772H78.6v245.3Z" class="g1_13"/>
<path d="M76.1,1021.2h1.3V772H76.1v249.2Z" class="g1_13"/>
<path d="M76.1,1021.2h3.8v-1.3H76.1v1.3Z" class="g1_13"/>
<path d="M78.6,1018.6h1.3v-1.3H78.6v1.3Z" class="g1_13"/>
<path d="M78.6,1018.6h1.3v-1.3H78.6v1.3Z" class="g1_13"/>
<path d="M79.9,1021.2H187.4v-1.3H79.9v1.3Z" class="g1_13"/>
<path d="M79.9,1018.6H187.4v-1.3H79.9v1.3Z" class="g1_13"/>
<path d="M187.4,1017.3h1.2V772h-1.2v245.3Z" class="g1_13"/>
<path d="M187.4,1018.6h3.8v-1.3h-3.8v1.3Z" class="g1_13"/>
<path d="M187.4,1021.2H465.7v-1.3H187.4v1.3Z" class="g1_13"/>
<path d="M191.2,1018.6H465.7v-1.3H191.2v1.3Z" class="g1_13"/>
<path d="M465.7,1017.3h1.2V772h-1.2v245.3Z" class="g1_13"/>
<path d="M465.7,1018.6h3.8v-1.3h-3.8v1.3Z" class="g1_13"/>
<path d="M465.7,1021.2H832.2v-1.3H465.7v1.3Z" class="g1_13"/>
<path d="M469.5,1018.6H832.2v-1.3H469.5v1.3Z" class="g1_13"/>
<path d="M834.8,1017.3h1.3V772h-1.3v245.3Z" class="g1_13"/>
<path d="M832.2,1017.3h1.3V772h-1.3v245.3Z" class="g1_13"/>
<path d="M834.8,1021.2h1.3v-3.9h-1.3v3.9Z" class="g1_13"/>
<path d="M832.2,1021.2h3.9v-1.3h-3.9v1.3Z" class="g1_13"/>
<path d="M832.2,1018.6h1.3v-1.3h-1.3v1.3Z" class="g1_13"/>
<path d="M832.2,1018.6h1.3v-1.3h-1.3v1.3Z" class="g1_13"/>
<g fill="#000000" >
<use xlink:href="#f1_19" transform="matrix(12,0,0,12,82.6,1055.6)" />
<use xlink:href="#f1_2a" transform="matrix(12,0,0,12,88.7,1055.6)" />
<use xlink:href="#f1_1z" transform="matrix(12,0,0,12,102.5,1055.6)" />
<use xlink:href="#f1_2b" transform="matrix(12,0,0,12,110.6,1055.6)" />
<use xlink:href="#f1_2a" transform="matrix(12,0,0,12,119.8,1055.6)" />
<use xlink:href="#f1_2i" transform="matrix(12,0,0,12,128.9,1055.6)" />
<use xlink:href="#f1_21" transform="matrix(12,0,0,12,138.1,1055.6)" />
<use xlink:href="#f1_2e" transform="matrix(12,0,0,12,146.3,1055.6)" />
<use xlink:href="#f1_2f" transform="matrix(12,0,0,12,152.4,1055.6)" />
<use xlink:href="#f1_1x" transform="matrix(12,0,0,12,159.5,1055.6)" />
<use xlink:href="#f1_2g" transform="matrix(12,0,0,12,167.7,1055.6)" />
<use xlink:href="#f1_25" transform="matrix(12,0,0,12,172.8,1055.6)" />
<use xlink:href="#f1_2b" transform="matrix(12,0,0,12,177.9,1055.6)" />
<use xlink:href="#f1_2a" transform="matrix(12,0,0,12,187,1055.6)" />
<use xlink:href="#f1_g" transform="matrix(12,0,0,12,196.2,1055.6)" />
<use xlink:href="#f1_2g" transform="matrix(12,0,0,12,205.4,1055.6)" />
<use xlink:href="#f1_24" transform="matrix(12,0,0,12,210.5,1055.6)" />
<use xlink:href="#f1_21" transform="matrix(12,0,0,12,219.7,1055.6)" />
<use xlink:href="#f1_2f" transform="matrix(12,0,0,12,232.4,1055.6)" />
<use xlink:href="#f1_24" transform="matrix(12,0,0,12,239.5,1055.6)" />
<use xlink:href="#f1_2b" transform="matrix(12,0,0,12,248.7,1055.6)" />
<use xlink:href="#f1_2e" transform="matrix(12,0,0,12,257.9,1055.6)" />
<use xlink:href="#f1_2g" transform="matrix(12,0,0,12,264,1055.6)" />
<use xlink:href="#f1_21" transform="matrix(12,0,0,12,269.1,1055.6)" />
<use xlink:href="#f1_2e" transform="matrix(12,0,0,12,277.2,1055.6)" />
<use xlink:href="#f1_22" transform="matrix(12,0,0,12,287.9,1055.6)" />
<use xlink:href="#f1_2b" transform="matrix(12,0,0,12,294,1055.6)" />
<use xlink:href="#f1_2e" transform="matrix(12,0,0,12,303.2,1055.6)" />
<use xlink:href="#f1_29" transform="matrix(12,0,0,12,309.3,1055.6)" />
<use xlink:href="#f1_2f" transform="matrix(12,0,0,12,323.4,1055.6)" />
<use xlink:href="#f1_1x" transform="matrix(12,0,0,12,335.2,1055.6)" />
<use xlink:href="#f1_2e" transform="matrix(12,0,0,12,343.3,1055.6)" />
<use xlink:href="#f1_21" transform="matrix(12,0,0,12,349.4,1055.6)" />
<use xlink:href="#f1_2h" transform="matrix(12,0,0,12,362.1,1055.6)" />
<use xlink:href="#f1_2f" transform="matrix(12,0,0,12,371.3,1055.6)" />
<use xlink:href="#f1_2h" transform="matrix(12,0,0,12,378.4,1055.6)" />
<use xlink:href="#f1_1x" transform="matrix(12,0,0,12,387.6,1055.6)" />
<use xlink:href="#f1_28" transform="matrix(12,0,0,12,395.8,1055.6)" />
<use xlink:href="#f1_28" transform="matrix(12,0,0,12,400.9,1055.6)" />
<use xlink:href="#f1_2l" transform="matrix(12,0,0,12,406,1055.6)" />
<use xlink:href="#f1_2h" transform="matrix(12,0,0,12,419.7,1055.6)" />
<use xlink:href="#f1_2f" transform="matrix(12,0,0,12,428.9,1055.6)" />
<use xlink:href="#f1_21" transform="matrix(12,0,0,12,436,1055.6)" />
<use xlink:href="#f1_20" transform="matrix(12,0,0,12,444.2,1055.6)" />
<use xlink:href="#f1_i" transform="matrix(12,0,0,12,453.4,1055.6)" />
<use xlink:href="#f0_1g" transform="matrix(12,0,0,12,235.3,1076.9)" />
<use xlink:href="#f0_1i" transform="matrix(12,0,0,12,246.5,1076.9)" />
<use xlink:href="#f0_15" transform="matrix(12,0,0,12,259.7,1076.9)" />
<use xlink:href="#f0_1j" transform="matrix(12,0,0,12,271.9,1076.9)" />
<use xlink:href="#f0_15" transform="matrix(12,0,0,12,282.2,1076.9)" />
<use xlink:href="#f0_1e" transform="matrix(12,0,0,12,294.4,1076.9)" />
<use xlink:href="#f0_1k" transform="matrix(12,0,0,12,307.6,1076.9)" />
</g>
<path d="M235.3,1080.7h84.5v-1.8H235.3v1.8Z" class="g1_13"/>
<g fill="#000000" >
<use xlink:href="#f0_1g" transform="matrix(12,0,0,12,427.8,1076.9)" />
<use xlink:href="#f0_11" transform="matrix(12,0,0,12,439,1076.9)" />
<use xlink:href="#f0_1j" transform="matrix(12,0,0,12,452.2,1076.9)" />
<use xlink:href="#f0_1k" transform="matrix(12,0,0,12,462.4,1076.9)" />
</g>
<path d="M427.8,1080.7h46.8v-1.8H427.8v1.8Z" class="g1_13"/>
<g fill="#000000" >
<use xlink:href="#f0_16" transform="matrix(12,0,0,12,602,1076.9)" />
<use xlink:href="#f0_1l" transform="matrix(12,0,0,12,613.2,1076.9)" />
<use xlink:href="#f0_1k" transform="matrix(12,0,0,12,626.4,1076.9)" />
<use xlink:href="#f0_1l" transform="matrix(12,0,0,12,638.6,1076.9)" />
<use xlink:href="#f0_1i" transform="matrix(12,0,0,12,651.8,1076.9)" />
<use xlink:href="#f0_15" transform="matrix(12,0,0,12,665,1076.9)" />
</g>
<path d="M592.8,1080.7h84.5v-1.8H592.8v1.8Z" class="g1_13"/>
<g fill="#000000" >
<use xlink:href="#f0_h" transform="matrix(12,0,0,12,162,1097.8)" />
<use xlink:href="#f0_2f" transform="matrix(12,0,0,12,168.1,1097.8)" />
<use xlink:href="#f1_1j" transform="matrix(12,0,0,12,217,1097.8)" />
<use xlink:href="#f1_24" transform="matrix(12,0,0,12,227.2,1097.8)" />
<use xlink:href="#f1_21" transform="matrix(12,0,0,12,236.4,1097.8)" />
<use xlink:href="#f1_25" transform="matrix(12,0,0,12,249.1,1097.8)" />
<use xlink:href="#f1_2f" transform="matrix(12,0,0,12,254.2,1097.8)" />
<use xlink:href="#f1_2a" transform="matrix(12,0,0,12,261.4,1097.8)" />
<use xlink:href="#f1_b" transform="matrix(12,0,0,12,270.5,1097.8)" />
<use xlink:href="#f1_2g" transform="matrix(12,0,0,12,273.7,1097.8)" />
<use xlink:href="#f1_2g" transform="matrix(12,0,0,12,283.4,1097.8)" />
<use xlink:href="#f1_25" transform="matrix(12,0,0,12,288.5,1097.8)" />
<use xlink:href="#f1_2e" transform="matrix(12,0,0,12,293.6,1097.8)" />
<use xlink:href="#f1_21" transform="matrix(12,0,0,12,299.8,1097.8)" />
<use xlink:href="#f1_20" transform="matrix(12,0,0,12,307.9,1097.8)" />
<use xlink:href="#f1_i" transform="matrix(12,0,0,12,317.1,1097.8)" />
<use xlink:href="#f1_18" transform="matrix(12,0,0,12,382.1,1097.8)" />
<use xlink:href="#f1_21" transform="matrix(12,0,0,12,395.3,1097.8)" />
<use xlink:href="#f1_2j" transform="matrix(12,0,0,12,408.1,1097.8)" />
<use xlink:href="#f1_1x" transform="matrix(12,0,0,12,421.3,1097.8)" />
<use xlink:href="#f1_2f" transform="matrix(12,0,0,12,429.5,1097.8)" />
<use xlink:href="#f1_2a" transform="matrix(12,0,0,12,436.6,1097.8)" />
<use xlink:href="#f1_b" transform="matrix(12,0,0,12,445.8,1097.8)" />
<use xlink:href="#f1_2g" transform="matrix(12,0,0,12,449,1097.8)" />
<use xlink:href="#f1_29" transform="matrix(12,0,0,12,458.7,1097.8)" />
<use xlink:href="#f1_1x" transform="matrix(12,0,0,12,473,1097.8)" />
<use xlink:href="#f1_20" transform="matrix(12,0,0,12,481.2,1097.8)" />
<use xlink:href="#f1_i" transform="matrix(12,0,0,12,490.3,1097.8)" />
<use xlink:href="#f1_1k" transform="matrix(12,0,0,12,547.2,1097.8)" />
<use xlink:href="#f1_24" transform="matrix(12,0,0,12,558.4,1097.8)" />
<use xlink:href="#f1_21" transform="matrix(12,0,0,12,567.6,1097.8)" />
<use xlink:href="#f1_2l" transform="matrix(12,0,0,12,575.7,1097.8)" />
<use xlink:href="#f1_2j" transform="matrix(12,0,0,12,589.5,1097.8)" />
<use xlink:href="#f1_2b" transform="matrix(12,0,0,12,602.7,1097.8)" />
<use xlink:href="#f1_2a" transform="matrix(12,0,0,12,611.9,1097.8)" />
<use xlink:href="#f1_b" transform="matrix(12,0,0,12,621.1,1097.8)" />
<use xlink:href="#f1_2g" transform="matrix(12,0,0,12,624.3,1097.8)" />
<use xlink:href="#f1_1y" transform="matrix(12,0,0,12,634,1097.8)" />
<use xlink:href="#f1_21" transform="matrix(12,0,0,12,643.2,1097.8)" />
<use xlink:href="#f1_29" transform="matrix(12,0,0,12,655.9,1097.8)" />
<use xlink:href="#f1_1x" transform="matrix(12,0,0,12,670.1,1097.8)" />
<use xlink:href="#f1_20" transform="matrix(12,0,0,12,678.2,1097.8)" />
<use xlink:href="#f1_i" transform="matrix(12,0,0,12,687.4,1097.8)" />
<use xlink:href="#f0_f" transform="matrix(12,0,0,12,162,1118.9)" />
<use xlink:href="#f0_2f" transform="matrix(12,0,0,12,172.4,1118.9)" />
<use xlink:href="#f1_1n" transform="matrix(12,0,0,12,217,1118.9)" />
<use xlink:href="#f1_21" transform="matrix(12,0,0,12,234.3,1118.9)" />
<use xlink:href="#f1_b" transform="matrix(12,0,0,12,242.5,1118.9)" />
<use xlink:href="#f1_2e" transform="matrix(12,0,0,12,245.7,1118.9)" />
<use xlink:href="#f1_21" transform="matrix(12,0,0,12,251.9,1118.9)" />
<use xlink:href="#f1_24" transform="matrix(12,0,0,12,264.6,1118.9)" />
<use xlink:href="#f1_2b" transform="matrix(12,0,0,12,273.8,1118.9)" />
<use xlink:href="#f1_2g" transform="matrix(12,0,0,12,282.9,1118.9)" />
<use xlink:href="#f1_i" transform="matrix(12,0,0,12,288,1118.9)" />
<use xlink:href="#f1_1j" transform="matrix(12,0,0,12,382.1,1118.9)" />
<use xlink:href="#f1_24" transform="matrix(12,0,0,12,392.3,1118.9)" />
<use xlink:href="#f1_21" transform="matrix(12,0,0,12,401.4,1118.9)" />
<use xlink:href="#f1_2j" transform="matrix(12,0,0,12,414.1,1118.9)" />
<use xlink:href="#f1_1x" transform="matrix(12,0,0,12,427.4,1118.9)" />
<use xlink:href="#f1_2f" transform="matrix(12,0,0,12,435.5,1118.9)" />
<use xlink:href="#f1_26" transform="matrix(12,0,0,12,447.2,1118.9)" />
<use xlink:href="#f1_21" transform="matrix(12,0,0,12,452.3,1118.9)" />
<use xlink:href="#f1_1x" transform="matrix(12,0,0,12,460.5,1118.9)" />
<use xlink:href="#f1_28" transform="matrix(12,0,0,12,468.6,1118.9)" />
<use xlink:href="#f1_2b" transform="matrix(12,0,0,12,473.7,1118.9)" />
<use xlink:href="#f1_2h" transform="matrix(12,0,0,12,482.9,1118.9)" />
<use xlink:href="#f1_2f" transform="matrix(12,0,0,12,492,1118.9)" />
<use xlink:href="#f1_i" transform="matrix(12,0,0,12,499.2,1118.9)" />
<use xlink:href="#f1_1k" transform="matrix(12,0,0,12,547,1118.9)" />
<use xlink:href="#f1_24" transform="matrix(12,0,0,12,558.2,1118.9)" />
<use xlink:href="#f1_21" transform="matrix(12,0,0,12,567.4,1118.9)" />
<use xlink:href="#f1_2l" transform="matrix(12,0,0,12,575.5,1118.9)" />
<use xlink:href="#f1_b" transform="matrix(12,0,0,12,584.7,1118.9)" />
<use xlink:href="#f1_28" transform="matrix(12,0,0,12,587.9,1118.9)" />
<use xlink:href="#f1_28" transform="matrix(12,0,0,12,593,1118.9)" />
<use xlink:href="#f1_1y" transform="matrix(12,0,0,12,602.7,1118.9)" />
<use xlink:href="#f1_21" transform="matrix(12,0,0,12,611.8,1118.9)" />
<use xlink:href="#f1_2f" transform="matrix(12,0,0,12,624.5,1118.9)" />
<use xlink:href="#f1_2b" transform="matrix(12,0,0,12,631.7,1118.9)" />
<use xlink:href="#f1_2e" transform="matrix(12,0,0,12,640.8,1118.9)" />
<use xlink:href="#f1_2e" transform="matrix(12,0,0,12,646.9,1118.9)" />
<use xlink:href="#f1_2l" transform="matrix(12,0,0,12,653,1118.9)" />
<use xlink:href="#f1_i" transform="matrix(12,0,0,12,662.2,1118.9)" />
</g>
<defs>
<path d="M26,0V54L154,74V926L27,945v55H544V945L389,926V79H593c0,0,159,0,234,15l61,208h67L927,0Z"
id="f0_1c"
transform="scale(0.001,-0.001)"/>

<path d="M639,416L478,858L313,416ZM647,0V54L762,74L667,333H283L191,74L319,54V0H15V54L90,74l355,935H662L1016,74l76,-20V0Z"
id="f0_11"
transform="scale(0.001,-0.001)"/>

<path d="M559,77c0,0,87,0,129,53c0,0,42,53,42,162c0,0,0,99,-49,147c0,0,-50,49,-163,49H389V82c0,0,108,-5,170,-5ZM499,570c0,0,80,0,118,42c0,0,38,42,38,141c0,0,0,88,-38,126c0,0,-37,39,-124,39H389V570ZM561,-3L221,0H25V54L154,74V926L25,945v55H511c0,0,199,0,294,-53c0,0,95,-53,95,-173c0,0,0,-89,-56,-154c0,0,-56,-65,-150,-85c0,0,139,-14,211,-76c0,0,71,-61,71,-167c0,0,0,-146,-107,-221C869,71,762,-3,561,-3Z"
id="f0_12"
transform="scale(0.001,-0.001)"/>

<path d="M595,60c0,0,141,0,206,102c0,0,65,102,65,340c0,0,0,236,-65,335c0,0,-65,100,-206,100c0,0,-142,0,-207,-100c0,0,-66,-99,-66,-335c0,0,0,-239,66,-340c0,0,65,-102,207,-102Zm0,-74c0,0,-253,0,-387,130C208,116,75,246,75,501c0,0,0,510,520,510c0,0,256,0,387,-129c0,0,132,-130,132,-381c0,0,0,-254,-133,-385C981,116,848,-14,595,-14Z"
id="f0_1f"
transform="scale(0.001,-0.001)"/>

<path d="M868,0L251,804V74L385,54V0H29V54L157,74V926L29,945v55H371L862,361V926L727,945v55h356V945L955,926V0Z"
id="f0_1e"
transform="scale(0.001,-0.001)"/>

<path d="M231,0V54L390,74V921H352c0,0,-171,0,-240,-15L92,721H24v279H996V721H927L907,906c0,0,-62,14,-245,14H626V74L785,54V0Z"
id="f0_1k"
transform="scale(0.001,-0.001)"/>

<path d="M26,0V54L154,74V926L26,945v55H878V746H810L786,908c0,0,-83,10,-241,10H389V551H651l23,111h67V355H674L651,468H389V82H578c0,0,193,0,252,12l43,185h68L927,0Z"
id="f0_15"
transform="scale(0.001,-0.001)"/>

<path d="M95,554v69c0,0,47,14,81,37c0,0,34,24,52,52c0,0,18,29,18,53c0,0,0,18,-14,32c0,0,-14,13,-43,27c0,0,-56,29,-56,93c0,0,0,45,32,72c0,0,33,27,87,27c0,0,63,0,105,-40c0,0,42,-41,42,-105c0,0,0,-118,-77,-197c0,0,-78,-80,-227,-120Z"
id="f0_1k5"
transform="scale(0.001,-0.001)"/>

<path d="M410,-14c0,0,-86,0,-175,14C235,0,145,14,81,38V307h66L181,146c0,0,31,-37,94,-62c0,0,64,-24,132,-24c0,0,214,0,214,177c0,0,0,55,-41,93c0,0,-41,38,-128,68c0,0,-128,42,-185,68c0,0,-56,27,-95,63c0,0,-38,36,-62,87c0,0,-23,51,-23,125c0,0,0,132,90,201c0,0,90,69,263,69c0,0,125,0,278,-32V741H651L618,878c0,0,-76,56,-178,56c0,0,-92,0,-141,-34c0,0,-49,-34,-49,-104c0,0,0,-50,41,-86c0,0,41,-35,128,-63c0,0,171,-56,235,-97c0,0,64,-41,97,-103c0,0,34,-61,34,-143c0,0,0,-318,-375,-318Z"
id="f0_1j"
transform="scale(0.001,-0.001)"/>

<path d="M452,474c0,0,104,0,151,52c0,0,47,53,47,178c0,0,0,119,-45,167c0,0,-44,47,-156,47H390V474ZM36,0V54L154,74V926L26,945v55H467c0,0,213,0,318,-71c0,0,105,-71,105,-224c0,0,0,-313,-366,-313H390V74L557,54V0Z"
id="f0_1g"
transform="scale(0.001,-0.001)"/>

<path d="M122,0V64L295,82V837L123,780v64l282,165H511V82L685,64V0Z"
id="f0_l"
transform="scale(0.001,-0.001)"/>

<path d="M379,60c0,0,55,0,82,103c0,0,26,104,26,342c0,0,0,233,-26,335c0,0,-26,102,-82,102c0,0,-55,0,-79,-99c0,0,-23,-99,-23,-338c0,0,0,-244,24,-345c0,0,24,-100,78,-100Zm-2,-74c0,0,-158,0,-238,132c0,0,-81,133,-81,386c0,0,0,249,81,380c0,0,80,132,244,132c0,0,159,0,241,-130c0,0,82,-130,82,-382c0,0,0,-518,-329,-518Z"
id="f0_k"
transform="scale(0.001,-0.001)"/>

<path d="M614,-14c0,0,-163,0,-285,59c0,0,-122,60,-188,174c0,0,-66,114,-66,269c0,0,0,252,143,387c0,0,144,136,410,136c0,0,65,0,118,-5c0,0,54,-5,100,-14c0,0,46,-9,170,-44V718H949L931,848c0,0,-59,40,-130,62c0,0,-71,23,-146,23c0,0,-174,0,-253,-108c0,0,-80,-108,-80,-335c0,0,0,-211,84,-319c0,0,84,-108,243,-108c0,0,87,0,165,26V377L686,397v55h461V397l-98,-20V52C1049,52,956,22,834,4C834,4,712,-14,614,-14Z"
id="f0_17"
transform="scale(0.001,-0.001)"/>

<path d="M51,0V55L180,74V926L51,946v54H543V946L415,926V74L543,55V0Z"
id="f0_19"
transform="scale(0.001,-0.001)"/>

<path d="M26,0V55L154,74V926L26,946v54H518V946L389,926V555H798V926L670,946v54h493V946L1034,926V74L1163,55V0H670V55L798,74V473H389V74L518,55V0Z"
id="f0_18"
transform="scale(0.001,-0.001)"/>

<path d="M608,-14c0,0,-251,0,-392,133C216,119,75,252,75,488c0,0,0,257,134,390c0,0,135,133,398,133c0,0,174,0,361,-50l4,-240H905L884,866c0,0,-98,67,-229,67c0,0,-173,0,-253,-108c0,0,-80,-108,-80,-334c0,0,0,-209,84,-319c0,0,83,-109,243,-109c0,0,84,0,147,22c0,0,63,22,99,53l24,164h68L982,48C982,48,915,22,808,4C808,4,700,-14,608,-14Z"
id="f0_13"
transform="scale(0.001,-0.001)"/>

<path d="M506,-22L99,926L17,946v54H452V946L348,926L630,270L892,926L791,946v54h295V946L991,926L605,-22Z"
id="f0_1m"
transform="scale(0.001,-0.001)"/>

<path d="M498,506c0,0,115,0,164,47c0,0,48,48,48,166c0,0,0,112,-46,156c0,0,-46,43,-169,43H390V506ZM793,0L514,423H390V74L518,54V0H36V54L154,74V926L26,945v55H504c0,0,221,0,330,-68c0,0,109,-68,109,-212c0,0,0,-215,-201,-276L1009,74L1117,54V0Z"
id="f0_1i"
transform="scale(0.001,-0.001)"/>

<path d="M435,350V646c0,0,0,84,7,158L145,350ZM435,0V198H21V319l450,686H636V350H736V198H636V0Z"
id="f0_o"
transform="scale(0.001,-0.001)"/>

<path d="M519,79c0,0,97,0,153,42c0,0,57,42,83,131c0,0,26,89,26,248c0,0,0,216,-79,317c0,0,-79,101,-257,101H389V85c0,0,72,-6,130,-6ZM533,-2L198,0H27V54L155,74V926L27,945v55H502c0,0,269,0,398,-122c0,0,129,-122,129,-372c0,0,0,-258,-123,-383C906,123,783,-2,533,-2Z"
id="f0_14"
transform="scale(0.001,-0.001)"/>

<path d="M264,-14c0,0,-56,0,-110,7c0,0,-54,6,-86,15V234h66L157,101c0,0,14,-17,40,-27c0,0,26,-9,57,-9c0,0,52,0,86,35c0,0,34,36,34,106V926L245,945v55H722V945L609,926V322c0,0,0,-162,-90,-249c0,0,-89,-87,-255,-87Z"
id="f0_1a"
transform="scale(0.001,-0.001)"/>

<path d="M248,-20c0,0,-52,0,-87,34c0,0,-36,36,-36,88c0,0,0,52,36,88c0,0,35,36,87,36c0,0,52,0,88,-36c0,0,36,-36,36,-88c0,0,0,-51,-36,-87c0,0,-35,-35,-88,-35Zm0,488c0,0,-52,0,-87,36c0,0,-36,36,-36,88c0,0,0,52,35,88c0,0,35,36,88,36c0,0,53,0,89,-36c0,0,35,-37,35,-88c0,0,0,-51,-36,-87c0,0,-35,-37,-88,-37Z"
id="f0_u"
transform="scale(0.001,-0.001)"/>

<path d="M440,-22L109,926L22,945v55H471V945L354,926L567,330L801,915h93L1129,332l177,594l-126,19v55h324V945l-87,-19L1120,-22h-92L779,594L532,-22Z"
id="f0_1n"
transform="scale(0.001,-0.001)"/>

<path d="M900,0V54l135,20V845L658,0H617L248,845V74L382,54V0H26V54L154,74V926L26,945v55H419L705,342l292,658h401V945L1270,926V74L1398,54V0Z"
id="f0_1d"
transform="scale(0.001,-0.001)"/>

<path d="M850,0L476,482L389,407V74L533,54V0H26V54L154,74V926L26,945v55H518V945L389,926V519L845,926l-92,19v55h343V945L974,926L643,634L1083,74l93,-20V0Z"
id="f0_1b"
transform="scale(0.001,-0.001)"/>

<path d="M382,151V454H81V560H382V863H489V560H791V454H489V151Z"
id="f0_f"
transform="scale(0.001,-0.001)"/>

<path d="M56,294V424H453V294Z"
id="f0_h"
transform="scale(0.001,-0.001)"/>

<path d="M345,75c0,0,50,0,110,26V351l-63,-2c0,0,-72,-3,-100,-38c0,0,-28,-35,-28,-113c0,0,0,-63,22,-93c0,0,23,-30,59,-30ZM266,-14c0,0,-217,0,-217,208c0,0,0,79,32,126c0,0,32,48,93,71c0,0,60,22,190,25l91,2V521c0,0,0,126,-104,126c0,0,-62,0,-140,-39L183,521H134V691c0,0,112,17,165,21c0,0,53,5,108,5c0,0,264,0,264,-194V67L741,49V0H483L466,54C466,54,408,14,361,0c0,0,-47,-14,-95,-14Z"
id="f0_1x"
transform="scale(0.001,-0.001)"/>

<path d="M191,-20c0,0,-51,0,-88,34c0,0,-36,36,-36,88c0,0,0,52,36,88c0,0,36,36,88,36c0,0,51,0,88,-36c0,0,36,-36,36,-88c0,0,0,-51,-36,-87c0,0,-36,-35,-88,-35Z"
id="f0_i"
transform="scale(0.001,-0.001)"/>

<path d="M173,641l-57,359H309L251,641Z"
id="f0_b"
transform="scale(0.001,-0.001)"/>

<path d="M285,0V54L444,74V389L140,926L27,945v55H542V945L407,926L636,507L856,926L734,945v55h340V945L968,926L680,394V74L838,54V0Z"
id="f0_1p"
transform="scale(0.001,-0.001)"/>

<path d="M566,-14c0,0,-200,0,-308,93c0,0,-107,94,-107,270V926L38,945v55H515V945L386,926V339c0,0,0,-120,61,-184c0,0,61,-64,178,-64c0,0,112,0,173,63c0,0,61,62,61,184V926L725,945v55h340V945L952,926V343c0,0,0,-173,-100,-265c0,0,-100,-92,-286,-92Z"
id="f0_1l"
transform="scale(0.001,-0.001)"/>

<path d="M36,0V54L154,74V926L26,945v55H860V731H790L766,908c0,0,-36,5,-121,8c0,0,-84,2,-133,2H389V508H633l23,127h67V298H656L633,426H389V74L556,54V0Z"
id="f0_16"
transform="scale(0.001,-0.001)"/>

<path d="M55,0V40L184,60V941L55,960v40H455V960L327,941V60L455,40V0Z"
id="f1_19"
transform="scale(0.001,-0.001)"/>

<path d="M439,0V33l93,19V500c0,0,0,62,-30,97c0,0,-31,36,-94,36c0,0,-67,0,-165,-22V52L338,33V0H35V33l84,19V649L35,668v33H235l7,-57c0,0,57,33,122,54c0,0,65,22,108,22c0,0,91,0,137,-53c0,0,47,-53,47,-154V52L741,33V0Z"
id="f1_2a"
transform="scale(0.001,-0.001)"/>

<path d="M399,-14c0,0,-341,0,-341,370c0,0,0,175,87,269c0,0,87,95,249,95c0,0,101,0,220,-23V501H573L541,625c0,0,-62,35,-149,35c0,0,-200,0,-200,-304c0,0,0,-158,61,-225c0,0,61,-67,189,-67c0,0,109,0,189,24V43C631,43,595,16,530,1c0,0,-64,-15,-131,-15Z"
id="f1_1z"
transform="scale(0.001,-0.001)"/>

<path d="M377,45c0,0,99,0,147,73c0,0,47,73,47,237c0,0,0,161,-47,233c0,0,-47,72,-147,72c0,0,-97,0,-141,-69c0,0,-44,-69,-44,-236c0,0,0,-169,45,-240c0,0,44,-70,140,-70Zm0,-59c0,0,-158,0,-238,94c0,0,-81,95,-81,274c0,0,0,178,81,272c0,0,80,94,244,94c0,0,160,0,241,-92c0,0,82,-92,82,-274c0,0,0,-368,-329,-368Z"
id="f1_2b"
transform="scale(0.001,-0.001)"/>

<path d="M360,-14L72,649L0,668v33H327V668L216,648L420,164L615,649L504,668v33H764V668L697,652L416,-14Z"
id="f1_2i"
transform="scale(0.001,-0.001)"/>

<path d="M495,413c0,0,0,133,-34,190c0,0,-34,57,-105,57c0,0,-78,0,-119,-63c0,0,-42,-62,-42,-184ZM374,-14c0,0,-163,0,-239,87c0,0,-75,88,-75,283c0,0,0,183,77,273c0,0,76,91,219,91c0,0,269,0,269,-306V353H194V340c0,0,0,-103,23,-160c0,0,22,-57,70,-87c0,0,47,-29,124,-29c0,0,40,0,96,6c0,0,55,7,91,15V43C598,43,562,20,500,3c0,0,-61,-17,-126,-17Z"
id="f1_21"
transform="scale(0.001,-0.001)"/>

<path d="M31,0V33l88,19V649L31,668v33H235l7,-87c0,0,44,37,121,71c0,0,76,35,121,35h11V530H463l-43,82c0,0,-37,0,-88,-10c0,0,-52,-10,-89,-26V52L363,33V0Z"
id="f1_2e"
transform="scale(0.001,-0.001)"/>

<path d="M278,-14c0,0,-52,0,-115,11c0,0,-63,10,-99,23V193H98L134,95c0,0,56,-50,146,-50c0,0,144,0,144,123c0,0,0,91,-114,130l-66,21c0,0,-75,25,-110,50c0,0,-34,26,-53,63c0,0,-18,36,-18,89c0,0,0,92,63,145c0,0,63,54,170,54c0,0,77,0,193,-23V544H454l-32,81c0,0,-39,35,-124,35c0,0,-61,0,-92,-30c0,0,-32,-30,-32,-80c0,0,0,-43,29,-72c0,0,28,-29,86,-48c0,0,110,-38,144,-55c0,0,33,-17,57,-42c0,0,23,-25,36,-57c0,0,13,-32,13,-79c0,0,0,-104,-66,-158c0,0,-66,-53,-195,-53Z"
id="f1_2f"
transform="scale(0.001,-0.001)"/>

<path d="M284,67c0,0,51,0,88,12c0,0,37,12,74,30V358l-98,-3c0,0,-100,-4,-135,-39c0,0,-35,-35,-35,-117c0,0,0,-132,106,-132ZM233,-14c0,0,-179,0,-179,208c0,0,0,70,27,116c0,0,27,46,87,70c0,0,60,24,173,27l105,3V519c0,0,0,72,-26,107c0,0,-27,34,-82,34c0,0,-75,0,-137,-35L176,538H134V691c0,0,121,26,213,26c0,0,115,0,169,-47c0,0,54,-47,54,-144V52L657,33V0H465L451,70c0,0,-85,-84,-218,-84Z"
id="f1_1x"
transform="scale(0.001,-0.001)"/>

<path d="M249,-14c0,0,-71,0,-107,42c0,0,-35,42,-35,119V639H15v33l93,29l76,159h47V701H391V639H231V161c0,0,0,-48,22,-73c0,0,22,-24,57,-24c0,0,44,0,106,12V26C416,26,389,8,340,-2c0,0,-49,-12,-91,-12Z"
id="f1_2g"
transform="scale(0.001,-0.001)"/>

<path d="M32,0V33L151,52V649L52,668v33H275V52L395,33V0ZM201,850c0,0,-32,0,-56,24c0,0,-24,24,-24,56c0,0,0,34,24,58c0,0,24,24,56,24c0,0,34,0,58,-24c0,0,24,-24,24,-58c0,0,0,-32,-24,-56c0,0,-24,-24,-58,-24Z"
id="f1_25"
transform="scale(0.001,-0.001)"/>

<path d="M58,-234v58c0,0,131,42,131,125c0,0,0,15,-11,27c0,0,-11,12,-38,25C140,1,89,27,89,75c0,0,0,40,25,61c0,0,26,21,65,21c0,0,48,0,77,-34c0,0,30,-34,30,-86c0,0,0,-101,-60,-170c0,0,-59,-69,-168,-101Z"
id="f1_g"
transform="scale(0.001,-0.001)"/>

<path d="M442,0V33l93,19V504c0,0,0,129,-124,129c0,0,-70,0,-168,-22V52L338,33V0H31V33l88,19v956L15,1026v34H243V756c0,0,0,-77,-5,-112c0,0,54,31,122,53c0,0,68,23,115,23c0,0,91,0,137,-53c0,0,47,-53,47,-154V52L744,33V0Z"
id="f1_24"
transform="scale(0.001,-0.001)"/>

<path d="M64,0V34L168,59V639H47v36l121,29v49c0,0,0,155,61,239c0,0,62,84,173,84c0,0,58,0,107,-15V908H472l-33,92c0,0,-26,16,-62,16c0,0,-47,0,-66,-42c0,0,-19,-42,-19,-157V701H478V639H292V59L443,34V0Z"
id="f1_22"
transform="scale(0.001,-0.001)"/>

<path d="M431,0V33L535,52V499c0,0,0,62,-32,96c0,0,-32,33,-95,33c0,0,-66,0,-163,-22V52L350,33V0H32V33l89,19V649L32,668v33H237l6,-57c0,0,56,32,119,54c0,0,62,22,110,22c0,0,52,0,95,-20c0,0,44,-19,66,-62c0,0,57,32,134,57c0,0,77,25,128,25c0,0,179,0,179,-207V52l90,-19V0H846V33L950,52V499c0,0,0,129,-119,129c0,0,-19,0,-45,-3c0,0,-26,-3,-52,-7c0,0,-25,-4,-49,-8c0,0,-23,-5,-39,-8c0,0,13,-41,13,-89V52L764,33V0Z"
id="f1_29"
transform="scale(0.001,-0.001)"/>

<path d="M289,-14c0,0,-179,0,-179,205V649L20,668v33H233V200c0,0,0,-128,120,-128c0,0,92,0,173,23V649L420,668v33H649V52L738,33V0H533l-6,57C527,57,474,28,405,7c0,0,-69,-21,-116,-21Z"
id="f1_2h"
transform="scale(0.001,-0.001)"/>

<path d="M31,0V33L150,52v956L31,1026v34H274V52L394,33V0Z"
id="f1_28"
transform="scale(0.001,-0.001)"/>

<path d="M148,-329c0,0,-58,0,-114,13v151H69l24,-71c0,0,23,-17,64,-17c0,0,39,0,72,22c0,0,33,23,60,67c0,0,27,44,68,157L90,649L19,668v33H344V668L233,648L423,158L606,649L497,668v33H758V668L685,652L411,-43c0,0,-48,-124,-84,-177c0,0,-36,-54,-79,-82c0,0,-44,-27,-100,-27Z"
id="f1_2l"
transform="scale(0.001,-0.001)"/>

<path d="M383,64c0,0,85,0,152,28V645c0,0,-67,13,-152,13c0,0,-194,0,-194,-314c0,0,0,-141,48,-211c0,0,48,-69,146,-69ZM342,-14c0,0,-287,0,-287,358c0,0,0,184,82,280c0,0,81,96,239,96c0,0,81,0,163,-18c0,0,-4,25,-4,124v182l-118,18v34H659V52L745,33V0H548l-9,52c0,0,-84,-66,-197,-66Z"
id="f1_20"
transform="scale(0.001,-0.001)"/>

<path d="M191,-20c0,0,-39,0,-65,25c0,0,-25,27,-25,64c0,0,0,38,26,64c0,0,26,26,64,26c0,0,38,0,64,-26c0,0,26,-26,26,-64c0,0,0,-37,-25,-64c0,0,-26,-25,-65,-25Z"
id="f1_i"
transform="scale(0.001,-0.001)"/>

<path d="M276,-14c0,0,-57,0,-125,13C151,-1,83,10,48,23V214H97l28,-98c0,0,26,-26,69,-44c0,0,42,-17,86,-17c0,0,65,0,97,28c0,0,32,28,32,71c0,0,0,41,-31,65c0,0,-30,25,-133,57c0,0,-108,34,-154,92c0,0,-45,58,-45,143c0,0,0,95,71,152c0,0,71,57,183,57c0,0,77,0,207,-22V518H457l-24,82c0,0,-21,22,-60,35c0,0,-40,14,-75,14c0,0,-53,0,-79,-22c0,0,-26,-22,-26,-59c0,0,0,-40,32,-65c0,0,32,-26,132,-55c0,0,109,-34,155,-89c0,0,45,-55,45,-137c0,0,0,-117,-72,-177c0,0,-72,-59,-209,-59Z"
id="f0_2f"
transform="scale(0.001,-0.001)"/>

<path d="M410,-14c0,0,-80,0,-162,14c0,0,-81,14,-144,38V270h48L178,134c0,0,28,-35,95,-62c0,0,68,-27,134,-27c0,0,104,0,163,53c0,0,58,54,58,148c0,0,0,54,-23,89c0,0,-22,35,-59,59c0,0,-37,24,-84,41c0,0,-47,17,-97,34c0,0,-49,17,-96,38c0,0,-47,21,-84,53c0,0,-37,32,-60,79c0,0,-23,48,-23,117c0,0,0,119,90,187c0,0,89,68,248,68c0,0,121,0,263,-32V771H654L628,893c0,0,-76,55,-188,55c0,0,-100,0,-156,-40c0,0,-56,-41,-56,-112c0,0,0,-49,22,-81c0,0,23,-32,60,-55c0,0,37,-22,84,-39c0,0,48,-16,97,-34c0,0,50,-17,97,-39c0,0,48,-22,85,-56c0,0,36,-34,59,-83c0,0,23,-49,23,-120c0,0,0,-145,-89,-224c0,0,-89,-79,-256,-79Z"
id="f1_1j"
transform="scale(0.001,-0.001)"/>

<path d="M110,641L64,1000H211L165,641Z"
id="f1_b"
transform="scale(0.001,-0.001)"/>

<path d="M44,0V40L172,60V941L44,960v40H445V960L316,941V549H787V941L659,960v40h400V960L930,941V60L1059,40V0H659V40L787,60V481H316V60L445,40V0Z"
id="f1_18"
transform="scale(0.001,-0.001)"/>

<path d="M327,-14L84,649L1,668v33H335V668L219,648L385,174L554,632h63L786,171L944,649L830,668v33h267V668l-78,-16L784,-14H726L553,448L382,-14Z"
id="f1_2j"
transform="scale(0.001,-0.001)"/>

<path d="M235,0V40L394,60V936H356c0,0,-189,0,-258,-15L78,766H28v234H908V766H857L837,921c0,0,-22,5,-98,9c0,0,-75,4,-165,4H538V60L697,40V0Z"
id="f1_1k"
transform="scale(0.001,-0.001)"/>

<path d="M376,50c0,0,103,0,149,80c0,0,46,81,46,240c0,0,0,137,-47,204c0,0,-48,67,-148,67c0,0,-44,0,-87,-7c0,0,-44,-8,-63,-17V62c0,0,63,-12,150,-12Zm3,-64c0,0,-64,0,-141,14c0,0,-78,14,-136,37v971L0,1026v34H226V809c0,0,0,-40,-4,-148c0,0,74,59,188,59c0,0,143,0,219,-87c0,0,77,-87,77,-263c0,0,0,-189,-84,-287c0,0,-84,-97,-243,-97Z"
id="f1_1y"
transform="scale(0.001,-0.001)"/>

<path d="M420,-22L89,941L1,960v40H383V960L236,941L474,236L744,930h33L1037,236l227,705l-156,19v40h331V960l-87,-19L1025,-22H985L726,666L460,-22Z"
id="f1_1n"
transform="scale(0.001,-0.001)"/>

<path d="M64,-325c0,0,-46,0,-107,14v148H-8l19,-81c0,0,25,-21,62,-21c0,0,44,0,67,47c0,0,22,47,22,152V649L57,668v33H286V-28c0,0,0,-146,-57,-221c0,0,-56,-76,-165,-76ZM213,850c0,0,-34,0,-58,24c0,0,-24,24,-24,56c0,0,0,34,24,58c0,0,24,24,58,24c0,0,32,0,56,-24c0,0,24,-24,24,-58c0,0,0,-32,-24,-56c0,0,-24,-24,-56,-24Z"
id="f1_26"
transform="scale(0.001,-0.001)"/>


</defs>
</svg>