<?xml version="1.0" encoding="UTF-8" standalone="no"?>
<!DOCTYPE svg PUBLIC "-//W3C//DTD SVG 1.1//EN"
"http://www.w3.org/Graphics/SVG/1.1/DTD/svg11.dtd">
<svg viewBox="0 0 935 1210" version="1.1" xmlns="http://www.w3.org/2000/svg" xmlns:xlink="http://www.w3.org/1999/xlink">
<defs>
</defs>
<g fill="#000000" >
<use xlink:href="#f0_1c" transform="matrix(9,0,0,9,263.4,40.2)" />
<use xlink:href="#f0_11" transform="matrix(9,0,0,9,272.5,40.2)" />
<use xlink:href="#f0_12" transform="matrix(9,0,0,9,285.9,40.2)" />
<use xlink:href="#f0_1f" transform="matrix(9,0,0,9,295.1,40.2)" />
<use xlink:href="#f0_1e" transform="matrix(9,0,0,9,305.8,40.2)" />
<use xlink:href="#f0_1k" transform="matrix(9,0,0,9,315.7,40.2)" />
<use xlink:href="#f0_15" transform="matrix(9,0,0,9,324.8,40.2)" />
<use xlink:href="#f0_1k5" transform="matrix(9,0,0,9,334,40.2)" />
<use xlink:href="#f0_1j" transform="matrix(9,0,0,9,338.6,40.2)" />
<use xlink:href="#f0_1k" transform="matrix(9,0,0,9,349.7,40.2)" />
<use xlink:href="#f0_1f" transform="matrix(9,0,0,9,358.8,40.2)" />
<use xlink:href="#f0_1g" transform="matrix(9,0,0,9,369.5,40.2)" />
<use xlink:href="#f0_l" transform="matrix(9,0,0,9,381.4,40.2)" />
<use xlink:href="#f0_k" transform="matrix(9,0,0,9,388.3,40.2)" />
<use xlink:href="#f0_k" transform="matrix(9,0,0,9,395.1,40.2)" />
<use xlink:href="#f0_15" transform="matrix(9,0,0,9,405.5,40.2)" />
<use xlink:href="#f0_1e" transform="matrix(9,0,0,9,414.6,40.2)" />
<use xlink:href="#f0_17" transform="matrix(9,0,0,9,424.5,40.2)" />
<use xlink:href="#f0_1c" transform="matrix(9,0,0,9,435.2,40.2)" />
<use xlink:href="#f0_19" transform="matrix(9,0,0,9,444.4,40.2)" />
<use xlink:href="#f0_1j" transform="matrix(9,0,0,9,449.7,40.2)" />
<use xlink:href="#f0_18" transform="matrix(9,0,0,9,457.3,40.2)" />
<use xlink:href="#f0_13" transform="matrix(9,0,0,9,471.5,40.2)" />
<use xlink:href="#f0_1f" transform="matrix(9,0,0,9,481.4,40.2)" />
<use xlink:href="#f0_1e" transform="matrix(9,0,0,9,492.1,40.2)" />
<use xlink:href="#f0_1m" transform="matrix(9,0,0,9,502,40.2)" />
<use xlink:href="#f0_15" transform="matrix(9,0,0,9,511.9,40.2)" />
<use xlink:href="#f0_1i" transform="matrix(9,0,0,9,521.2,40.2)" />
<use xlink:href="#f0_1j" transform="matrix(9,0,0,9,531.1,40.2)" />
<use xlink:href="#f0_11" transform="matrix(9,0,0,9,538.7,40.2)" />
<use xlink:href="#f0_1k" transform="matrix(9,0,0,9,548.7,40.2)" />
<use xlink:href="#f0_19" transform="matrix(9,0,0,9,557.8,40.2)" />
<use xlink:href="#f0_1f" transform="matrix(9,0,0,9,563.2,40.2)" />
<use xlink:href="#f0_1e" transform="matrix(9,0,0,9,573.8,40.2)" />
<use xlink:href="#f0_1g" transform="matrix(9,0,0,9,587.2,40.2)" />
<use xlink:href="#f0_11" transform="matrix(9,0,0,9,595.6,40.2)" />
<use xlink:href="#f0_1k" transform="matrix(9,0,0,9,605.5,40.2)" />
<use xlink:href="#f0_1k" transform="matrix(9,0,0,9,614.8,40.2)" />
<use xlink:href="#f0_15" transform="matrix(9,0,0,9,624,40.2)" />
<use xlink:href="#f0_1i" transform="matrix(9,0,0,9,633.1,40.2)" />
<use xlink:href="#f0_1e" transform="matrix(9,0,0,9,643,40.2)" />
<use xlink:href="#f0_1j" transform="matrix(9,0,0,9,652.9,40.2)" />
<use xlink:href="#f0_19" transform="matrix(14,0,0,14,212,74.6)" />
<use xlink:href="#f0_29" transform="matrix(14,0,0,14,225.7,74.6)" />
<use xlink:href="#f0_1x" transform="matrix(14,0,0,14,243.5,74.6)" />
<use xlink:href="#f0_2l" transform="matrix(14,0,0,14,254.2,74.6)" />
<use xlink:href="#f0_1y" transform="matrix(14,0,0,14,270.2,74.6)" />
<use xlink:href="#f0_21" transform="matrix(14,0,0,14,282.1,74.6)" />
<use xlink:href="#f0_1x" transform="matrix(14,0,0,14,297,74.6)" />
<use xlink:href="#f0_1y" transform="matrix(14,0,0,14,307.7,74.6)" />
<use xlink:href="#f0_28" transform="matrix(14,0,0,14,319.6,74.6)" />
<use xlink:href="#f0_21" transform="matrix(14,0,0,14,325.5,74.6)" />
<use xlink:href="#f0_2g" transform="matrix(14,0,0,14,340.4,74.6)" />
<use xlink:href="#f0_2b" transform="matrix(14,0,0,14,347.5,74.6)" />
<use xlink:href="#f0_2f" transform="matrix(14,0,0,14,363.5,74.6)" />
<use xlink:href="#f0_2c" transform="matrix(14,0,0,14,371.9,74.6)" />
<use xlink:href="#f0_21" transform="matrix(14,0,0,14,383.8,74.6)" />
<use xlink:href="#f0_1x" transform="matrix(14,0,0,14,393.3,74.6)" />
<use xlink:href="#f0_27" transform="matrix(14,0,0,14,404,74.6)" />
<use xlink:href="#f0_2g" transform="matrix(14,0,0,14,421,74.6)" />
<use xlink:href="#f0_24" transform="matrix(14,0,0,14,428.2,74.6)" />
<use xlink:href="#f0_21" transform="matrix(14,0,0,14,440.1,74.6)" />
<use xlink:href="#f0_28" transform="matrix(14,0,0,14,454.9,74.6)" />
<use xlink:href="#f0_1x" transform="matrix(14,0,0,14,460.9,74.6)" />
<use xlink:href="#f0_2a" transform="matrix(14,0,0,14,471.6,74.6)" />
<use xlink:href="#f0_23" transform="matrix(14,0,0,14,483.5,74.6)" />
<use xlink:href="#f0_2h" transform="matrix(14,0,0,14,494.2,74.6)" />
<use xlink:href="#f0_1x" transform="matrix(14,0,0,14,506.1,74.6)" />
<use xlink:href="#f0_23" transform="matrix(14,0,0,14,516.8,74.6)" />
<use xlink:href="#f0_21" transform="matrix(14,0,0,14,527.5,74.6)" />
<use xlink:href="#f0_2f" transform="matrix(14,0,0,14,537,74.6)" />
<use xlink:href="#f0_2b" transform="matrix(14,0,0,14,550.6,74.6)" />
<use xlink:href="#f0_22" transform="matrix(14,0,0,14,561.3,74.6)" />
<use xlink:href="#f0_29" transform="matrix(14,0,0,14,573.8,74.6)" />
<use xlink:href="#f0_21" transform="matrix(14,0,0,14,591.6,74.6)" />
<use xlink:href="#f0_2a" transform="matrix(14,0,0,14,601.1,74.6)" />
<use xlink:href="#f0_1x" transform="matrix(14,0,0,14,618.3,74.6)" />
<use xlink:href="#f0_2a" transform="matrix(14,0,0,14,629,74.6)" />
<use xlink:href="#f0_20" transform="matrix(14,0,0,14,640.9,74.6)" />
<use xlink:href="#f0_21" transform="matrix(14,0,0,14,658.1,74.6)" />
<use xlink:href="#f0_2i" transform="matrix(14,0,0,14,667.6,74.6)" />
<use xlink:href="#f0_21" transform="matrix(14,0,0,14,678.3,74.6)" />
<use xlink:href="#f0_2a" transform="matrix(14,0,0,14,687.8,74.6)" />
<use xlink:href="#f0_2b" transform="matrix(14,0,0,14,705,74.6)" />
<use xlink:href="#f0_22" transform="matrix(14,0,0,14,715.7,74.6)" />
<use xlink:href="#f0_1x" transform="matrix(14,0,0,14,240.3,99.2)" />
<use xlink:href="#f0_2a" transform="matrix(14,0,0,14,251,99.2)" />
<use xlink:href="#f0_23" transform="matrix(14,0,0,14,262.9,99.2)" />
<use xlink:href="#f0_21" transform="matrix(14,0,0,14,273.6,99.2)" />
<use xlink:href="#f0_28" transform="matrix(14,0,0,14,283.1,99.2)" />
<use xlink:href="#f0_2f" transform="matrix(14,0,0,14,289,99.2)" />
<use xlink:href="#f0_g" transform="matrix(14,0,0,14,297.4,99.2)" />
<use xlink:href="#f0_1y" transform="matrix(14,0,0,14,308,99.2)" />
<use xlink:href="#f0_2h" transform="matrix(14,0,0,14,319.9,99.2)" />
<use xlink:href="#f0_2g" transform="matrix(14,0,0,14,331.8,99.2)" />
<use xlink:href="#f0_25" transform="matrix(14,0,0,14,344.2,99.2)" />
<use xlink:href="#f0_22" transform="matrix(14,0,0,14,350.2,99.2)" />
<use xlink:href="#f0_19" transform="matrix(14,0,0,14,362.6,99.2)" />
<use xlink:href="#f0_24" transform="matrix(14,0,0,14,376.3,99.2)" />
<use xlink:href="#f0_1x" transform="matrix(14,0,0,14,388.1,99.2)" />
<use xlink:href="#f0_2i" transform="matrix(14,0,0,14,398.8,99.2)" />
<use xlink:href="#f0_21" transform="matrix(14,0,0,14,409.5,99.2)" />
<use xlink:href="#f0_2a" transform="matrix(14,0,0,14,424.3,99.2)" />
<use xlink:href="#f0_2b" transform="matrix(14,0,0,14,436.2,99.2)" />
<use xlink:href="#f0_28" transform="matrix(14,0,0,14,452.2,99.2)" />
<use xlink:href="#f0_2b" transform="matrix(14,0,0,14,458.2,99.2)" />
<use xlink:href="#f0_2i" transform="matrix(14,0,0,14,468.9,99.2)" />
<use xlink:href="#f0_21" transform="matrix(14,0,0,14,479.5,99.2)" />
<use xlink:href="#f0_g" transform="matrix(14,0,0,14,489,99.2)" />
<use xlink:href="#f0_29" transform="matrix(14,0,0,14,499.7,99.2)" />
<use xlink:href="#f0_2l" transform="matrix(14,0,0,14,517.5,99.2)" />
<use xlink:href="#f0_2f" transform="matrix(14,0,0,14,533.5,99.2)" />
<use xlink:href="#f0_2c" transform="matrix(14,0,0,14,541.8,99.2)" />
<use xlink:href="#f0_21" transform="matrix(14,0,0,14,553.7,99.2)" />
<use xlink:href="#f0_21" transform="matrix(14,0,0,14,563.2,99.2)" />
<use xlink:href="#f0_1z" transform="matrix(14,0,0,14,572.7,99.2)" />
<use xlink:href="#f0_24" transform="matrix(14,0,0,14,582.2,99.2)" />
<use xlink:href="#f0_25" transform="matrix(14,0,0,14,599.4,99.2)" />
<use xlink:href="#f0_2f" transform="matrix(14,0,0,14,605.5,99.2)" />
<use xlink:href="#f0_2a" transform="matrix(14,0,0,14,619.1,99.2)" />
<use xlink:href="#f0_2b" transform="matrix(14,0,0,14,631,99.2)" />
<use xlink:href="#f0_29" transform="matrix(14,0,0,14,647,99.2)" />
<use xlink:href="#f0_2b" transform="matrix(14,0,0,14,664.8,99.2)" />
<use xlink:href="#f0_2e" transform="matrix(14,0,0,14,675.5,99.2)" />
<use xlink:href="#f0_21" transform="matrix(14,0,0,14,685,99.2)" />
<use xlink:href="#f0_2g" transform="matrix(14,0,0,14,303.5,123.7)" />
<use xlink:href="#f0_24" transform="matrix(14,0,0,14,310.6,123.7)" />
<use xlink:href="#f0_1x" transform="matrix(14,0,0,14,322.5,123.7)" />
<use xlink:href="#f0_2a" transform="matrix(14,0,0,14,333.2,123.7)" />
<use xlink:href="#f0_1x" transform="matrix(14,0,0,14,350.4,123.7)" />
<use xlink:href="#f0_2a" transform="matrix(14,0,0,14,366.5,123.7)" />
<use xlink:href="#f0_2b" transform="matrix(14,0,0,14,378.4,123.7)" />
<use xlink:href="#f0_25" transform="matrix(14,0,0,14,389.1,123.7)" />
<use xlink:href="#f0_2f" transform="matrix(14,0,0,14,394.9,123.7)" />
<use xlink:href="#f0_2l" transform="matrix(14,0,0,14,403.3,123.7)" />
<use xlink:href="#f0_23" transform="matrix(14,0,0,14,419.3,123.7)" />
<use xlink:href="#f0_2b" transform="matrix(14,0,0,14,430,123.7)" />
<use xlink:href="#f0_2a" transform="matrix(14,0,0,14,440.7,123.7)" />
<use xlink:href="#f0_23" transform="matrix(14,0,0,14,452.6,123.7)" />
<use xlink:href="#f0_2b" transform="matrix(14,0,0,14,468.6,123.7)" />
<use xlink:href="#f0_2e" transform="matrix(14,0,0,14,479.3,123.7)" />
<use xlink:href="#f0_1x" transform="matrix(14,0,0,14,494.1,123.7)" />
<use xlink:href="#f0_1z" transform="matrix(14,0,0,14,510.1,123.7)" />
<use xlink:href="#f0_28" transform="matrix(14,0,0,14,519.7,123.7)" />
<use xlink:href="#f0_1x" transform="matrix(14,0,0,14,525.6,123.7)" />
<use xlink:href="#f0_2a" transform="matrix(14,0,0,14,536.3,123.7)" />
<use xlink:href="#f0_23" transform="matrix(14,0,0,14,548.2,123.7)" />
<use xlink:href="#f0_25" transform="matrix(14,0,0,14,558.9,123.7)" />
<use xlink:href="#f0_2a" transform="matrix(14,0,0,14,564.9,123.7)" />
<use xlink:href="#f0_23" transform="matrix(14,0,0,14,576.8,123.7)" />
<use xlink:href="#f0_1y" transform="matrix(14,0,0,14,592.8,123.7)" />
<use xlink:href="#f0_21" transform="matrix(14,0,0,14,604.7,123.7)" />
<use xlink:href="#f0_28" transform="matrix(14,0,0,14,614.2,123.7)" />
<use xlink:href="#f0_28" transform="matrix(14,0,0,14,620.2,123.7)" />
<use xlink:href="#f0_i" transform="matrix(14,0,0,14,626.1,123.7)" />
<use xlink:href="#f0_c" transform="matrix(14,0,0,14,375.4,173)" />
<use xlink:href="#f0_l" transform="matrix(14,0,0,14,382.5,173)" />
<use xlink:href="#f0_13" transform="matrix(14,0,0,14,398.5,173)" />
<use xlink:href="#f0_2b" transform="matrix(14,0,0,14,413.9,173)" />
<use xlink:href="#f0_2e" transform="matrix(14,0,0,14,424.6,173)" />
<use xlink:href="#f0_25" transform="matrix(14,0,0,14,434.1,173)" />
<use xlink:href="#f0_2a" transform="matrix(14,0,0,14,440.1,173)" />
<use xlink:href="#f0_2g" transform="matrix(14,0,0,14,452,173)" />
<use xlink:href="#f0_24" transform="matrix(14,0,0,14,459.1,173)" />
<use xlink:href="#f0_25" transform="matrix(14,0,0,14,471,173)" />
<use xlink:href="#f0_1x" transform="matrix(14,0,0,14,477,173)" />
<use xlink:href="#f0_2a" transform="matrix(14,0,0,14,487.7,173)" />
<use xlink:href="#f0_2f" transform="matrix(14,0,0,14,499.6,173)" />
<use xlink:href="#f0_l" transform="matrix(14,0,0,14,513.2,173)" />
<use xlink:href="#f0_n" transform="matrix(14,0,0,14,523.9,173)" />
<use xlink:href="#f0_u" transform="matrix(14,0,0,14,534.6,173)" />
<use xlink:href="#f0_l" transform="matrix(14,0,0,14,541.7,173)" />
<use xlink:href="#f0_d" transform="matrix(14,0,0,14,552.4,173)" />
<use xlink:href="#f0_1f" transform="matrix(14,0,0,14,56.1,468.1)" />
<use xlink:href="#f0_2g" transform="matrix(14,0,0,14,72.7,468.1)" />
<use xlink:href="#f0_24" transform="matrix(14,0,0,14,79.8,468.1)" />
<use xlink:href="#f0_21" transform="matrix(14,0,0,14,91.7,468.1)" />
<use xlink:href="#f0_2e" transform="matrix(14,0,0,14,101.2,468.1)" />
<use xlink:href="#f0_1y" transform="matrix(14,0,0,14,116.1,468.1)" />
<use xlink:href="#f0_2b" transform="matrix(14,0,0,14,128,468.1)" />
<use xlink:href="#f0_2b" transform="matrix(14,0,0,14,138.7,468.1)" />
<use xlink:href="#f0_27" transform="matrix(14,0,0,14,149.4,468.1)" />
<use xlink:href="#f0_2f" transform="matrix(14,0,0,14,161.3,468.1)" />
<use xlink:href="#f0_1y" transform="matrix(14,0,0,14,174.9,468.1)" />
<use xlink:href="#f0_2l" transform="matrix(14,0,0,14,186.8,468.1)" />
<use xlink:href="#f0_14" transform="matrix(14,0,0,14,202.9,468.1)" />
<use xlink:href="#f0_2b" transform="matrix(14,0,0,14,218.3,468.1)" />
<use xlink:href="#f0_2a" transform="matrix(14,0,0,14,229,468.1)" />
<use xlink:href="#f0_1c" transform="matrix(14,0,0,14,246.2,468.1)" />
<use xlink:href="#f0_1x" transform="matrix(14,0,0,14,260.5,468.1)" />
<use xlink:href="#f0_12" transform="matrix(14,0,0,14,276.5,468.1)" />
<use xlink:href="#f0_2b" transform="matrix(14,0,0,14,290.8,468.1)" />
<use xlink:href="#f0_2a" transform="matrix(14,0,0,14,301.5,468.1)" />
<use xlink:href="#f0_2g" transform="matrix(14,0,0,14,313.4,468.1)" />
<use xlink:href="#f0_21" transform="matrix(14,0,0,14,320.5,468.1)" />
<use xlink:href="#f0_u" transform="matrix(14,0,0,14,330.1,468.1)" />
<use xlink:href="#f0_1c" transform="matrix(14,0,0,14,111.1,492.7)" />
<use xlink:href="#f0_1x" transform="matrix(14,0,0,14,125.3,492.7)" />
<use xlink:href="#f0_12" transform="matrix(14,0,0,14,141.3,492.7)" />
<use xlink:href="#f0_2b" transform="matrix(14,0,0,14,155.6,492.7)" />
<use xlink:href="#f0_2a" transform="matrix(14,0,0,14,166.3,492.7)" />
<use xlink:href="#f0_2g" transform="matrix(14,0,0,14,178.2,492.7)" />
<use xlink:href="#f0_21" transform="matrix(14,0,0,14,185.3,492.7)" />
<use xlink:href="#f0_b" transform="matrix(14,0,0,14,194.8,492.7)" />
<use xlink:href="#f0_2f" transform="matrix(14,0,0,14,200.9,492.7)" />
<use xlink:href="#f0_15" transform="matrix(14,0,0,14,214.5,492.7)" />
<use xlink:href="#f0_2a" transform="matrix(14,0,0,14,228.8,492.7)" />
<use xlink:href="#f0_23" transform="matrix(14,0,0,14,240.7,492.7)" />
<use xlink:href="#f0_28" transform="matrix(14,0,0,14,251.4,492.7)" />
<use xlink:href="#f0_25" transform="matrix(14,0,0,14,257.3,492.7)" />
<use xlink:href="#f0_2f" transform="matrix(14,0,0,14,263.3,492.7)" />
<use xlink:href="#f0_24" transform="matrix(14,0,0,14,271.6,492.7)" />
<use xlink:href="#f0_13" transform="matrix(14,0,0,14,288.8,492.7)" />
<use xlink:href="#f0_2b" transform="matrix(14,0,0,14,304.2,492.7)" />
<use xlink:href="#f0_2a" transform="matrix(14,0,0,14,314.9,492.7)" />
<use xlink:href="#f0_2i" transform="matrix(14,0,0,14,326.8,492.7)" />
<use xlink:href="#f0_21" transform="matrix(14,0,0,14,337.5,492.7)" />
<use xlink:href="#f0_2e" transform="matrix(14,0,0,14,347,492.7)" />
<use xlink:href="#f0_2f" transform="matrix(14,0,0,14,356.5,492.7)" />
<use xlink:href="#f0_1x" transform="matrix(14,0,0,14,364.8,492.7)" />
<use xlink:href="#f0_2g" transform="matrix(14,0,0,14,375.5,492.7)" />
<use xlink:href="#f0_25" transform="matrix(14,0,0,14,382.7,492.7)" />
<use xlink:href="#f0_2b" transform="matrix(14,0,0,14,388.6,492.7)" />
<use xlink:href="#f0_2a" transform="matrix(14,0,0,14,399.3,492.7)" />
<use xlink:href="#f0_1k" transform="matrix(14,0,0,14,416.5,492.7)" />
<use xlink:href="#f0_2b" transform="matrix(14,0,0,14,430.8,492.7)" />
<use xlink:href="#f0_2c" transform="matrix(14,0,0,14,441.5,492.7)" />
<use xlink:href="#f0_25" transform="matrix(14,0,0,14,453.4,492.7)" />
<use xlink:href="#f0_1z" transform="matrix(14,0,0,14,459.3,492.7)" />
<use xlink:href="#f0_2f" transform="matrix(14,0,0,14,468.8,492.7)" />
<use xlink:href="#f0_1c" transform="matrix(14,0,0,14,111.1,517.3)" />
<use xlink:href="#f0_1x" transform="matrix(14,0,0,14,125.3,517.3)" />
<use xlink:href="#f0_12" transform="matrix(14,0,0,14,136,517.3)" />
<use xlink:href="#f0_2b" transform="matrix(14,0,0,14,150.3,517.3)" />
<use xlink:href="#f0_2a" transform="matrix(14,0,0,14,161,517.3)" />
<use xlink:href="#f0_2g" transform="matrix(14,0,0,14,172.9,517.3)" />
<use xlink:href="#f0_21" transform="matrix(14,0,0,14,180,517.3)" />
<use xlink:href="#f0_1k5" transform="matrix(14,0,0,14,189.5,517.3)" />
<use xlink:href="#f0_2f" transform="matrix(14,0,0,14,196.6,517.3)" />
<use xlink:href="#f0_13" transform="matrix(14,0,0,14,210.3,517.3)" />
<use xlink:href="#f0_2b" transform="matrix(14,0,0,14,225.7,517.3)" />
<use xlink:href="#f0_2a" transform="matrix(14,0,0,14,236.4,517.3)" />
<use xlink:href="#f0_2i" transform="matrix(14,0,0,14,248.3,517.3)" />
<use xlink:href="#f0_21" transform="matrix(14,0,0,14,259,517.3)" />
<use xlink:href="#f0_2e" transform="matrix(14,0,0,14,268.5,517.3)" />
<use xlink:href="#f0_2f" transform="matrix(14,0,0,14,278,517.3)" />
<use xlink:href="#f0_1x" transform="matrix(14,0,0,14,286.3,517.3)" />
<use xlink:href="#f0_2g" transform="matrix(14,0,0,14,297,517.3)" />
<use xlink:href="#f0_25" transform="matrix(14,0,0,14,304.2,517.3)" />
<use xlink:href="#f0_2b" transform="matrix(14,0,0,14,310.1,517.3)" />
<use xlink:href="#f0_2a" transform="matrix(14,0,0,14,320.8,517.3)" />
<use xlink:href="#f0_1g" transform="matrix(14,0,0,14,338,517.3)" />
<use xlink:href="#f0_1x" transform="matrix(14,0,0,14,351.1,517.3)" />
<use xlink:href="#f0_2g" transform="matrix(14,0,0,14,361.9,517.3)" />
<use xlink:href="#f0_2g" transform="matrix(14,0,0,14,369,517.3)" />
<use xlink:href="#f0_21" transform="matrix(14,0,0,14,376.1,517.3)" />
<use xlink:href="#f0_2e" transform="matrix(14,0,0,14,385.6,517.3)" />
<use xlink:href="#f0_2a" transform="matrix(14,0,0,14,395,517.3)" />
<use xlink:href="#f0_2f" transform="matrix(14,0,0,14,406.9,517.3)" />
<use xlink:href="#f0_h" transform="matrix(14,0,0,14,415.2,517.3)" />
<use xlink:href="#f0_1k" transform="matrix(14,0,0,14,427.6,517.3)" />
<use xlink:href="#f0_21" transform="matrix(14,0,0,14,441.9,517.3)" />
<use xlink:href="#f0_1x" transform="matrix(14,0,0,14,451.4,517.3)" />
<use xlink:href="#f0_1z" transform="matrix(14,0,0,14,462.2,517.3)" />
<use xlink:href="#f0_24" transform="matrix(14,0,0,14,471.6,517.3)" />
<use xlink:href="#f0_21" transform="matrix(14,0,0,14,483.5,517.3)" />
<use xlink:href="#f0_2e" transform="matrix(14,0,0,14,493,517.3)" />
<use xlink:href="#f0_2f" transform="matrix(14,0,0,14,502.4,517.3)" />
<use xlink:href="#f0_1d" transform="matrix(14,0,0,14,516.2,517.3)" />
<use xlink:href="#f0_1x" transform="matrix(14,0,0,14,536.4,517.3)" />
<use xlink:href="#f0_2a" transform="matrix(14,0,0,14,547,517.3)" />
<use xlink:href="#f0_2h" transform="matrix(14,0,0,14,558.9,517.3)" />
<use xlink:href="#f0_1x" transform="matrix(14,0,0,14,570.8,517.3)" />
<use xlink:href="#f0_28" transform="matrix(14,0,0,14,581.5,517.3)" />
<use xlink:href="#f0_2j" transform="matrix(14,0,0,14,349,689.5)" />
<use xlink:href="#f0_2j" transform="matrix(14,0,0,14,364.4,689.5)" />
<use xlink:href="#f0_2j" transform="matrix(14,0,0,14,379.8,689.5)" />
<use xlink:href="#f0_i" transform="matrix(14,0,0,14,395.2,689.5)" />
<use xlink:href="#f0_28" transform="matrix(14,0,0,14,400.6,689.5)" />
<use xlink:href="#f0_1x" transform="matrix(14,0,0,14,406.5,689.5)" />
<use xlink:href="#f0_1y" transform="matrix(14,0,0,14,417.2,689.5)" />
<use xlink:href="#f0_2b" transform="matrix(14,0,0,14,429.1,689.5)" />
<use xlink:href="#f0_2a" transform="matrix(14,0,0,14,439.8,689.5)" />
<use xlink:href="#f0_2g" transform="matrix(14,0,0,14,451.6,689.5)" />
<use xlink:href="#f0_21" transform="matrix(14,0,0,14,458.8,689.5)" />
<use xlink:href="#f0_21" transform="matrix(14,0,0,14,468.2,689.5)" />
<use xlink:href="#f0_2f" transform="matrix(14,0,0,14,477.7,689.5)" />
<use xlink:href="#f0_28" transform="matrix(14,0,0,14,486,689.5)" />
<use xlink:href="#f0_i" transform="matrix(14,0,0,14,492,689.5)" />
<use xlink:href="#f0_2j" transform="matrix(14,0,0,14,497.3,689.5)" />
<use xlink:href="#f0_21" transform="matrix(14,0,0,14,512.8,689.5)" />
<use xlink:href="#f0_1y" transform="matrix(14,0,0,14,522.4,689.5)" />
<use xlink:href="#f0_2f" transform="matrix(14,0,0,14,534.3,689.5)" />
<use xlink:href="#f0_i" transform="matrix(14,0,0,14,542.6,689.5)" />
<use xlink:href="#f0_1z" transform="matrix(14,0,0,14,547.9,689.5)" />
<use xlink:href="#f0_2b" transform="matrix(14,0,0,14,557.4,689.5)" />
<use xlink:href="#f0_29" transform="matrix(14,0,0,14,568.1,689.5)" />
<use xlink:href="#f0_13" transform="matrix(14,0,0,14,270.5,886.2)" />
<use xlink:href="#f0_1f" transform="matrix(14,0,0,14,285.9,886.2)" />
<use xlink:href="#f0_1g" transform="matrix(14,0,0,14,302.6,886.2)" />
<use xlink:href="#f0_1p" transform="matrix(14,0,0,14,315.7,886.2)" />
<use xlink:href="#f0_1i" transform="matrix(14,0,0,14,331.1,886.2)" />
<use xlink:href="#f0_19" transform="matrix(14,0,0,14,346.6,886.2)" />
<use xlink:href="#f0_17" transform="matrix(14,0,0,14,354.9,886.2)" />
<use xlink:href="#f0_18" transform="matrix(14,0,0,14,371.5,886.2)" />
<use xlink:href="#f0_1k" transform="matrix(14,0,0,14,388.2,886.2)" />
<use xlink:href="#f0_l" transform="matrix(14,0,0,14,423.8,886.2)" />
<use xlink:href="#f0_t" transform="matrix(14,0,0,14,434.5,886.2)" />
<use xlink:href="#f0_t" transform="matrix(14,0,0,14,445.2,886.2)" />
<use xlink:href="#f0_s" transform="matrix(14,0,0,14,455.9,886.2)" />
<use xlink:href="#f0_1y" transform="matrix(14,0,0,14,509.3,886.2)" />
<use xlink:href="#f0_2l" transform="matrix(14,0,0,14,521.2,886.2)" />
<use xlink:href="#f0_14" transform="matrix(14,0,0,14,537.3,886.2)" />
<use xlink:href="#f0_2b" transform="matrix(14,0,0,14,552.7,886.2)" />
<use xlink:href="#f0_2a" transform="matrix(14,0,0,14,563.4,886.2)" />
<use xlink:href="#f0_1c" transform="matrix(14,0,0,14,580.7,886.2)" />
<use xlink:href="#f0_1x" transform="matrix(14,0,0,14,594.9,886.2)" />
<use xlink:href="#f0_12" transform="matrix(14,0,0,14,611.1,886.2)" />
<use xlink:href="#f0_2b" transform="matrix(14,0,0,14,625.3,886.2)" />
<use xlink:href="#f0_2a" transform="matrix(14,0,0,14,636,886.2)" />
<use xlink:href="#f0_2g" transform="matrix(14,0,0,14,647.9,886.2)" />
<use xlink:href="#f0_21" transform="matrix(14,0,0,14,655.1,886.2)" />
<use xlink:href="#f0_11" transform="matrix(12,0,0,12,56.1,907.9)" />
<use xlink:href="#f0_28" transform="matrix(12,0,0,12,69.3,907.9)" />
<use xlink:href="#f0_28" transform="matrix(12,0,0,12,74.4,907.9)" />
<use xlink:href="#f0_2e" transform="matrix(12,0,0,12,84.1,907.9)" />
<use xlink:href="#f0_25" transform="matrix(12,0,0,12,92.3,907.9)" />
<use xlink:href="#f0_23" transform="matrix(12,0,0,12,97.4,907.9)" />
<use xlink:href="#f0_24" transform="matrix(12,0,0,12,106.5,907.9)" />
<use xlink:href="#f0_2g" transform="matrix(12,0,0,12,116.7,907.9)" />
<use xlink:href="#f0_2f" transform="matrix(12,0,0,12,122.8,907.9)" />
<use xlink:href="#f0_2e" transform="matrix(12,0,0,12,134.5,907.9)" />
<use xlink:href="#f0_21" transform="matrix(12,0,0,12,142.7,907.9)" />
<use xlink:href="#f0_2f" transform="matrix(12,0,0,12,150.8,907.9)" />
<use xlink:href="#f0_21" transform="matrix(12,0,0,12,158,907.9)" />
<use xlink:href="#f0_2e" transform="matrix(12,0,0,12,166.1,907.9)" />
<use xlink:href="#f0_2i" transform="matrix(12,0,0,12,174.2,907.9)" />
<use xlink:href="#f0_21" transform="matrix(12,0,0,12,183.4,907.9)" />
<use xlink:href="#f0_20" transform="matrix(12,0,0,12,191.6,907.9)" />
<use xlink:href="#f0_i" transform="matrix(12,0,0,12,201.8,907.9)" />
<use xlink:href="#f0_1e" transform="matrix(12,0,0,12,210.9,907.9)" />
<use xlink:href="#f0_2b" transform="matrix(12,0,0,12,224.2,907.9)" />
<use xlink:href="#f0_2c" transform="matrix(12,0,0,12,237.9,907.9)" />
<use xlink:href="#f0_1x" transform="matrix(12,0,0,12,248.1,907.9)" />
<use xlink:href="#f0_2e" transform="matrix(12,0,0,12,257.3,907.9)" />
<use xlink:href="#f0_2g" transform="matrix(12,0,0,12,265.4,907.9)" />
<use xlink:href="#f0_2b" transform="matrix(12,0,0,12,276.1,907.9)" />
<use xlink:href="#f0_22" transform="matrix(12,0,0,12,285.2,907.9)" />
<use xlink:href="#f0_2g" transform="matrix(12,0,0,12,295.9,907.9)" />
<use xlink:href="#f0_24" transform="matrix(12,0,0,12,302,907.9)" />
<use xlink:href="#f0_25" transform="matrix(12,0,0,12,312.2,907.9)" />
<use xlink:href="#f0_2f" transform="matrix(12,0,0,12,317.3,907.9)" />
<use xlink:href="#f0_1y" transform="matrix(12,0,0,12,329,907.9)" />
<use xlink:href="#f0_2b" transform="matrix(12,0,0,12,339.2,907.9)" />
<use xlink:href="#f0_2b" transform="matrix(12,0,0,12,348.4,907.9)" />
<use xlink:href="#f0_27" transform="matrix(12,0,0,12,357.5,907.9)" />
<use xlink:href="#f0_1z" transform="matrix(12,0,0,12,372.3,907.9)" />
<use xlink:href="#f0_2b" transform="matrix(12,0,0,12,380.4,907.9)" />
<use xlink:href="#f0_2i" transform="matrix(12,0,0,12,389.6,907.9)" />
<use xlink:href="#f0_21" transform="matrix(12,0,0,12,398.8,907.9)" />
<use xlink:href="#f0_2e" transform="matrix(12,0,0,12,406.9,907.9)" />
<use xlink:href="#f0_21" transform="matrix(12,0,0,12,415.1,907.9)" />
<use xlink:href="#f0_20" transform="matrix(12,0,0,12,423.2,907.9)" />
<use xlink:href="#f0_1y" transform="matrix(12,0,0,12,438,907.9)" />
<use xlink:href="#f0_2l" transform="matrix(12,0,0,12,448.2,907.9)" />
<use xlink:href="#f0_2g" transform="matrix(12,0,0,12,461.9,907.9)" />
<use xlink:href="#f0_24" transform="matrix(12,0,0,12,468,907.9)" />
<use xlink:href="#f0_21" transform="matrix(12,0,0,12,478.2,907.9)" />
<use xlink:href="#f0_1z" transform="matrix(12,0,0,12,491,907.9)" />
<use xlink:href="#f0_2b" transform="matrix(12,0,0,12,499.1,907.9)" />
<use xlink:href="#f0_2c" transform="matrix(12,0,0,12,508.3,907.9)" />
<use xlink:href="#f0_2l" transform="matrix(12,0,0,12,518.5,907.9)" />
<use xlink:href="#f0_2e" transform="matrix(12,0,0,12,527.6,907.9)" />
<use xlink:href="#f0_25" transform="matrix(12,0,0,12,535.8,907.9)" />
<use xlink:href="#f0_23" transform="matrix(12,0,0,12,540.9,907.9)" />
<use xlink:href="#f0_24" transform="matrix(12,0,0,12,550,907.9)" />
<use xlink:href="#f0_2g" transform="matrix(12,0,0,12,560.2,907.9)" />
<use xlink:href="#f0_2f" transform="matrix(12,0,0,12,566.3,907.9)" />
<use xlink:href="#f0_24" transform="matrix(12,0,0,12,578.1,907.9)" />
<use xlink:href="#f0_21" transform="matrix(12,0,0,12,588.3,907.9)" />
<use xlink:href="#f0_2e" transform="matrix(12,0,0,12,596.4,907.9)" />
<use xlink:href="#f0_21" transform="matrix(12,0,0,12,604.5,907.9)" />
<use xlink:href="#f0_2b" transform="matrix(12,0,0,12,617.3,907.9)" />
<use xlink:href="#f0_2a" transform="matrix(12,0,0,12,626.4,907.9)" />
<use xlink:href="#f0_29" transform="matrix(12,0,0,12,641.2,907.9)" />
<use xlink:href="#f0_1x" transform="matrix(12,0,0,12,656.5,907.9)" />
<use xlink:href="#f0_2l" transform="matrix(12,0,0,12,665.7,907.9)" />
<use xlink:href="#f0_1y" transform="matrix(12,0,0,12,679.4,907.9)" />
<use xlink:href="#f0_21" transform="matrix(12,0,0,12,689.6,907.9)" />
<use xlink:href="#f0_2c" transform="matrix(12,0,0,12,702.3,907.9)" />
<use xlink:href="#f0_2e" transform="matrix(12,0,0,12,712.5,907.9)" />
<use xlink:href="#f0_2b" transform="matrix(12,0,0,12,720.7,907.9)" />
<use xlink:href="#f0_20" transform="matrix(12,0,0,12,729.8,907.9)" />
<use xlink:href="#f0_2h" transform="matrix(12,0,0,12,740,907.9)" />
<use xlink:href="#f0_1z" transform="matrix(12,0,0,12,750.2,907.9)" />
<use xlink:href="#f0_21" transform="matrix(12,0,0,12,758.4,907.9)" />
<use xlink:href="#f0_20" transform="matrix(12,0,0,12,766.5,907.9)" />
<use xlink:href="#f0_25" transform="matrix(12,0,0,12,781.3,907.9)" />
<use xlink:href="#f0_2a" transform="matrix(12,0,0,12,786.4,907.9)" />
<use xlink:href="#f0_1x" transform="matrix(12,0,0,12,801.2,907.9)" />
<use xlink:href="#f0_2a" transform="matrix(12,0,0,12,810.3,907.9)" />
<use xlink:href="#f0_2l" transform="matrix(12,0,0,12,820.5,907.9)" />
<use xlink:href="#f0_22" transform="matrix(12,0,0,12,834.3,907.9)" />
<use xlink:href="#f0_2b" transform="matrix(12,0,0,12,840.4,907.9)" />
<use xlink:href="#f0_2e" transform="matrix(12,0,0,12,849.6,907.9)" />
<use xlink:href="#f0_29" transform="matrix(12,0,0,12,857.7,907.9)" />
<use xlink:href="#f0_2b" transform="matrix(12,0,0,12,56.1,928.9)" />
<use xlink:href="#f0_2e" transform="matrix(12,0,0,12,65.3,928.9)" />
<use xlink:href="#f0_29" transform="matrix(12,0,0,12,78,928.9)" />
<use xlink:href="#f0_21" transform="matrix(12,0,0,12,93.3,928.9)" />
<use xlink:href="#f0_1x" transform="matrix(12,0,0,12,101.4,928.9)" />
<use xlink:href="#f0_2a" transform="matrix(12,0,0,12,110.6,928.9)" />
<use xlink:href="#f0_2f" transform="matrix(12,0,0,12,120.8,928.9)" />
<use xlink:href="#f0_h" transform="matrix(12,0,0,12,132.5,928.9)" />
<use xlink:href="#f0_23" transform="matrix(12,0,0,12,143.2,928.9)" />
<use xlink:href="#f0_2e" transform="matrix(12,0,0,12,152.4,928.9)" />
<use xlink:href="#f0_1x" transform="matrix(12,0,0,12,160.5,928.9)" />
<use xlink:href="#f0_2c" transform="matrix(12,0,0,12,169.7,928.9)" />
<use xlink:href="#f0_24" transform="matrix(12,0,0,12,179.9,928.9)" />
<use xlink:href="#f0_25" transform="matrix(12,0,0,12,190.1,928.9)" />
<use xlink:href="#f0_1z" transform="matrix(12,0,0,12,195.2,928.9)" />
<use xlink:href="#f0_g" transform="matrix(12,0,0,12,203.3,928.9)" />
<use xlink:href="#f0_21" transform="matrix(12,0,0,12,212.5,928.9)" />
<use xlink:href="#f0_28" transform="matrix(12,0,0,12,220.7,928.9)" />
<use xlink:href="#f0_21" transform="matrix(12,0,0,12,225.8,928.9)" />
<use xlink:href="#f0_1z" transform="matrix(12,0,0,12,233.9,928.9)" />
<use xlink:href="#f0_2g" transform="matrix(12,0,0,12,242.1,928.9)" />
<use xlink:href="#f0_2e" transform="matrix(12,0,0,12,248.2,928.9)" />
<use xlink:href="#f0_2b" transform="matrix(12,0,0,12,256.3,928.9)" />
<use xlink:href="#f0_2a" transform="matrix(12,0,0,12,265.5,928.9)" />
<use xlink:href="#f0_25" transform="matrix(12,0,0,12,275.7,928.9)" />
<use xlink:href="#f0_1z" transform="matrix(12,0,0,12,280.8,928.9)" />
<use xlink:href="#f0_g" transform="matrix(12,0,0,12,289,928.9)" />
<use xlink:href="#f0_2b" transform="matrix(12,0,0,12,298.1,928.9)" />
<use xlink:href="#f0_2e" transform="matrix(12,0,0,12,307.2,928.9)" />
<use xlink:href="#f0_29" transform="matrix(12,0,0,12,319.9,928.9)" />
<use xlink:href="#f0_21" transform="matrix(12,0,0,12,335.2,928.9)" />
<use xlink:href="#f0_1z" transform="matrix(12,0,0,12,343.4,928.9)" />
<use xlink:href="#f0_24" transform="matrix(12,0,0,12,351.5,928.9)" />
<use xlink:href="#f0_1x" transform="matrix(12,0,0,12,361.7,928.9)" />
<use xlink:href="#f0_2a" transform="matrix(12,0,0,12,370.9,928.9)" />
<use xlink:href="#f0_25" transform="matrix(12,0,0,12,381.1,928.9)" />
<use xlink:href="#f0_1z" transform="matrix(12,0,0,12,386.2,928.9)" />
<use xlink:href="#f0_1x" transform="matrix(12,0,0,12,394.3,928.9)" />
<use xlink:href="#f0_28" transform="matrix(12,0,0,12,403.4,928.9)" />
<use xlink:href="#f0_g" transform="matrix(12,0,0,12,408.6,928.9)" />
<use xlink:href="#f0_25" transform="matrix(12,0,0,12,417.6,928.9)" />
<use xlink:href="#f0_2a" transform="matrix(12,0,0,12,422.7,928.9)" />
<use xlink:href="#f0_1z" transform="matrix(12,0,0,12,432.9,928.9)" />
<use xlink:href="#f0_28" transform="matrix(12,0,0,12,441,928.9)" />
<use xlink:href="#f0_2h" transform="matrix(12,0,0,12,446.1,928.9)" />
<use xlink:href="#f0_20" transform="matrix(12,0,0,12,456.3,928.9)" />
<use xlink:href="#f0_25" transform="matrix(12,0,0,12,466.5,928.9)" />
<use xlink:href="#f0_2a" transform="matrix(12,0,0,12,471.6,928.9)" />
<use xlink:href="#f0_23" transform="matrix(12,0,0,12,481.8,928.9)" />
<use xlink:href="#f0_2c" transform="matrix(12,0,0,12,495.6,928.9)" />
<use xlink:href="#f0_24" transform="matrix(12,0,0,12,505.8,928.9)" />
<use xlink:href="#f0_2b" transform="matrix(12,0,0,12,516,928.9)" />
<use xlink:href="#f0_2g" transform="matrix(12,0,0,12,525.1,928.9)" />
<use xlink:href="#f0_2b" transform="matrix(12,0,0,12,531.3,928.9)" />
<use xlink:href="#f0_1z" transform="matrix(12,0,0,12,540.4,928.9)" />
<use xlink:href="#f0_2b" transform="matrix(12,0,0,12,548.6,928.9)" />
<use xlink:href="#f0_2c" transform="matrix(12,0,0,12,557.7,928.9)" />
<use xlink:href="#f0_2l" transform="matrix(12,0,0,12,567.9,928.9)" />
<use xlink:href="#f0_25" transform="matrix(12,0,0,12,577.1,928.9)" />
<use xlink:href="#f0_2a" transform="matrix(12,0,0,12,582.2,928.9)" />
<use xlink:href="#f0_23" transform="matrix(12,0,0,12,592.4,928.9)" />
<use xlink:href="#f0_g" transform="matrix(12,0,0,12,601.6,928.9)" />
<use xlink:href="#f0_2e" transform="matrix(12,0,0,12,610.8,928.9)" />
<use xlink:href="#f0_21" transform="matrix(12,0,0,12,618.9,928.9)" />
<use xlink:href="#f0_1z" transform="matrix(12,0,0,12,627.1,928.9)" />
<use xlink:href="#f0_2b" transform="matrix(12,0,0,12,635.2,928.9)" />
<use xlink:href="#f0_2e" transform="matrix(12,0,0,12,644.4,928.9)" />
<use xlink:href="#f0_20" transform="matrix(12,0,0,12,652.5,928.9)" />
<use xlink:href="#f0_25" transform="matrix(12,0,0,12,662.7,928.9)" />
<use xlink:href="#f0_2a" transform="matrix(12,0,0,12,667.8,928.9)" />
<use xlink:href="#f0_23" transform="matrix(12,0,0,12,677.9,928.9)" />
<use xlink:href="#f0_g" transform="matrix(12,0,0,12,687.1,928.9)" />
<use xlink:href="#f0_2g" transform="matrix(12,0,0,12,696.3,928.9)" />
<use xlink:href="#f0_1x" transform="matrix(12,0,0,12,702.4,928.9)" />
<use xlink:href="#f0_2c" transform="matrix(12,0,0,12,711.5,928.9)" />
<use xlink:href="#f0_25" transform="matrix(12,0,0,12,721.7,928.9)" />
<use xlink:href="#f0_2a" transform="matrix(12,0,0,12,726.9,928.9)" />
<use xlink:href="#f0_23" transform="matrix(12,0,0,12,737.1,928.9)" />
<use xlink:href="#f0_2b" transform="matrix(12,0,0,12,750.8,928.9)" />
<use xlink:href="#f0_2e" transform="matrix(12,0,0,12,760,928.9)" />
<use xlink:href="#f0_25" transform="matrix(12,0,0,12,772.6,928.9)" />
<use xlink:href="#f0_2a" transform="matrix(12,0,0,12,777.7,928.9)" />
<use xlink:href="#f0_22" transform="matrix(12,0,0,12,787.9,928.9)" />
<use xlink:href="#f0_2b" transform="matrix(12,0,0,12,794.1,928.9)" />
<use xlink:href="#f0_2e" transform="matrix(12,0,0,12,803.2,928.9)" />
<use xlink:href="#f0_29" transform="matrix(12,0,0,12,811.4,928.9)" />
<use xlink:href="#f0_1x" transform="matrix(12,0,0,12,826.7,928.9)" />
<use xlink:href="#f0_2g" transform="matrix(12,0,0,12,835.7,928.9)" />
<use xlink:href="#f0_25" transform="matrix(12,0,0,12,841.9,928.9)" />
<use xlink:href="#f0_2b" transform="matrix(12,0,0,12,847,928.9)" />
<use xlink:href="#f0_2a" transform="matrix(12,0,0,12,856.1,928.9)" />
<use xlink:href="#f0_2f" transform="matrix(12,0,0,12,56.1,950)" />
<use xlink:href="#f0_2g" transform="matrix(12,0,0,12,63.2,950)" />
<use xlink:href="#f0_2b" transform="matrix(12,0,0,12,69.4,950)" />
<use xlink:href="#f0_2e" transform="matrix(12,0,0,12,78.5,950)" />
<use xlink:href="#f0_1x" transform="matrix(12,0,0,12,86.7,950)" />
<use xlink:href="#f0_23" transform="matrix(12,0,0,12,95.8,950)" />
<use xlink:href="#f0_21" transform="matrix(12,0,0,12,105,950)" />
<use xlink:href="#f0_2e" transform="matrix(12,0,0,12,117.8,950)" />
<use xlink:href="#f0_21" transform="matrix(12,0,0,12,125.9,950)" />
<use xlink:href="#f0_2g" transform="matrix(12,0,0,12,134,950)" />
<use xlink:href="#f0_2e" transform="matrix(12,0,0,12,140.2,950)" />
<use xlink:href="#f0_25" transform="matrix(12,0,0,12,148.3,950)" />
<use xlink:href="#f0_21" transform="matrix(12,0,0,12,153.4,950)" />
<use xlink:href="#f0_2i" transform="matrix(12,0,0,12,161.6,950)" />
<use xlink:href="#f0_1x" transform="matrix(12,0,0,12,170.7,950)" />
<use xlink:href="#f0_28" transform="matrix(12,0,0,12,179.9,950)" />
<use xlink:href="#f0_2f" transform="matrix(12,0,0,12,189.6,950)" />
<use xlink:href="#f0_2l" transform="matrix(12,0,0,12,196.7,950)" />
<use xlink:href="#f0_2f" transform="matrix(12,0,0,12,205.9,950)" />
<use xlink:href="#f0_2g" transform="matrix(12,0,0,12,213,950)" />
<use xlink:href="#f0_21" transform="matrix(12,0,0,12,219.2,950)" />
<use xlink:href="#f0_29" transform="matrix(12,0,0,12,227.3,950)" />
<use xlink:href="#f0_2f" transform="matrix(12,0,0,12,242.6,950)" />
<use xlink:href="#f0_h" transform="matrix(12,0,0,12,254.3,950)" />
<use xlink:href="#f0_2j" transform="matrix(12,0,0,12,265,950)" />
<use xlink:href="#f0_25" transform="matrix(12,0,0,12,278.1,950)" />
<use xlink:href="#f0_2g" transform="matrix(12,0,0,12,283.2,950)" />
<use xlink:href="#f0_24" transform="matrix(12,0,0,12,289.4,950)" />
<use xlink:href="#f0_2b" transform="matrix(12,0,0,12,299.6,950)" />
<use xlink:href="#f0_2h" transform="matrix(12,0,0,12,308.7,950)" />
<use xlink:href="#f0_2g" transform="matrix(12,0,0,12,318.9,950)" />
<use xlink:href="#f0_2j" transform="matrix(12,0,0,12,329.5,950)" />
<use xlink:href="#f0_2e" transform="matrix(12,0,0,12,342.6,950)" />
<use xlink:href="#f0_25" transform="matrix(12,0,0,12,350.8,950)" />
<use xlink:href="#f0_2g" transform="matrix(12,0,0,12,355.9,950)" />
<use xlink:href="#f0_2g" transform="matrix(12,0,0,12,362,950)" />
<use xlink:href="#f0_21" transform="matrix(12,0,0,12,368.1,950)" />
<use xlink:href="#f0_2a" transform="matrix(12,0,0,12,376.3,950)" />
<use xlink:href="#f0_2c" transform="matrix(12,0,0,12,391,950)" />
<use xlink:href="#f0_21" transform="matrix(12,0,0,12,401.2,950)" />
<use xlink:href="#f0_2e" transform="matrix(12,0,0,12,409.4,950)" />
<use xlink:href="#f0_29" transform="matrix(12,0,0,12,417.5,950)" />
<use xlink:href="#f0_25" transform="matrix(12,0,0,12,432.8,950)" />
<use xlink:href="#f0_2f" transform="matrix(12,0,0,12,437.9,950)" />
<use xlink:href="#f0_2f" transform="matrix(12,0,0,12,445.1,950)" />
<use xlink:href="#f0_25" transform="matrix(12,0,0,12,452.2,950)" />
<use xlink:href="#f0_2b" transform="matrix(12,0,0,12,457.3,950)" />
<use xlink:href="#f0_2a" transform="matrix(12,0,0,12,466.5,950)" />
<use xlink:href="#f0_2b" transform="matrix(12,0,0,12,481.2,950)" />
<use xlink:href="#f0_22" transform="matrix(12,0,0,12,490.4,950)" />
<use xlink:href="#f0_2g" transform="matrix(12,0,0,12,501.1,950)" />
<use xlink:href="#f0_24" transform="matrix(12,0,0,12,507.2,950)" />
<use xlink:href="#f0_21" transform="matrix(12,0,0,12,517.4,950)" />
<use xlink:href="#f0_1x" transform="matrix(12,0,0,12,530.1,950)" />
<use xlink:href="#f0_2h" transform="matrix(12,0,0,12,539.3,950)" />
<use xlink:href="#f0_2g" transform="matrix(12,0,0,12,549.5,950)" />
<use xlink:href="#f0_24" transform="matrix(12,0,0,12,555.6,950)" />
<use xlink:href="#f0_2b" transform="matrix(12,0,0,12,565.8,950)" />
<use xlink:href="#f0_2e" transform="matrix(12,0,0,12,575,950)" />
<use xlink:href="#f0_i" transform="matrix(12,0,0,12,583.1,950)" />
</g>
<defs>
<path d="M26,0V54L154,74V926L27,945v55H544V945L389,926V79H593c0,0,159,0,234,15l61,208h67L927,0Z"
id="f0_1c"
transform="scale(0.001,-0.001)"/>

<path d="M639,416L478,858L313,416ZM647,0V54L762,74L667,333H283L191,74L319,54V0H15V54L90,74l355,935H662L1016,74l76,-20V0Z"
id="f0_11"
transform="scale(0.001,-0.001)"/>

<path d="M559,77c0,0,87,0,129,53c0,0,42,53,42,162c0,0,0,99,-49,147c0,0,-50,49,-163,49H389V82c0,0,108,-5,170,-5ZM499,570c0,0,80,0,118,42c0,0,38,42,38,141c0,0,0,88,-38,126c0,0,-37,39,-124,39H389V570ZM561,-3L221,0H25V54L154,74V926L25,945v55H511c0,0,199,0,294,-53c0,0,95,-53,95,-173c0,0,0,-89,-56,-154c0,0,-56,-65,-150,-85c0,0,139,-14,211,-76c0,0,71,-61,71,-167c0,0,0,-146,-107,-221C869,71,762,-3,561,-3Z"
id="f0_12"
transform="scale(0.001,-0.001)"/>

<path d="M595,60c0,0,141,0,206,102c0,0,65,102,65,340c0,0,0,236,-65,335c0,0,-65,100,-206,100c0,0,-142,0,-207,-100c0,0,-66,-99,-66,-335c0,0,0,-239,66,-340c0,0,65,-102,207,-102Zm0,-74c0,0,-253,0,-387,130C208,116,75,246,75,501c0,0,0,510,520,510c0,0,256,0,387,-129c0,0,132,-130,132,-381c0,0,0,-254,-133,-385C981,116,848,-14,595,-14Z"
id="f0_1f"
transform="scale(0.001,-0.001)"/>

<path d="M868,0L251,804V74L385,54V0H29V54L157,74V926L29,945v55H371L862,361V926L727,945v55h356V945L955,926V0Z"
id="f0_1e"
transform="scale(0.001,-0.001)"/>

<path d="M231,0V54L390,74V921H352c0,0,-171,0,-240,-15L92,721H24v279H996V721H927L907,906c0,0,-62,14,-245,14H626V74L785,54V0Z"
id="f0_1k"
transform="scale(0.001,-0.001)"/>

<path d="M26,0V54L154,74V926L26,945v55H878V746H810L786,908c0,0,-83,10,-241,10H389V551H651l23,111h67V355H674L651,468H389V82H578c0,0,193,0,252,12l43,185h68L927,0Z"
id="f0_15"
transform="scale(0.001,-0.001)"/>

<path d="M95,554v69c0,0,47,14,81,37c0,0,34,24,52,52c0,0,18,29,18,53c0,0,0,18,-14,32c0,0,-14,13,-43,27c0,0,-56,29,-56,93c0,0,0,45,32,72c0,0,33,27,87,27c0,0,63,0,105,-40c0,0,42,-41,42,-105c0,0,0,-118,-77,-197c0,0,-78,-80,-227,-120Z"
id="f0_1k5"
transform="scale(0.001,-0.001)"/>

<path d="M410,-14c0,0,-86,0,-175,14C235,0,145,14,81,38V307h66L181,146c0,0,31,-37,94,-62c0,0,64,-24,132,-24c0,0,214,0,214,177c0,0,0,55,-41,93c0,0,-41,38,-128,68c0,0,-128,42,-185,68c0,0,-56,27,-95,63c0,0,-38,36,-62,87c0,0,-23,51,-23,125c0,0,0,132,90,201c0,0,90,69,263,69c0,0,125,0,278,-32V741H651L618,878c0,0,-76,56,-178,56c0,0,-92,0,-141,-34c0,0,-49,-34,-49,-104c0,0,0,-50,41,-86c0,0,41,-35,128,-63c0,0,171,-56,235,-97c0,0,64,-41,97,-103c0,0,34,-61,34,-143c0,0,0,-318,-375,-318Z"
id="f0_1j"
transform="scale(0.001,-0.001)"/>

<path d="M452,474c0,0,104,0,151,52c0,0,47,53,47,178c0,0,0,119,-45,167c0,0,-44,47,-156,47H390V474ZM36,0V54L154,74V926L26,945v55H467c0,0,213,0,318,-71c0,0,105,-71,105,-224c0,0,0,-313,-366,-313H390V74L557,54V0Z"
id="f0_1g"
transform="scale(0.001,-0.001)"/>

<path d="M122,0V64L295,82V837L123,780v64l282,165H511V82L685,64V0Z"
id="f0_l"
transform="scale(0.001,-0.001)"/>

<path d="M379,60c0,0,55,0,82,103c0,0,26,104,26,342c0,0,0,233,-26,335c0,0,-26,102,-82,102c0,0,-55,0,-79,-99c0,0,-23,-99,-23,-338c0,0,0,-244,24,-345c0,0,24,-100,78,-100Zm-2,-74c0,0,-158,0,-238,132c0,0,-81,133,-81,386c0,0,0,249,81,380c0,0,80,132,244,132c0,0,159,0,241,-130c0,0,82,-130,82,-382c0,0,0,-518,-329,-518Z"
id="f0_k"
transform="scale(0.001,-0.001)"/>

<path d="M614,-14c0,0,-163,0,-285,59c0,0,-122,60,-188,174c0,0,-66,114,-66,269c0,0,0,252,143,387c0,0,144,136,410,136c0,0,65,0,118,-5c0,0,54,-5,100,-14c0,0,46,-9,170,-44V718H949L931,848c0,0,-59,40,-130,62c0,0,-71,23,-146,23c0,0,-174,0,-253,-108c0,0,-80,-108,-80,-335c0,0,0,-211,84,-319c0,0,84,-108,243,-108c0,0,87,0,165,26V377L686,397v55h461V397l-98,-20V52C1049,52,956,22,834,4C834,4,712,-14,614,-14Z"
id="f0_17"
transform="scale(0.001,-0.001)"/>

<path d="M51,0V55L180,74V926L51,946v54H543V946L415,926V74L543,55V0Z"
id="f0_19"
transform="scale(0.001,-0.001)"/>

<path d="M26,0V55L154,74V926L26,946v54H518V946L389,926V555H798V926L670,946v54h493V946L1034,926V74L1163,55V0H670V55L798,74V473H389V74L518,55V0Z"
id="f0_18"
transform="scale(0.001,-0.001)"/>

<path d="M608,-14c0,0,-251,0,-392,133C216,119,75,252,75,488c0,0,0,257,134,390c0,0,135,133,398,133c0,0,174,0,361,-50l4,-240H905L884,866c0,0,-98,67,-229,67c0,0,-173,0,-253,-108c0,0,-80,-108,-80,-334c0,0,0,-209,84,-319c0,0,83,-109,243,-109c0,0,84,0,147,22c0,0,63,22,99,53l24,164h68L982,48C982,48,915,22,808,4C808,4,700,-14,608,-14Z"
id="f0_13"
transform="scale(0.001,-0.001)"/>

<path d="M506,-22L99,926L17,946v54H452V946L348,926L630,270L892,926L791,946v54h295V946L991,926L605,-22Z"
id="f0_1m"
transform="scale(0.001,-0.001)"/>

<path d="M498,506c0,0,115,0,164,47c0,0,48,48,48,166c0,0,0,112,-46,156c0,0,-46,43,-169,43H390V506ZM793,0L514,423H390V74L518,54V0H36V54L154,74V926L26,945v55H504c0,0,221,0,330,-68c0,0,109,-68,109,-212c0,0,0,-215,-201,-276L1009,74L1117,54V0Z"
id="f0_1i"
transform="scale(0.001,-0.001)"/>

<path d="M41,0V49l69,18V634L41,652v49H313l11,-61l50,26c0,0,105,54,188,54c0,0,125,0,167,-91c0,0,153,91,258,91c0,0,189,0,189,-207V67l71,-17V0H898V50l63,17V484c0,0,0,63,-24,98c0,0,-25,35,-74,35c0,0,-55,0,-119,-31c0,0,7,-32,7,-73V67L821,50V0H473V50l63,17V484c0,0,0,63,-25,98c0,0,-24,35,-73,35c0,0,-49,0,-113,-29V67L389,49V0Z"
id="f0_29"
transform="scale(0.001,-0.001)"/>

<path d="M345,75c0,0,50,0,110,26V351l-63,-2c0,0,-72,-3,-100,-38c0,0,-28,-35,-28,-113c0,0,0,-63,22,-93c0,0,23,-30,59,-30ZM266,-14c0,0,-217,0,-217,208c0,0,0,79,32,126c0,0,32,48,93,71c0,0,60,22,190,25l91,2V521c0,0,0,126,-104,126c0,0,-62,0,-140,-39L183,521H134V691c0,0,112,17,165,21c0,0,53,5,108,5c0,0,264,0,264,-194V67L741,49V0H483L466,54C466,54,408,14,361,0c0,0,-47,-14,-95,-14Z"
id="f0_1x"
transform="scale(0.001,-0.001)"/>

<path d="M159,-329c0,0,-61,0,-123,14v180H81l32,-94c0,0,21,-17,55,-17c0,0,28,0,50,13c0,0,21,14,40,39c0,0,20,25,37,62c0,0,17,37,50,110L64,634L15,652v49H374V652L290,632L455,244L602,634l-82,18v49H749V652L698,637L421,-44c0,0,-47,-121,-83,-176c0,0,-36,-55,-80,-82c0,0,-43,-27,-99,-27Z"
id="f0_2l"
transform="scale(0.001,-0.001)"/>

<path d="M424,64c0,0,74,0,109,71c0,0,36,72,36,236c0,0,0,137,-34,201c0,0,-34,65,-111,65c0,0,-29,0,-62,-7c0,0,-34,-6,-55,-19V76c0,0,47,-12,117,-12Zm21,-78c0,0,-121,0,-354,50V994l-72,18v48H307V802c0,0,0,-69,-8,-141c0,0,30,25,86,42c0,0,57,17,110,17c0,0,153,0,223,-84c0,0,70,-83,70,-266c0,0,0,-180,-90,-283C698,87,608,-14,445,-14Z"
id="f0_1y"
transform="scale(0.001,-0.001)"/>

<path d="M434,423c0,0,0,101,-7,142c0,0,-6,40,-22,60c0,0,-16,19,-45,19c0,0,-44,0,-66,-48c0,0,-22,-49,-22,-173ZM389,-14c0,0,-172,0,-254,89c0,0,-83,90,-83,279c0,0,0,184,79,274c0,0,79,91,238,91c0,0,142,0,206,-76c0,0,64,-76,64,-237V345H271V333c0,0,0,-111,18,-158c0,0,18,-47,58,-72c0,0,40,-25,110,-25c0,0,66,0,166,22V42C623,42,582,18,517,1c0,0,-66,-15,-128,-15Z"
id="f0_21"
transform="scale(0.001,-0.001)"/>

<path d="M30,0V49l76,18V992l-72,18v50H322V67L398,49V0Z"
id="f0_28"
transform="scale(0.001,-0.001)"/>

<path d="M327,-14c0,0,-101,0,-156,45c0,0,-55,45,-55,131V624H25v48l108,29l87,159H332V701H480V624H332V176c0,0,0,-49,20,-73c0,0,20,-25,53,-25c0,0,40,0,97,12V26c0,0,-22,-15,-76,-27c0,0,-55,-13,-99,-13Z"
id="f0_2g"
transform="scale(0.001,-0.001)"/>

<path d="M379,60c0,0,59,0,84,64c0,0,24,65,24,231c0,0,0,164,-24,227c0,0,-24,63,-84,63c0,0,-57,0,-80,-60c0,0,-22,-61,-22,-230c0,0,0,-173,23,-234c0,0,22,-61,79,-61Zm-2,-74c0,0,-161,0,-240,91c0,0,-79,91,-79,277c0,0,0,186,80,276c0,0,81,90,245,90c0,0,167,0,245,-93c0,0,78,-93,78,-273c0,0,0,-188,-81,-278c0,0,-81,-90,-248,-90Z"
id="f0_2b"
transform="scale(0.001,-0.001)"/>

<path d="M276,-14c0,0,-57,0,-125,13C151,-1,83,10,48,23V214H97l28,-98c0,0,26,-26,69,-44c0,0,42,-17,86,-17c0,0,65,0,97,28c0,0,32,28,32,71c0,0,0,41,-31,65c0,0,-30,25,-133,57c0,0,-108,34,-154,92c0,0,-45,58,-45,143c0,0,0,95,71,152c0,0,71,57,183,57c0,0,77,0,207,-22V518H457l-24,82c0,0,-21,22,-60,35c0,0,-40,14,-75,14c0,0,-53,0,-79,-22c0,0,-26,-22,-26,-59c0,0,0,-40,32,-65c0,0,32,-26,132,-55c0,0,109,-34,155,-89c0,0,45,-55,45,-137c0,0,0,-117,-72,-177c0,0,-72,-59,-209,-59Z"
id="f0_2f"
transform="scale(0.001,-0.001)"/>

<path d="M438,65c0,0,131,0,131,293c0,0,0,279,-130,279c0,0,-69,0,-127,-29V80c0,0,60,-15,126,-15ZM20,-325v50l76,18V634L19,652v49H304l1,-36c0,0,80,55,194,55c0,0,146,0,218,-86c0,0,71,-86,71,-271c0,0,0,-183,-83,-280c0,0,-83,-97,-238,-97c0,0,-79,0,-160,19c0,0,5,-48,5,-109V-257l103,-18v-50Z"
id="f0_2c"
transform="scale(0.001,-0.001)"/>

<path d="M43,0V49l67,18V992l-72,18v50H325V336L599,635l-75,17v49H791V652L711,636L544,460L785,67L847,50V0H510V50l41,17L411,313L325,253V67L395,49V0Z"
id="f0_27"
transform="scale(0.001,-0.001)"/>

<path d="M41,0V49l69,18V992l-72,18v50H325V756c0,0,0,-49,-4,-116l51,26c0,0,106,54,190,54c0,0,194,0,194,-207V67L827,49V0H478V49l63,18V484c0,0,0,63,-27,98c0,0,-26,35,-75,35c0,0,-57,0,-114,-25V67L389,49V0Z"
id="f0_24"
transform="scale(0.001,-0.001)"/>

<path d="M41,0V49l69,18V634L41,652v49H313l11,-61l50,26c0,0,105,54,188,54c0,0,194,0,194,-207V67L827,49V0H478V49l63,18V484c0,0,0,63,-27,98c0,0,-26,35,-75,35c0,0,-57,0,-114,-25V67L389,49V0Z"
id="f0_2a"
transform="scale(0.001,-0.001)"/>

<path d="M360,-256c0,0,108,0,167,35c0,0,59,35,59,98c0,0,0,70,-95,70H254c0,0,-65,-47,-65,-108c0,0,0,-47,46,-71c0,0,45,-24,125,-24Zm9,561c0,0,55,0,79,43c0,0,25,43,25,129c0,0,0,87,-24,127c0,0,-25,41,-80,41c0,0,-52,0,-75,-41c0,0,-24,-40,-24,-127c0,0,0,-86,23,-129c0,0,23,-43,76,-43Zm-9,-641c0,0,-153,0,-236,43c0,0,-84,44,-84,120c0,0,0,33,28,65c0,0,27,31,105,76c0,0,-44,17,-75,59c0,0,-31,43,-31,90L192,258c0,0,-133,56,-133,219c0,0,0,116,81,180c0,0,82,63,233,63c0,0,32,0,82,-6c0,0,51,-6,74,-13l168,83l26,-32L638,631c0,0,46,-57,46,-154c0,0,0,-119,-80,-182c0,0,-80,-64,-234,-64c0,0,-59,0,-114,9L238,183c0,0,1,-22,28,-41c0,0,26,-19,64,-19H493c0,0,256,0,256,-196c0,0,0,-81,-44,-139c0,0,-45,-59,-131,-92c0,0,-86,-32,-214,-32Z"
id="f0_23"
transform="scale(0.001,-0.001)"/>

<path d="M287,-18c0,0,-194,0,-194,206V634L23,652v49H309V217c0,0,0,-63,26,-98c0,0,27,-35,76,-35c0,0,57,0,113,25V634l-64,18v49H740V67L809,49V0H536L526,61L475,35c0,0,-104,-53,-188,-53Z"
id="f0_2h"
transform="scale(0.001,-0.001)"/>

<path d="M41,0V49l76,18V624H11v51l106,29v75c0,0,0,144,73,220c0,0,73,77,210,77c0,0,74,0,124,-15V894H476l-22,81c0,0,-18,17,-47,17c0,0,-74,0,-74,-189V701H475V624H333V67L447,49V0Z"
id="f0_22"
transform="scale(0.001,-0.001)"/>

<path d="M416,68c0,0,60,0,124,32V628c0,0,-58,15,-118,15c0,0,-67,0,-104,-73c0,0,-38,-73,-38,-216c0,0,0,-139,36,-212c0,0,35,-74,100,-74ZM369,-14c0,0,-155,0,-231,88c0,0,-76,90,-76,274c0,0,0,182,82,277c0,0,81,95,236,95c0,0,82,0,165,-20c0,0,-5,24,-5,115V992l-72,18v50H756V67L833,49V0H562L547,40C547,40,505,13,483,4c0,0,-23,-7,-51,-12c0,0,-28,-6,-63,-6Z"
id="f0_20"
transform="scale(0.001,-0.001)"/>

<path d="M342,-14L49,634L0,652v49H359V652L275,632L455,233L617,634l-82,18v49H764V652L713,637L433,-14Z"
id="f0_2i"
transform="scale(0.001,-0.001)"/>

<path d="M20,-236v69c0,0,47,14,81,37c0,0,33,24,52,52c0,0,18,28,18,53c0,0,0,17,-11,28c0,0,-12,12,-45,30c0,0,-57,30,-57,93c0,0,0,48,34,74c0,0,33,25,85,25c0,0,63,0,105,-41c0,0,42,-41,42,-105c0,0,0,-115,-78,-195c0,0,-77,-81,-226,-120Z"
id="f0_g"
transform="scale(0.001,-0.001)"/>

<path d="M34,0V49l76,18V634L38,652v49H325V67L402,49V0ZM217,831c0,0,-48,0,-81,33c0,0,-34,33,-34,82c0,0,0,48,34,81c0,0,34,33,81,33c0,0,48,0,81,-33c0,0,33,-33,33,-81c0,0,0,-47,-33,-81c0,0,-32,-34,-81,-34Z"
id="f0_25"
transform="scale(0.001,-0.001)"/>

<path d="M425,-14c0,0,-187,0,-280,90c0,0,-93,90,-93,276c0,0,0,115,42,198c0,0,43,82,121,126c0,0,78,44,182,44c0,0,104,0,227,-26V486H571L539,609c0,0,-25,19,-50,26c0,0,-24,7,-65,7c0,0,-44,0,-79,-35c0,0,-36,-35,-56,-98c0,0,-20,-64,-20,-153c0,0,0,-150,47,-214c0,0,47,-64,148,-64c0,0,103,0,176,21V42C640,42,606,15,547,0c0,0,-59,-14,-122,-14Z"
id="f0_1z"
transform="scale(0.001,-0.001)"/>

<path d="M41,0V49l91,18V634L41,652v49H336l8,-145c0,0,80,89,144,128c0,0,64,40,117,40h40V468H604l-45,94c0,0,-47,0,-106,-21c0,0,-60,-20,-105,-48V67L460,49V0Z"
id="f0_2e"
transform="scale(0.001,-0.001)"/>

<path d="M191,-20c0,0,-51,0,-88,34c0,0,-36,36,-36,88c0,0,0,52,36,88c0,0,36,36,88,36c0,0,51,0,88,-36c0,0,36,-36,36,-88c0,0,0,-51,-36,-87c0,0,-36,-35,-88,-35Z"
id="f0_i"
transform="scale(0.001,-0.001)"/>

<path d="M460,-325c0,0,-148,79,-231,172c0,0,-84,93,-123,217c0,0,-39,126,-39,305c0,0,0,178,39,303c0,0,39,125,123,218c0,0,83,92,231,170V975c0,0,-68,-52,-109,-133c0,0,-41,-81,-61,-189c0,0,-19,-109,-19,-285c0,0,0,-177,19,-285c0,0,19,-107,60,-189c0,0,42,-82,110,-134v-85Z"
id="f0_c"
transform="scale(0.001,-0.001)"/>

<path d="M342,-14c0,0,-138,0,-276,29L57,258h69L165,96c0,0,65,-36,136,-36c0,0,90,0,141,58c0,0,50,57,50,161c0,0,0,91,-40,139c0,0,-41,48,-132,54l-87,5v90l84,6c0,0,66,5,98,49c0,0,32,44,32,134c0,0,0,83,-38,131c0,0,-38,48,-107,48c0,0,-40,0,-66,-13c0,0,-26,-12,-49,-26L155,751H90V979c0,0,76,19,132,26c0,0,55,6,108,6c0,0,337,0,337,-246c0,0,0,-102,-54,-164c0,0,-54,-63,-153,-78c0,0,252,-30,252,-251c0,0,0,-136,-98,-211c0,0,-98,-75,-272,-75Z"
id="f0_n"
transform="scale(0.001,-0.001)"/>

<path d="M248,-20c0,0,-52,0,-87,34c0,0,-36,36,-36,88c0,0,0,52,36,88c0,0,35,36,87,36c0,0,52,0,88,-36c0,0,36,-36,36,-88c0,0,0,-51,-36,-87c0,0,-35,-35,-88,-35Zm0,488c0,0,-52,0,-87,36c0,0,-36,36,-36,88c0,0,0,52,35,88c0,0,35,36,88,36c0,0,53,0,89,-36c0,0,35,-37,35,-88c0,0,0,-51,-36,-87c0,0,-35,-37,-88,-37Z"
id="f0_u"
transform="scale(0.001,-0.001)"/>

<path d="M49,-325v85c0,0,68,53,110,135c0,0,41,82,60,190c0,0,19,109,19,283c0,0,0,177,-19,285c0,0,-20,108,-61,189c0,0,-41,81,-109,133v85c0,0,149,-80,232,-172c0,0,83,-92,122,-217c0,0,39,-125,39,-302c0,0,0,-178,-39,-304c0,0,-39,-125,-122,-218c0,0,-83,-93,-232,-172Z"
id="f0_d"
transform="scale(0.001,-0.001)"/>

<path d="M519,79c0,0,97,0,153,42c0,0,57,42,83,131c0,0,26,89,26,248c0,0,0,216,-79,317c0,0,-79,101,-257,101H389V85c0,0,72,-6,130,-6ZM533,-2L198,0H27V54L155,74V926L27,945v55H502c0,0,269,0,398,-122c0,0,129,-122,129,-372c0,0,0,-258,-123,-383C906,123,783,-2,533,-2Z"
id="f0_14"
transform="scale(0.001,-0.001)"/>

<path d="M173,641l-57,359H309L251,641Z"
id="f0_b"
transform="scale(0.001,-0.001)"/>

<path d="M56,294V424H453V294Z"
id="f0_h"
transform="scale(0.001,-0.001)"/>

<path d="M900,0V54l135,20V845L658,0H617L248,845V74L382,54V0H26V54L154,74V926L26,945v55H419L705,342l292,658h401V945L1270,926V74L1398,54V0Z"
id="f0_1d"
transform="scale(0.001,-0.001)"/>

<path d="M305,-14L57,634L4,652v49H351V652L268,632L419,232L581,631h71L814,232L950,634l-82,18v49h227V652l-54,-15L806,-14H715L555,378L395,-14Z"
id="f0_2j"
transform="scale(0.001,-0.001)"/>

<path d="M285,0V54L444,74V389L140,926L27,945v55H542V945L407,926L636,507L856,926L734,945v55h340V945L968,926L680,394V74L838,54V0Z"
id="f0_1p"
transform="scale(0.001,-0.001)"/>

<path d="M377,478c0,0,57,0,112,14v10c0,0,0,216,-25,325c0,0,-26,110,-91,110c0,0,-112,0,-112,-245c0,0,0,-214,116,-214ZM312,-14c0,0,-124,0,-232,31V245h65L177,99c0,0,26,-18,62,-29c0,0,36,-10,70,-10c0,0,80,0,126,91c0,0,45,92,52,265c0,0,-77,-28,-154,-28c0,0,-135,0,-213,81c0,0,-78,80,-78,226c0,0,0,152,87,234c0,0,87,82,242,82c0,0,176,0,257,-123c0,0,81,-123,81,-385c0,0,0,-169,-48,-284C661,219,614,103,525,44c0,0,-89,-58,-213,-58Z"
id="f0_t"
transform="scale(0.001,-0.001)"/>

<path d="M377,60c0,0,65,0,94,49c0,0,30,49,30,160c0,0,0,115,-30,168c0,0,-29,52,-94,52c0,0,-61,0,-88,-51c0,0,-26,-51,-26,-169c0,0,0,-115,27,-162c0,0,27,-47,87,-47Zm2,509c0,0,51,0,75,43c0,0,24,43,24,143c0,0,0,98,-24,142c0,0,-25,45,-75,45c0,0,-48,0,-71,-45c0,0,-22,-44,-22,-142c0,0,0,-102,22,-144c0,0,22,-42,71,-42ZM377,-14c0,0,-326,0,-326,284c0,0,0,95,46,162c0,0,46,68,128,98c0,0,-72,28,-112,85c0,0,-39,58,-39,141c0,0,0,123,81,191c0,0,81,69,228,69c0,0,145,0,226,-70c0,0,81,-70,81,-192c0,0,0,-82,-40,-140c0,0,-41,-58,-114,-84c0,0,86,-32,132,-99c0,0,45,-67,45,-161c0,0,0,-142,-82,-213c0,0,-81,-71,-254,-71Z"
id="f0_s"
transform="scale(0.001,-0.001)"/>


</defs>
</svg>